<mxfile modified="2021-05-03T08:48:40.942Z" host="app.diagrams.net" agent="5.0 (Macintosh; Intel Mac OS X 10_15_7) AppleWebKit/537.36 (KHTML, like Gecko) Chrome/90.0.4430.93 Safari/537.36" etag="3drc4a4UU5pykBeo4MhA" version="14.6.9" type="github">
  <diagram id="Ht1M8jgEwFfnCIfOTk4-" name="Page-1">
    <mxGraphModel dx="4167" dy="1704" grid="0" gridSize="10" guides="1" tooltips="1" connect="1" arrows="1" fold="1" page="1" pageScale="1" pageWidth="1169" pageHeight="827" math="0" shadow="0">
      <root>
        <mxCell id="0" />
        <mxCell id="1" parent="0" />
        <mxCell id="sOEvAEHPT5xNIOF1DYVB-7" value="AWS Kinesis" style="text;html=1;align=center;verticalAlign=middle;resizable=0;points=[];autosize=1;strokeWidth=3;fontSize=18;fontStyle=1" parent="1" vertex="1">
          <mxGeometry x="-871.5" y="290" width="130" height="30" as="geometry" />
        </mxCell>
        <mxCell id="sOEvAEHPT5xNIOF1DYVB-18" value="" style="edgeStyle=elbowEdgeStyle;elbow=horizontal;endArrow=classic;html=1;fontSize=18;exitX=1;exitY=0.5;exitDx=0;exitDy=0;exitPerimeter=0;" parent="1" edge="1">
          <mxGeometry width="50" height="50" relative="1" as="geometry">
            <mxPoint x="-767.5" y="369" as="sourcePoint" />
            <mxPoint x="-576.2937652969213" y="369" as="targetPoint" />
          </mxGeometry>
        </mxCell>
        <mxCell id="0ClBr7Q9rkolvcIS5It6-21" value="Store Data" style="edgeLabel;html=1;align=center;verticalAlign=middle;resizable=0;points=[];fontStyle=1" vertex="1" connectable="0" parent="sOEvAEHPT5xNIOF1DYVB-18">
          <mxGeometry x="0.1934" y="3" relative="1" as="geometry">
            <mxPoint as="offset" />
          </mxGeometry>
        </mxCell>
        <mxCell id="sOEvAEHPT5xNIOF1DYVB-19" value="AWS S3" style="text;html=1;align=center;verticalAlign=middle;resizable=0;points=[];autosize=1;strokeWidth=3;fontSize=18;fontStyle=1" parent="1" vertex="1">
          <mxGeometry x="-584" y="292.5" width="80" height="30" as="geometry" />
        </mxCell>
        <mxCell id="sOEvAEHPT5xNIOF1DYVB-22" value="&lt;br&gt;Machine Learning&lt;br&gt;System recommendations" style="text;html=1;align=center;verticalAlign=middle;resizable=0;points=[];autosize=1;strokeWidth=3;fontSize=18;fontStyle=1" parent="1" vertex="1">
          <mxGeometry x="-379" y="222.5" width="240" height="70" as="geometry" />
        </mxCell>
        <mxCell id="sOEvAEHPT5xNIOF1DYVB-25" value="" style="html=1;dashed=0;whitespace=wrap;fillColor=#2875E2;strokeColor=#ffffff;points=[[0.005,0.63,0],[0.1,0.2,0],[0.9,0.2,0],[0.5,0,0],[0.995,0.63,0],[0.72,0.99,0],[0.5,1,0],[0.28,0.99,0]];shape=mxgraph.kubernetes.icon;prIcon=api;fontSize=18;" parent="1" vertex="1">
          <mxGeometry x="-1169" y="470" width="50" height="50" as="geometry" />
        </mxCell>
        <mxCell id="sOEvAEHPT5xNIOF1DYVB-26" value="Mobile client" style="outlineConnect=0;fontColor=#232F3E;gradientColor=none;strokeColor=#232F3E;fillColor=#ffffff;dashed=0;verticalLabelPosition=bottom;verticalAlign=top;align=center;html=1;fontSize=12;fontStyle=0;aspect=fixed;shape=mxgraph.aws4.resourceIcon;resIcon=mxgraph.aws4.mobile_client;" parent="1" vertex="1">
          <mxGeometry x="20" y="150" width="100" height="100" as="geometry" />
        </mxCell>
        <mxCell id="sOEvAEHPT5xNIOF1DYVB-40" value="Stakeholder Dashboard&amp;nbsp;&lt;br&gt;Charts&lt;br&gt;Analytics&lt;br&gt;" style="text;html=1;align=center;verticalAlign=middle;resizable=0;points=[];autosize=1;fontSize=18;fontStyle=1" parent="1" vertex="1">
          <mxGeometry x="269" y="438" width="220" height="70" as="geometry" />
        </mxCell>
        <mxCell id="sOEvAEHPT5xNIOF1DYVB-41" value="-User interface&amp;nbsp;&lt;br&gt;-recommendations" style="text;html=1;align=center;verticalAlign=middle;resizable=0;points=[];autosize=1;strokeWidth=3;fontSize=18;fontStyle=1" parent="1" vertex="1">
          <mxGeometry x="130" y="180" width="180" height="50" as="geometry" />
        </mxCell>
        <mxCell id="sOEvAEHPT5xNIOF1DYVB-44" value="Google API" style="text;html=1;align=center;verticalAlign=middle;resizable=0;points=[];autosize=1;fontSize=18;fontStyle=1" parent="1" vertex="1">
          <mxGeometry x="-1200" y="525" width="110" height="30" as="geometry" />
        </mxCell>
        <mxCell id="sOEvAEHPT5xNIOF1DYVB-47" value="&lt;div style=&quot;text-align: left; font-size: 40px;&quot;&gt;&lt;span style=&quot;font-size: 40px;&quot;&gt;SMART TOUR Data architecture&lt;/span&gt;&lt;/div&gt;" style="text;html=1;align=center;verticalAlign=middle;resizable=0;points=[];autosize=1;fontSize=40;fontStyle=1;fontColor=#3333FF;" parent="1" vertex="1">
          <mxGeometry x="-980" y="60" width="620" height="50" as="geometry" />
        </mxCell>
        <mxCell id="sOEvAEHPT5xNIOF1DYVB-49" value="&lt;font style=&quot;font-size: 19px&quot; color=&quot;#ff0a0a&quot;&gt;&lt;span&gt;Data Source&amp;nbsp;&lt;/span&gt;&lt;/font&gt;" style="text;html=1;align=center;verticalAlign=middle;resizable=0;points=[];autosize=1;fontSize=40;fontColor=#3333FF;fontStyle=3;labelBorderColor=#000000;labelBackgroundColor=#E6E6E6;" parent="1" vertex="1">
          <mxGeometry x="-1154" y="210" width="130" height="60" as="geometry" />
        </mxCell>
        <mxCell id="sOEvAEHPT5xNIOF1DYVB-50" value="&lt;font style=&quot;font-size: 19px&quot; color=&quot;#ff0a0a&quot;&gt;&lt;span&gt;Ingest&amp;nbsp;&lt;/span&gt;&lt;/font&gt;" style="text;html=1;align=center;verticalAlign=middle;resizable=0;points=[];autosize=1;fontSize=40;fontColor=#3333FF;fontStyle=3;labelBorderColor=#000000;labelBackgroundColor=#E6E6E6;" parent="1" vertex="1">
          <mxGeometry x="-851.5" y="210" width="80" height="60" as="geometry" />
        </mxCell>
        <mxCell id="sOEvAEHPT5xNIOF1DYVB-52" value="&lt;font style=&quot;font-size: 19px&quot; color=&quot;#ff0a0a&quot;&gt;&lt;span&gt;Store&lt;br&gt;&lt;/span&gt;&lt;/font&gt;" style="text;html=1;align=center;verticalAlign=middle;resizable=0;points=[];autosize=1;fontSize=40;fontColor=#3333FF;fontStyle=3;labelBorderColor=#000000;labelBackgroundColor=#E6E6E6;" parent="1" vertex="1">
          <mxGeometry x="-574" y="210" width="60" height="60" as="geometry" />
        </mxCell>
        <mxCell id="sOEvAEHPT5xNIOF1DYVB-53" value="&lt;font style=&quot;font-size: 19px&quot; color=&quot;#ff0a0a&quot;&gt;&lt;span&gt;Preparation and Training&lt;br&gt;&lt;/span&gt;&lt;/font&gt;" style="text;html=1;align=center;verticalAlign=middle;resizable=0;points=[];autosize=1;fontSize=40;fontColor=#3333FF;fontStyle=3;labelBorderColor=#000000;labelBackgroundColor=#E6E6E6;" parent="1" vertex="1">
          <mxGeometry x="-382" y="190" width="240" height="60" as="geometry" />
        </mxCell>
        <mxCell id="sOEvAEHPT5xNIOF1DYVB-54" value="&lt;font style=&quot;font-size: 19px&quot; color=&quot;#ff0a0a&quot;&gt;&lt;span&gt;Serving Users&lt;br&gt;&lt;/span&gt;&lt;/font&gt;" style="text;html=1;align=center;verticalAlign=middle;resizable=0;points=[];autosize=1;fontSize=40;fontColor=#3333FF;fontStyle=3;labelBorderColor=#000000;labelBackgroundColor=#E6E6E6;" parent="1" vertex="1">
          <mxGeometry x="140" y="110" width="140" height="60" as="geometry" />
        </mxCell>
        <mxCell id="sOEvAEHPT5xNIOF1DYVB-55" value="&lt;font style=&quot;font-size: 19px&quot; color=&quot;#ff0a0a&quot;&gt;&lt;span&gt;Serving Stakeholders&amp;nbsp;&lt;br&gt;&lt;/span&gt;&lt;/font&gt;" style="text;html=1;align=center;verticalAlign=middle;resizable=0;points=[];autosize=1;fontSize=40;fontColor=#3333FF;fontStyle=3;labelBorderColor=#000000;labelBackgroundColor=#E6E6E6;" parent="1" vertex="1">
          <mxGeometry x="110" y="310" width="210" height="60" as="geometry" />
        </mxCell>
        <mxCell id="HFn48-JLVJu4d9QGS95K-2" value="&lt;font style=&quot;font-size: 24px&quot;&gt;&lt;b&gt;Assets&amp;nbsp;&lt;/b&gt;:&lt;br&gt;1) Database&amp;nbsp;&lt;br&gt;2) Domain&lt;br&gt;3) Softwares ( Python,HTML,Jira, MongoDb, Azure Tools)&amp;nbsp;&amp;nbsp;&lt;br&gt;4) ML Algorithms&amp;nbsp;&lt;br&gt;5) Cyber Security&amp;nbsp;&lt;br&gt;6) Data Warehouses&amp;nbsp;&lt;br&gt;7) APIs&lt;br&gt;8) User information&lt;br&gt;9) HW servers&lt;br&gt;10) Voucher System protection&amp;nbsp;&lt;br&gt;11)&amp;nbsp;&lt;br&gt;&lt;br&gt;&lt;/font&gt;" style="shape=note;whiteSpace=wrap;html=1;backgroundOutline=1;darkOpacity=0.05;align=left;" parent="1" vertex="1">
          <mxGeometry x="-1070" y="720" width="577.75" height="410" as="geometry" />
        </mxCell>
        <mxCell id="KdaQk0AOruigDVFzN6bK-1" value="&lt;font style=&quot;font-size: 24px&quot;&gt;&lt;b&gt;ML Models:&lt;br&gt;&lt;/b&gt;1) Content Based Model&amp;nbsp;&lt;br&gt;2) Graph based Model&lt;br&gt;3) A* Algorithm&lt;br&gt;&lt;/font&gt;" style="shape=note;whiteSpace=wrap;html=1;backgroundOutline=1;darkOpacity=0.05;align=left;" parent="1" vertex="1">
          <mxGeometry x="-299" y="720" width="450" height="180" as="geometry" />
        </mxCell>
        <mxCell id="-99rYCoDhHkam4oFZI1G-1" value="" style="shape=image;html=1;verticalAlign=top;verticalLabelPosition=bottom;labelBackgroundColor=#ffffff;imageAspect=0;aspect=fixed;image=https://cdn3.iconfinder.com/data/icons/logos-and-brands-adobe/512/267_Python-128.png" parent="1" vertex="1">
          <mxGeometry x="-269" y="427" width="29" height="29" as="geometry" />
        </mxCell>
        <mxCell id="-99rYCoDhHkam4oFZI1G-3" value="" style="dashed=0;outlineConnect=0;html=1;align=center;labelPosition=center;verticalLabelPosition=bottom;verticalAlign=top;shape=mxgraph.weblogos.html5" parent="1" vertex="1">
          <mxGeometry x="-230" y="426.75" width="20" height="25.5" as="geometry" />
        </mxCell>
        <mxCell id="2urvaEcrrpWbOnUZdBbd-1" value="" style="shape=image;verticalLabelPosition=bottom;labelBackgroundColor=#ffffff;verticalAlign=top;aspect=fixed;imageAspect=0;image=data:image/png,iVBORw0KGgoAAAANSUhEUgAAAaQAAADSCAMAAAAynkRvAAADAFBMVEX///89OTZtamhwbWs1MC4jHhxOSkgfGhfnchXHxsUhHBlBPDpybm0xLSpSTkwqJSLJyMh2c3H9/f1HQkCUkZBUUE5kYF55dnSioJ+koqCFgoFIREJcWFaIhoRgXFq1tLOdm5mPjYsgGxiwrq3vnl6Bf33oeB7ndBkwKyjDwsFLR0T8/Pzx8fBdWljxrnmLiIclIB1WU1D08/OopqXt7OxraGa4trUoIyAtKCZ7eHezsbD53caAfXs4MzDCwL/qhDL6+vr528L87uL29vZ9eng7NzTodhv99e7ncxfU09LT0tI3MjBnZGLX1tUrJyTwpWmQjoz+9/G/vb3wp2x0cW9lYmBZVVPGxcTv7+/W1dTPzs34+PhpZWPz8vL638qMiYjoeiGWlJPo6Ofd3NzQz87um1lEQD3i4eG6uLf5+fns6+ugnp3m5eW9vLu3tbTZ2Nj19fX98+z//Pr1xJz0vZL7+/rqhTXsjUKsq6nu7u7ysoD39/ff397NzMu0s7K8u7rxq3Tn5+bxrHVQTErriTzwqXHpfiifnZz75tXS0dH3z7DzuYrtllH3zaztlE7j4uIkHxwzLyza2dn98enAvr3My8rV1NP//v7+/v776NjrhzjvomViXlympKP++/mvrazg4N/qgS/++fb41LiYlpVNSUb++PO7urn65NLytYXriz/2yab0v5SOi4rysH3b2trq6emSkI6urKvX19YsJyWbmZf52cH1xqHEw8LR0ND76dv64s/8697pfCbrij3skEeqqKf88ObIxsbpgC330rTh4OD0vJDc29vy8vHe3dz64Mw5NTJqZmT41rrrjEDY19fwqG7zt4jvoWKDgH/tk0v417zsj0X7+/uysK/407fpeyT1wpmnpaTe3t33zq32yqftmFSNionFxMPskknp6ejk4+P++PT2yKTr6url5OT3zq7//fz30LH87+T759j2zKrytIL2yKOrqaj++vf649GenJuXlZT87N/KyciHhILLysnzu47riDr2yqj0wJb76tw9FYHzAAAUjklEQVR42u1dZWBUxxZeYrtESCBOsEACAUKwQJAGCBAsIbgEd29xCw4FihSXForbo3gLNWihSKGlQlsolVe3V3l9fe6SzSa7d86cuXfuZrN7b9/5ftByZ+Zw55ydOWeOzLVYCAQCgUAgEAgEAoFAIBAIBAKBQPAa9n77TtsRb+4+MYNYYVg8es3mQNu1xAyDosDmwnJihyGx1KbEWGKIEfc6G4vjxBLD4WAXICRba2KK0fAOlJHtwx+IK8bCCzYeZDwYDGmIkGyPE1+MhF6dMCHNJcYYCT/aUPyOOGPYM5ITtfcSa4yDh3Eh2e4QawyDznUEQrK9QMwxCt4Qycj2MDHHKDgpFJLtU+KOQbBcLKROZDsYBBvEQrKtJPYYAj+sUhGS7VfEICOgvZqMbE8Sg4wAJpRU519QSh/J0tmalZXVnthZNviZsRRevguE1OWoNokZw/7zzq6i09bDyy8SR8sASUqRjLD8BJdSksb4R37fh9Fqp4mlngfjFLprsYyFUnpNPPavn6x8iSzCssfRTmAZcF6itvjA6ddPv4cbG/eIqx7Grxj+nih8Mgsy/SQv2Xtvr+8ktAgp18jTeJbPP2kLbYfOzIhhs5JeVDXbDxBXy9IpVGdrkRTEtsNfT/SZY9MEcdXDWK/k7hzHsz5ogtfWtWkv2WRwjbjqWew8oGTvZ46He6HtsGt669OXO9kksYHYWpZOoQJUUdlD6TYdoPRXD+MZhr0foIcnvXiZ2OpZzMRz7R4phYx6EFc9DMZGWOWK8fVwW0Z1ehFXPYy5Sv5+6Xp+sLa7QvqemOph9GJksVvR8q2bMupDTPU0LjIM/qeySepMxJXMfEk89Ti+ZzicpWx6XFNCncaevAadsQeJpx7HOkblT2fa7qguofdOX+9sKQArqROFZssASSoxiRlCF8OTS08USSON6gO9gV1qIYZPURf37pklGUT/oToMb4D1d6fB5idhjebYWcN2OlvvQRn9TAz1vGX39lyWyTNhD8bvcHld1jfCRjveIZZ6GM+kvWnTTmYoqVx6qeA6NAm2vkiVgWV6gn0jrS1WNPYN1/OPhdbbnB6fYuWz0AV7oDMx1mPo/OPuD3GbDVsKWScvSpiFdvOdapk8hZef/WyERxw6ZHyXER7552d11M6ns+RJcUHBZ4m9njC2X/lSy8vzibzVAYdS1mqpMaP18V0SztI/ydJr34US7TyLvffuXJMLMsjeGNnrABnfnsTOQ3dWScaBukjbDTC5+MXpxGj38cPMtrIh7w0zpf3X0Pi2PUKcdh//lhRR7d3f68jvOQ6Hv0Gcdh99pCR0YOlaXbsVvGKSd/gR5DFWQkJzlh/Seb/0MLoWz4NI0pTQSwXDdFNtD+OA64nT7uNRDQldnuWOuj8Itdwu4rT7OKiWXN9l7MxL7pGF13K8uJVY7T4+EJtySf/+rbtUe9BNHJ7EK4LCoT5rSxH1eRuSo88llApoJvec66WiubYUXnMCgpXoTrdhXSn2J87znUZsLh3WiVTS+t8ddZMkp+aOEptLh3ti225V2p/co7keEFpKbC4ddqoWrtw94Y7feiskQynFpcRJDZ/qSjdyEnpQ/bKHoekBv/yR3uU0nWIUHsYLEiGKlVmlsxnvEptLiWdkAhXvzdSznP5YW/7+LoKclLpIRfz6/CjvJoKW/Rzicmnx05NyoXP5iAXntz1EXC41ZkmUkK/U482Dt6z9yygzHfrFhdhqkSHZ2SEr/BIfTDWVlLYWjFAXUVuda2GV2wmVZYj58f3OW5UIj6llKjF1/kjt6rPjer/ODIOJH/p+ht0rhlt5ZNcw16a3dr2o9NWpjcaMdncpnfTx5BaGWgUY95y5xNQaDV2sc7ZXtm6RJfUJIDLCtzPrGWwV45TJTIj/FsDCvA0/lbRFJFjD5CnBAsFXfDirLfWsqvAzm6XXa6Yyab+2M2LXLrlwNv3l6WTBBfmNz6Y0r6ZVAw3MZ5EfciaSJDlTVpeUs0+mrw4q7xkl+NfQqo0nTHhweq2HvYxs1bclf08N1b97t4ZLyUdXp1W0yiDWjOfb36Zd2+3k6r6U4qlc0UMiyRDRv1CrHFab0g3hPBp91885E7G1iiyTS0b4PmNlqyyeN7PPaHKGayIfC3sVzH07a6fGUkry/ss3lZaRNaW+aUX0Vn/FPPIGY10qfVX4xwl75cWdE0zKKxdIv+Ttt19o1YF+lUwqo3PMNBLQPkHDLa5b795Me8PliU3zddp+iB4hWf9mShEtCGJnEYN1Sra+W/jnXpeHdsRnrxTn7X3Txbe3OKzWJaMaQ00ppHwwjWSkT1ThPmH/L3tJ1K4ej9qPWMd9+uW/wYG8JIJiR05+t0EG3xCyxqSbXW8wkQt8lyv2+dn/ZzcXJLz8c1avub5cSlGcJEK7OVrO9oTyCzWt2RAHZvIQ12OJ/XHgfAuSpl+0cuAtum968/VbgNcPbu5qu8Hu5E3Na31XBbMcAzuMcTzfbtEuR8Pu2C1bbIPriN3QqikMordMfERqxk6y5lnQvj/Q9Tt8XE5IXrxq2g/IKB5apSUNLc18jLWsYGeZAw4SA8MUBsWMEXJS8l7ScRj79gGwfZrDfNi0z9QyemwzO80VbHN95ymkiv2v6+WE9Htvvf3TmkGjY/bHRxaaWkaWUTVVp1nB2XDb/telckJa5623fx8I6QG+Swz6VIAmU3ZERER0/a5JaQ+fy7r/LSJizUYPpSptB9NsCGfoVFajLMLSTp99kKendmDvZuY8KVK3vohqVq/EVjxfz+/CIvcM9sERh/2Dwop/+uGRuVFXJ5Z6mq3ANH+tbIxVtgywIGWYOLx2l/ED4O03TeP7tJOg811ctTzuwJUZuk3v+8xvmhvG0Qnzqy5NYHT1zx8I9S+B31OOpyMBxbqKEcM5w+mSwb4R1xEypKI7VI7lilJYxtVop4POAP9wAZ3sczIb39Sq48C4dx0NLcHj0cJjrt2IPTpHSkjXfSYka2/dNOapZrBkxsvSad5YjU6LkVrjn8/lRzXnjntFm6hrv1gMBpQrfLZz52unJT7x57UbpxO5aQWP10dhQoKWTzY6X2oVNdaiM6682vhKD2Bjij1ckYCSc1R5zoFc0vLCRxoXShV4zTatxc8rR88GNT5GxnU+WZPOwL4ydBqKCXRHAy6NBhY1TgS7qDOfayoccFhJs/2nPcRf067jve8mPY3MrIIOv2WgXIBDS9O1SpGjU00UcpyA9y/naH1V8DqjoApMhHSPfrBcsPF50Qv+WBgWfZUcPPF16TCUes5eS2k6kfgBrLqge/GSaQMeRzked8gEzyujxC+uu8vLyKt1SqHup27dLKcjWKiSMTopSAedEOzQFCHqHepo3wMet3I8htpU7J689GwS49C77N2LoAagkxsuMbJNoFUPYoTaJEwXnSOIQhO+SSIeqFhU9LSKrj2586E+xZb5iCSvX8IagM4uSnPcQ1adqCrw2ATqpOOn5eLmPQv+4PEozP/fTJtXj2edTLt+0Qf5q38Q5DJoDKtu1Y0vMDqL9NOBscenxF3bOHpEs0832/1VydAmMbSHOFOOFWCv089ba95sxEdQ0w1Ck9gDUp64501Hl2yQwoE4ihob240v0rpqRZhnrO6AV8wDW7hDpwpDI17c8fyCoh6pgZz1Os/Ky83QECWCPyQOJOC6Pij5Svn80VMH7asajVO8AQlF4nZ2yz1180eP7tq7hh+uMSOUNFTSBnMcPbpy8RiYPJRg/AwbkXn1oGgA5sEJiVJWoY5OlDmAYbUcmZ93VXrgH3wC6VNP0WMHcoQtRnYsftJdlArffbDx45Y7RL/Eunj/w4iIuPB6k78jBJdpGYg58Zzi2pbNdxskjogFR22EFGqAcEw88JXnmOIWBOG2/g/UXydpsUfwexVzpG/CG9/J2E96Ab+YhrhaoYN7qmbQDP6zKaMspkCsQEg1uyGduchESFecajqnLjYrm4dw0Yg2gtfjYhDB00QqaREyXN0JHH7DYhKI4gSbbvLOUM7YEu7o0wJU9qlBsC1B/IuOFJqeQxtp+whVgymBW8wiI8tskR8u7yvYNUXW32NBqmqqihkfdF9MZ5RV5B6Yqh0UmZ3ySymL+43oxJIJPJqrdZ0CLwjDIA9Ck0zVCm6IG9ccmSXI2K/VZBRhMRNuitIUKqja6wEaRWVghWYsECykwEmqZO7DyE9J/Hgy+7irHh95YVCwq8Vc2C6aCZN1B0O5UzWo1sLj2ZxG0kqtgMHxY8XPWRdco1SJV1Cq3DEmE5LYH6es1D6iN6YRjmaGQNNO87qVHQIH8BAsEsvinMpuF5xqNilNECXqVBKdkQK0ifZFmTuNPawEdtCkcxsv1TuiHVpUvaNihdmEJIwRdXT2ANlFErmtYLP53PF0n+4gY180QleJNfL76jleyEbOjAZRlGgKfuSQueqqO2qD92PPzBKp45PR/XEZG+roKWG7QOT/UqRUojJ+oz/KPr8R4hiqf16fRuI15uuo/XEFGZiqEfoNMJ2QeH+CA+moDLtLEJwYhqTOPS/pbldgKppiAl53ADLwaa3wVKj5pIQHo4uTBtmMjkwpX8ZmJDWETcBuJFMoMyUY00kgwIpdRgNPzZNj5ANnhkWcVRzBaaB7l7JMZJ0ycYhD94gMnaEtMH86S6jFYIn5jL/F2eEDzSelRPF+x+rgc1L+pkDknNRffyXH4M2Yk45Ny4rEBvKF58lWswXPJQ8WbRAd/JQMMZAOtAYRtpQVPC0MOxSHaPt6QeF58CgkjS3KhFJCUkrjER0sVSXTFFE/HfJ42lpIz0DcS03CxQ4swWTsxtwYbno7zCekW/yNNecQHSxVx+eP6Lb0RlgKozo2suvBsf2e0U4WvA+WTbT9YcdfgB2OHJeKDqEgzC5TJFnpPJLV9TV7BP2LzCt1Y4bcRg9PmJk2BT3ycRuevwmldAQVEsgtidPvD3SokoUyxQwAvbH4SVNM4ak794djmlLyF2cwzENVazOrtgoAYDPwAh0nomWB+jN892DWPxsLDD4rEajYg9nuBrfDBfkJkwIxwwHo4Eht8s+jZUpDWX2fIvOiDTEXIKvwMh9DxokKz8NM4w8fX03E6HJIUK5+AFadoAqQA/J+saLKEaanCOGHZapHq8WQHYAFameKn0eYxB8+qXKhq0WQLANr7fcjOlhb44PqrfD66CYoVbQWja2HTG0PiLDwvKIZ7PAOieEq7kXsYqjteg3XjaD/uyUNIDgkEfMD9pjjrqOvghHnLQDIpQhxtaQY3w6vUTJr9FLVt6xIZKCWziqmSuVENSurhVFFEb5ilGSeQ6pjtKt1wLlZWZHBFzkazA6fF6IezUzGqpVG8ikC8+V3KKWPjjvyq114eN9+neMgzGSpjpaMMXhVpeYy1NB2+DHGTEO0Unog5l9tqV7fANEfdnYZuZVgll+AStZdBfs6W4xZiSATH/u4GLwZU3mvSv0W+n503sRVUNGLpNjUQzMgqyGOV2Gl6ZR6atYTrGJ1eGswLKhS5H46jFkabJ5XHqbZYC1CK2VjXatB/eH/yNUsG+Kl0RzTwVyBgxKLuaucmBDhcxydaPzC8avZDiuhIyZvNlNinEygYpCKXS8dfilzvK6SwuDAGW4NOBJOOpxHg7YJSOXFfj+tpGu+LCYHqYZKta+VcPsKicHOWwnayfpgyQazFVL1+XpbQ+S0XkULKV0/sIGn+OY9qA525cBNYf+JLR2RlGVwQ8AFLNkAaMcpp1o4V0gCUuDSLkU7dhitnhXd26B5KXgZar/3X51tWbBlcWyeMJ9mm7h8JHSC07o+E1dFJglxdgbWK7eV85e+8akhga4VMpvV8Q4n3X4Jj0G2hs5pZkw7XPhhuIDbguLZNrgOZjPxg/wrn2oYW02Q5JbC5Zr8WSDven7Jn5/qmDuODW98jK2HLwQ1Sypmai7sMJG/BrGVAYS0zKoTrwt0sB5M1fYOCnGYMzTwQAVW5NdV5PNwYglf3phuACkN0cffsPsis1keAzSjeCqwnzB/jdn9iWo2gQPNAa0/y7DDCHb4x/oY3F3kQJAHnvyYKDnaXp4yHIsSsh6DACxQAY67WJHZRF479jSAlPrqYfBikQ6WRk3BTQMgi084/CwnjzjMpYH+/mEyw9MSq80YdniTRvIcdoXI0ze5J6OwbsIXiZQZX7RC2MqICY7hIdq+D5CtmjFUopNB7PDm0hyOF+tgSUSr1Fl2kPlSXRBvZTh24NQM7UyJBGGgQvkajTSO975BR917nRsX3EkkmUxboU3B7ne6xaziQMd6AFmA2DdwwXEXXB3lBFJLYgQ7vIoMg7PXiH0EclcJhrTRepFQKTHnY+vhmBXbAxmMB7REXzznXcc155tDSn4LmBFsoGJ1LQkZDZf43ml8sIRWPIatBxA5xIrBIiTNNuQGHUP4w7W+dp4DFzx7w88xy5r+GhRC5b7ns/AJdTJLOEu6IhaYRAvPYR3PFdFLIGVZRrDDLU3DVTgTnjhY3RSzX1JRS+X7Bxkt5b8u11vtBOafzunQntivBi08PyVxqBbuLIa4PuCs6Non6+3EdC0d/LXDTBTcrVRh8iRdr7KtGb7pJYx0XKoRhK2HHO3tqRqS84RjKHIs2WgIh/j+yogDbbP/YuzsfoM9/JRcS7c/Lhd8ii0zd/UZ/a8yZU8zkIy3+YnDTmfHmrrlnRhQ95bj4XbFw/J1X8Wo5iu7lH8uQkVH3mC62tHKGEKyq9bEBuWcv+KMkJieA9oJOjIcVBbntev2h4ahVRoHBTVuEDt8cXe3P45ef8e+QjrRdjp9G9bq1s5CUGBUfu/m1R+acHW0mtk5TyZoTvAteuovhCD41isbRwwxIvprufwJvkc2HmQiGAgDmXPEpvnEEQMiX/t4T/A1liBpxwSDgb38JZQYYkRUZoSUSAwxIthMz3nEECOC9UNfJYYYEOBTpxuJIwYEe9FMSjviiAHBBioSiCFGBJt2EkMMMSKSTX+l1f8BRlZQYh8xhEAgEAgEAoFAIBAIBAKBQCAQCAQCgUAg/B/if6lP2pNdDgDYAAAAAElFTkSuQmCC;" parent="1" vertex="1">
          <mxGeometry x="-927.5" y="384.5" width="76" height="38" as="geometry" />
        </mxCell>
        <mxCell id="gS69FY_D9aO8S74_3pXP-1" value="" style="points=[[0,0,0],[0.25,0,0],[0.5,0,0],[0.75,0,0],[1,0,0],[0,1,0],[0.25,1,0],[0.5,1,0],[0.75,1,0],[1,1,0],[0,0.25,0],[0,0.5,0],[0,0.75,0],[1,0.25,0],[1,0.5,0],[1,0.75,0]];outlineConnect=0;fontColor=#232F3E;gradientColor=#945DF2;gradientDirection=north;fillColor=#5A30B5;strokeColor=#ffffff;dashed=0;verticalLabelPosition=bottom;verticalAlign=top;align=center;html=1;fontSize=12;fontStyle=0;aspect=fixed;shape=mxgraph.aws4.resourceIcon;resIcon=mxgraph.aws4.kinesis;" parent="1" vertex="1">
          <mxGeometry x="-845.5" y="330" width="78" height="78" as="geometry" />
        </mxCell>
        <mxCell id="gS69FY_D9aO8S74_3pXP-2" value="S3" style="outlineConnect=0;dashed=0;verticalLabelPosition=bottom;verticalAlign=top;align=center;html=1;shape=mxgraph.aws3.s3;fillColor=#E05243;gradientColor=none;" parent="1" vertex="1">
          <mxGeometry x="-576.5" y="338.5" width="56.5" height="53" as="geometry" />
        </mxCell>
        <mxCell id="gS69FY_D9aO8S74_3pXP-4" value="Amazon DynamoDB" style="outlineConnect=0;fontColor=#232F3E;gradientColor=none;strokeColor=#ffffff;fillColor=#232F3E;dashed=0;verticalLabelPosition=middle;verticalAlign=bottom;align=center;html=1;whiteSpace=wrap;fontSize=10;fontStyle=1;spacing=3;shape=mxgraph.aws4.productIcon;prIcon=mxgraph.aws4.dynamodb;" parent="1" vertex="1">
          <mxGeometry x="-112.1" y="391.5" width="50" height="75" as="geometry" />
        </mxCell>
        <mxCell id="0ClBr7Q9rkolvcIS5It6-27" style="edgeStyle=orthogonalEdgeStyle;rounded=0;orthogonalLoop=1;jettySize=auto;html=1;" edge="1" parent="1" source="gS69FY_D9aO8S74_3pXP-6" target="gS69FY_D9aO8S74_3pXP-4">
          <mxGeometry relative="1" as="geometry" />
        </mxCell>
        <mxCell id="gS69FY_D9aO8S74_3pXP-6" value="Amazon QuickSight" style="outlineConnect=0;fontColor=#232F3E;gradientColor=none;strokeColor=#ffffff;fillColor=#232F3E;dashed=0;verticalLabelPosition=middle;verticalAlign=bottom;align=center;html=1;whiteSpace=wrap;fontSize=10;fontStyle=1;spacing=3;shape=mxgraph.aws4.productIcon;prIcon=mxgraph.aws4.quicksight;" parent="1" vertex="1">
          <mxGeometry x="182" y="431" width="80" height="110" as="geometry" />
        </mxCell>
        <mxCell id="0ClBr7Q9rkolvcIS5It6-1" value="" style="shape=image;verticalLabelPosition=bottom;labelBackgroundColor=#ffffff;verticalAlign=top;aspect=fixed;imageAspect=0;image=https://d2908q01vomqb2.cloudfront.net/0a57cb53ba59c46fc4b692527a38a87c78d84028/2016/12/14/mobile-app-backend-architecture-blog-1.png;" vertex="1" parent="1">
          <mxGeometry x="-1063" y="-510" width="957.9" height="350" as="geometry" />
        </mxCell>
        <mxCell id="0ClBr7Q9rkolvcIS5It6-4" value="" style="shape=image;verticalLabelPosition=bottom;labelBackgroundColor=#ffffff;verticalAlign=top;aspect=fixed;imageAspect=0;image=data:image/png,iVBORw0KGgoAAAANSUhEUgAABPYAAAOeCAIAAAAP5gm3AAAACXBIWXMAAA7EAAAOxAGVKw4bAAAgAElEQVR4XuzdCXgc1Zno/arqTSuW5QXvG3gBAzaEgCEQm20w+QLYfAlLcrlA+EIg5D5ASAKeyTzG80zGISEBcpMxMAFMZohhkmADIWAIXobNBgM2mzdsy7u8W5Il9VZV31squS20tFqt6u6q6n8/hMhdp06953faQq/OppqmqfBCAAEEEEAAAQQQQAABBBBAwPsCmvebQAsQQAABBBBAAAEEEEAAAQQQsARIcfkcIIAAAggggAACCCCAAAII+ESAFNcnHUkzEEAAAQQQQAABBBBAAAEESHH5DCCAAAIIIIAAAggggAACCPhEgBTXJx1JMxBAAAEEEEAAAQQQQAABBEhx+QwggAACCCCAAAIIIIAAAgj4RIAU1ycdSTMQQAABBBBAAAEEEEAAAQRIcfkMIIAAAggggAACCCCAAAII+ESAFNcnHUkzEEAAAQQQQAABBBBAAAEESHH5DCCAAAIIIIAAAggggAACCPhEgBTXJx1JMxBAAAEEEEAAAQQQQAABBEhx+QwggAACCCCAAAIIIIAAAgj4RIAU1ycdSTMQQAABBBBAAAEEEEAAAQSCECCAAAIIIJChgGEYGZYsbDFN4xe4he0Bno4AAggggEDBBEhxC0bPgxFAAAGvCNTV1b373gc7d+2oq69TDFXRTPdG3hJen+P6DB0y7Kwvn9GnTx/3hkpkCCCAAAIIIJADAdU0XfyTSg4aTJUIIIAAAj0S2LZ9+9MLnjl08LCpmNYorvxHQ+1RBfkt3BKejOKqitq3uurb1107Yvjw/EbA0xBAAAEEEECgkAKkuIXU59kIIICAywWam5p/9eDDDUcampubXR5qx/BKS0srKyrvvuuO0rLSjld5BwEEEEAAAQR8KcBqJV92K41CAAEEnBH44MMP6xvqvZjfSvslbAlemuCMBbUggAACCCCAgBcESHG90EvEiAACCBRI4PNNm7yyxVSnQhK8NKHTS7yJAAIIIIAAAr4UIMX1ZbfSKAQQQMAZAU/ntzaBD5rgTF9SCwIIIIAAAsUhQIpbHP1MKxFAAIGsBGTTpqzuc9FNPmiCizQJBQEEEEAAAdcLkOK6vosIEAEEEEAAAQQQQAABBBBAIDMBUtzMnCiFAAIIIIAAAggggAACCCDgegFSXNd3EQEigAACCCCAAAIIIIAAAghkJkCKm5kTpRBAAAEEEEAAAQQQQAABBFwvEHR9hASIAAIIIOBGAVVV4/G4rusFDy4QCITDYdM0Cx4JASCAAAIIIIBAwQVIcQveBQSAAAIIeFIgkUicesrEAQMGGEYhc0tNU/ft2/fJp58Fg/wXzZMfJIJGAAEEEEDAWQF+IHDWk9oQQACBYhGIxWJf/er5p0ycWPAGf/Lpp+9/8CEpbsE7ggAQQAABBBBwgwBrcd3QC8SAAAIIeE9AJirLQK4b4pYwJBg3REIMCCCAAAIIIFBwAVLcgncBASCAAAIIIIAAAggggAACCDgjQIrrjCO1IIAAAkUooGmu+I+IS8Iowg8ATUYAAQQQQMCFAqzFdWGnEBICCCDgDQGZIZxMJgseq0vmSxfcgQAQQAABBBBAQARIcfkYIIAAAghkI1BaWvqX5xa+8OJL2dzs6D2JRFyCcbRKKkMAAQQQQAABrwqQ4nq154gbAQQQKKyA7PBUX99gGEZhw5Cny0RlORq34GEQAAIIIIAAAgi4QYAU1w29QAwIIICAVwXYytirPUfcCCCAAAII+FSAFNenHUuzEEAAgRwLmKZZVlYWCoVMs5ADuaqqyVrcaDRKsp3jDqd6BBBAAAEEvCFAiuuNfiJKBBBAwG0CklX+v1fNPGXiyYWdqyyzlD/59LOn/7iA5bhu+4QQDwIIIIAAAgURIMUtCDsPRQABBDwvIKO4/fpV9+/fv+AtkTAkmIKHQQAIIIAAAggg4AYBVxxp6AYIYkAAAQQQ6KmAG04MkphdEkZP9SiPAAIIIIAAArkQIMXNhSp1IoAAAkUh4JLlry4Joyi6nEYigAACCCDgegFSXNd3EQEigAACbhVwyVE9LgnDrb1EXAgggAACCBSXAGtxi6u/aS0CCCDglEA4HH7jzbc2bNioF/Ro3ICm7dm7V4Jxql3UgwACCCCAAAKeFiDF9XT3ETwCCCBQMAE5Luijjz8xdL1gERx9sBYIRMJhdpwqeEcQAAIIIIAAAm4QIMV1Qy8QAwIIIOA9AUkpZQRVdUHgcm4Q+a0L+oEQEEAAAQQQcIUAKa4ruoEgEEAAAc8JSFZZWVkZiUQKfi5uLBZrbGxk0ynPfYQIGAEEEEAAgVwIkOLmQpU6EUAAAf8LRKPR6669etJpk3Q9WcDWBgLBNR+teXL+H0pLSwsYBo9GAAEEEEAAAZcIkOK6pCMIAwEEEPCYgIziVlRUlJeXFTxuCYOJygXvBQJAAAEEEEDAJQIcGuSSjiAMBBBAwHsCugv2mhI1l4Thvf4jYgQQQAABBPwoQIrrx16lTQgggAACCCCAAAIIIIBAUQqQ4hZlt9NoBBBAoNcCMjc4FHLFahcJg4nKve5PKkAAAQQQQMAnAq746cQnljQDAQQQKCaBcDi8YsW7W7du1w2jgO2Wg4t2794twRQwBh6NAAIIIIAAAu4RIMV1T18QCQIIIOAlAckq3//gQ11fVfCgA4GABMNAbsE7ggAQQAABBBBwgwAprht6gRgQQAAB7wm0TFS2Xm4InfzWDb1ADAgggAACCLhBgLW4bugFYkAAAQQQQAABBBBAAAEEEHBAgBTXAUSqQAABBBBAAAEEEEAAAQQQcIMAKa4beoEYEEAAAQQQQAABBBBAAAEEHBAgxXUAkSoQQAABBBBAAAEEEEAAAQTcIECK64ZeIAYEEEAAAQQQQAABBBBAAAEHBEhxHUCkCgQQQAABBBBAAAEEEEAAATcIkOK6oReIAQEEEEAAAQQQQAABBBBAwAEBUlwHEKkCAQQQQAABBBBAAAEEEEDADQKkuG7oBWJAAAEEEEAAAQQQQAABBBBwQIAU1wFEqkAAAQQQQAABBBBAAAEEEHCDACmuG3qBGBBAAAEEEEAAAQQQQAABBBwQIMV1AJEqEEAAAQQQQAABBBBAAAEE3CBAiuuGXiAGBBBAAAEEEEAAAQQQQAABBwRIcR1ApAoEEEAAAQQQQAABBBBAAAE3CJDiuqEXiAEBBBBAAAEEEEAAAQQQQMABAVJcBxCpAgEEEEAAAQQQQAABBBBAwA0CpLhu6AViQAABBBBAAAEEEEAAAQQQcECAFNcBRKpAAAEEEEAAAQQQQAABBBBwgwAprht6gRgQQAABBBBAAAEEEEAAAQQcECDFdQCRKhBAAAEEEEAAAQQQQAABBNwgQIrrhl4gBgQQQAABBBBAAAEEEEAAAQcESHEdQKQKBBBAAAEEEEAAAQQQQAABNwiQ4rqhF4gBAQQQQAABBBBAAAEEEEDAAQFSXAcQqQIBBBBAAAEEEEAAAQQQQMANAqS4bugFYkAAAQQQQAABBBBAAAEEEHBAgBTXAUSqQAABBBBAAAEEEEAAAQQQcIMAKa4beoEYEEAAAQQQQAABBBBAAAEEHBAgxXUAkSoQQAABBBBAAAEEEEAAAQTcIECK64ZeIAYEEEAAAQQQQAABBBBAAAEHBEhxHUCkCgQQQAABBBBAAAEEEEAAATcIkOK6oReIAQEEEEAAAQQQQAABBBBAwAEBUlwHEKkCAQQQQAABBBBAAAEEEEDADQKkuG7oBWJAAAEEEEAAAQQQQAABBBBwQIAU1wFEqkAAAQQQQAABBBBAAAEEEHCDACmuG3qBGBBAAAEEEEAAAQQQQAABBBwQIMV1AJEqEEAAAQQQQAABBBBAAAEE3CBAiuuGXiAGBBBAAAEEEEAAAQQQQAABBwRIcR1ApAoEEEAAAQQQQAABBBBAAAE3CJDiuqEXiAEBBBBAAAEEEEAAAQQQQMABAVJcBxCpAgEEEEAAAQQQQAABBBBAwA0CpLhu6AViQAABBBBAAAEEEEAAAQQQcECAFNcBRKpAAAEEEEAAAQQQQAABBBBwgwAprht6gRgQQAABlwoYLo2rB2H5oAk9aC1FEUAAAQQQKHoBUtyi/wgAgAACCHQtEIs1d33RG1d80ARvQBMlAggggAAC7hAgxXVHPxAFAggg4EqB+vr6aDQaCARcGV03QUnYErw0oZtyXEYAAQQQQAABHwkEfdQWmoIAAggg4LBAIp6ord09YMDAkpIS0zQdrj2X1amqKvntvn17Bx0/MJfPoW4EEEAAAQQQcJcAKa67+oNoEEAAAVcJBEOh5ubm7du3H3dcZUlJaTDojf9qJJPJaLS5vr7BNA1pgqtICQYBBBBAAAEEcirgjR9WckpA5QgggAACXQmcesrEt99+Ox6PHzhwQMZFuyrmwvdlzFkCDofD0gQXhkdICCCAAAIIIJAjAdbi5giWahFAAAE/CEz96lePP/74SCSiaZpkjB56ScAStgQvTfBDT9AGBBBAAAEEEMhMQPXW2qrMGkUpBBBAAAHHBDZu3PjArx7cXVurKPJfDG8sx20ZcFYHDxr0o7vvGjt2rGMWVIQAAggggAACrhcgxXV9FxEgAgggUGiBgwcPvv76ks83bzp46JAi58y6eQJQS3jVffueOOaEiy66sLq6utB4PB8BBBBAAAEE8ipAiptXbh6GAAIIeFpA13VPxO/RU448YUuQCCCAAAIIuFyAFNflHUR4CCCAAAIIIIAAAggggAACmQq4ebZZpm2gHAIIIIAAAggggAACCCCAAAIiQIrLxwABBBBAAAEEEEAAAQQQQMAnAqS4PulImoEAAggggAACCCCAAAIIIECKy2cAAQQQQAABBBBAAAEEEEDAJwKkuD7pSJqBAAIIIIAAAggggAACCCBAistnAAEEEEAAAQQQQAABBBBAwCcCpLg+6UiagQACCCCAAAIIIIAAAgggQIrLZwABBBBAAAEEEEAAAQQQQMAnAqS4PulImoEAAggggAACCCCAAAIIIECKy2cAAQQQQAABBBBAAAEEEEDAJwKkuD7pSJqBAAIIIIAAAggggAACCCBAistnAAEEEEAAAQQQQAABBBBAwCcCpLg+6UiagQACCCCAAAIIIIAAAgggQIrLZwABBBBAAAEEEEAAAQQQQMAnAqS4PulImoEAAggggAACCCCAAAIIIECKy2cAAQQQQAABBBBAAAEEEEDAJwKkuD7pSJqBAAIIIIAAAggggAACCCBAistnAAEEECgugWeeeUb94uuKK65IJpMFVNi3b19FRcXdd9/d+xjefffdSCQi7XvzzTfb1Za6lGr9yJEjo9Foqpgt0/HG3kdFDQgggAACCCCQNwFS3LxR8yAEEEDARQJvvPGG2fJauXLl4sWLTzjhhLbJnosC7WEof/vb384999xTTz114cKFnd76+OOP2w1vbGzs379/aWkpOW2nULyJAAIIIICARwVIcT3acYSNAAIIOCNw1llnzZo1a9u2batWrXKmxsLVIqPBDzzwwPXXX3/VVVc9+eSTW7ZsSRNLWVnZK6+8Ul5e/otf/KKwg9hpguQSAggggAACCPRUgBS3p2KURwABBPwmMGHCBGnShg0bUg2zZw6nJvS2HeeU2bzV1dWSPd533312gdR0347vtJWaOXNmpzOE5f2BAwfKmOqvf/1ru8ATTzxh35gmjE774PXXX5d6xo0bJy06dOjQ0qVLOy2WelPy2/Hjx69Zs4YUNz0UVxFAAAEEEPCQACmuhzqLUBFAAIGcCKxbt07qlczQrl3WrA4bNux73/uePaF39uzZ559/ftssV7LHMWPGjBgxQgrs3bv3wIEDkihOnz69oaFB3rEnAMs7qZnPdqaq63oikUgVGDJkiD3KKjOKpRLJNn/4wx/aT/zOd74jkXQbRkeLZ599VqI688wzL7roIqlw0aJF5K4dlXgHAQQQQAABfwuQ4vq7f2kdAggg0I2AZJJz5869/PLLp0yZYheVP1566aX333+//cef/OQnZ5xxRrvZvJKO2onogAEDfvSjH8k854kTJ/7qV7+SW2QC8I9//OO2M59vueWWcDj88MMPB4NBu4DMEI7H47/97W/TBJdJGG1vl0T6tdde+8Y3vlFSUiJRXXLJJZKWb9++Pc0jPml52bekKcYlBBBAAAEEEPCQACmuhzqLUBFAAAHHBGRg1p4VfPbZZ8v83hdeeMHOP+1EcezYsfYf5XmSssrQaLvZvDK7OBWKPc+57Tv2JXvmc1NTk6S755133vDhw1O32Cnon//85672uMowjLYc9izlVBjXXHNN+rnK8ogLL7xQBnt/8IMfOMZKRQgggAACCCBQaAFS3EL3AM9HAAEECiFg76hszxCWQ4NSOzPJFzKdOLUs1k6DZcZv1jHKvOX169e3zZlTVcnE5t27d3dac0/DkET6l7/8Zd++fYcOHWpXKFOpZei441zlm2++2W6ULACWFFcERo8e3WkMvIkAAggggAACXhQgxfVirxEzAggg4IyAjKYuWbJEstB2c4ZTy2LtxbHy761bt8oEYGeemnEtmYdhTzluO1Z8SsvrxRdfXLFiRdsHpg4Nkkalxq4zjoiCCCCAAAIIIOB2AVJct/cQ8SGAAAI5FZBDg772ta+ljtiRIc1QKOT4Ezdu3Nhx56fKysrBgwd3+qyehiHH4criXkloJXh7kFZmIH/wwQdSeVcH5Hb6XN5EAAEEEEAAAa8LkOJ6vQeJHwEEEOitQNtlq/Y5OmlWyfb0YZ3u/NR2a6hOK+xRGDJLWZJbWTDc3NycGna2d3uWehxsS6eh8iYCCCCAAAIIuEqAFNdV3UEwCCCAQAEE7CN25syZI5s/yeZS8+bNq62tvfrqq1PjrnLg7d133511ZLNmzZK50HfccYddoWSkcsJQv379fvazn9l1dkxoexRGVxsj29l1272ds24CNyKAAAIIIICAVwRIcb3SU8SJAAII5EogdfDPqlWr5BkydXnHjh2yRjc16Vf2hbIPBMouAqlQNjfeuXOnXaEktNOmTWu7uFcSWjlGSM7XLS0tlWnG9hm8mYchxwt1tTGyZNey6RRzlbPrOO5CAAEEEEDAiwKqTOXyYtzEjAACCCCAAAIIIIAAAggggEA7AUZx+UgggAACCCCAAAIIIIAAAgj4RIAU1ycdSTMQQAABBBBAAAEEEEAAAQRIcfkMIIAAAggggAACCCCAAAII+ESAFNcnHUkzEEAAAQQQQAABBBBAAAEESHH5DCCAAAIIFExg9erVF1xwwV133VWwCHgwAggggAACCPhLIOiv5tAaBBBAAAEvCRw+fHjZsmVeiphYEUAAAQQQQMDdAoziurt/iA4BBBBAAAEEEEAAAQQQQCBjAVLcjKkoiAACCCCAAAIIIIAAAggg4G4BUlx39w/RIYAAAggggAACCCCAAAIIZCxAipsxFQURQAABBBBAAAEEEEAAAQTcLUCK6+7+IToEEEAAAQQQQAABBBBAAIGMBUhxM6aiIAIIIIAAAggggAACCCCAgLsFSHHd3T9EhwACCCCAAAIIIIAAAgggkLEAKW7GVBREAAEEEEAAAQQQQAABBBBwtwAprrv7h+gQQAABBBBAAAEEEEAAAQQyFiDFzZiKgggggAACCCCAAAIIIIAAAu4WIMV1d/8QHQIIIIAAAggggAACCCCAQMYCpLgZU1EQAQQQQAABBBBAAAEEEEDA3QKkuO7uH6JDAAEEEEAAAQQQQAABBBDIWIAUN2MqCiKAAAIIIIAAAggggAACCLhbgBTX3f1DdAgggAACCCCAAAIIIIAAAhkLkOJmTEVBBBBAAAEEEEAAAQQQQAABdwuQ4rq7f4gOAQQQQAABBBBAAAEEEEAgYwFS3IypKIgAAggggAACCCCAAAIIIOBuAVJcd/cP0SGAAAIIIIAAAggggAACCGQsQIqbMRUFEUAAAQQQQAABBBBAAAEE3C1Aiuvu/iE6BBBAAAEEEEAAAQQQQACBjAVIcTOmoiACCCCAAAIIIIAAAggggIC7BUhx3d0/RIcAAggggAACCCCAAAIIIJCxACluxlQURAABBBBAAAEEEEAAAQQQcLcAKa67+4foEEAAAQQQQAABBBBAAAEEMhYgxc2YioIIIIAAAggggAACCCCAAALuFiDFdXf/EB0CCCCAAAIIIIAAAggggEDGAqS4GVNREAEEEEAAAQQQQAABBBBAwN0CpLju7h+iQwABBBBAAAEEEEAAAQQQyFiAFDdjKgoigAACCCCAAAIIIIAAAgi4W4AU1939Q3QIIIAAAggggAACCCCAAAIZC5DiZkxFQQQQQAABBBBAAAEEEEAAAXcLkOK6u3+IDgEEEEAAAQQQQAABBBBAIGMBUtyMqSiIAAIIIIAAAggggAACCCDgbgFSXHf3D9EhgAACCCCAAAIIIIAAAghkLECKmzEVBRFAAAEEEEAAAQQQQAABBNwtQIrr7v4hOgQQQAABBBBAAAEEEEAAgYwFSHEzpqIgAggggIDTAjU1NVLlqFGjnK6Y+hBAAAEEEECgSAVIcYu042k2AggggAACCCCAAAIIIOA/AVJc//UpLUIAAQQQQAABBBBAAAEEilSAFLdIO55mI4AAAggggAACCCCAAAL+EyDF9V+f0iIEEEAAAQQQQAABBBBAoEgFSHGLtONpNgIIIIAAAggggAACCCDgPwFSXP/1KS1CAAEEEEAAAQQQQAABBIpUgBS3SDueZiOAAAIIIIAAAggggAAC/hMgxfVfn9IiBBBAAAEEEEAAAQQQQKBIBUhxi7TjaTYCCCCAAAIIIIAAAggg4D8BUlz/9SktQgABBBBAAAEEEEAAAQSKVIAUt0g7nmYjgAACCCCAAAIIIIAAAv4TIMX1X5/SIgQQQAABBBBAAAEEEECgSAVIcYu042k2AggggAACCCCAAAIIIOA/AVJc//UpLUIAAQQQQAABBBBAAAEEilSAFLdIO55mI4AAAggggAACCCCAAAL+EyDF9V+f0iIEEEAAAQQQQAABBBBAoEgFSHGLtONpNgIIIIAAAggggAACCCDgPwFSXP/1KS1CAAEEEEAAAQQQQAABBIpUgBS3SDueZiOAAAIIIIAAAggggAAC/hMgxfVfn9IiBBBAAAEEEEAAAQQQQKBIBUhxi7TjaTYCCCCAAAIIIIAAAggg4D8BUlz/9SktQgABBBBAAAEEEEAAAQSKVIAUt0g7nmYjgAACCCCAAAIIIIAAAv4TIMX1X5/SIgQQQAABBBBAAAEEEECgSAVIcYu042k2AggggAACCCCAAAIIIOA/AVJc//UpLUIAAQQQQAABBBBAAAEEilSAFLdIO55mI4AAAggggAACCCCAAAL+EyDF9V+f0iIEEEAAAQQQQAABBBBAoEgFSHGLtONpNgIIIIAAAggggAACCCDgPwFSXP/1KS1CAAEEEEAAAQQQQAABBIpUgBS3SDueZiOAAAIIIIAAAggggAAC/hMgxfVfn9IiBBBAAAEEEEAAAQQQQKBIBUhxi7TjaTYCCCCAAAIIIIAAAggg4D8BUlz/9SktQgABBBBAAAEEEEAAAQSKVIAUt0g7nmYjgAACCCCAAAIIIIAAAv4TIMX1X5/SIgQQQAABBBBAAAEEEECgSAVIcYu042k2AggggAACCCCAAAIIIOA/AVJc//UpLUIAAQQQQAABBBBAAAEEilSAFLdIO55mI4AAAm4QqKmpkTBGjhzphmCIAQEEEEAAAQR8IECK64NOpAkIIIAAAggggAACCCCAAAKWACkunwMEEEAAAQQQQAABBBBAAAGfCJDi+qQjaQYCCCCAAAIIIIAAAggggAApLp8BBBBAAAEEEEAAAQQQQAABnwiQ4vqkI2kGAggggAACCCCAAAIIIIAAKS6fAQQQQAABBBBAAAEEEEAAAZ8IkOL6pCNpBgIIIIAAAggggAACCCCAACkunwEEEEAAAQQQQAABBBBAAAGfCJDi+qQjaQYCCCCAAAIIIIAAAggggAApLp8BBBBAAAEEEEAAAQQQQAABnwiQ4vqkI2kGAggggAACCCCAAAIIIIAAKS6fAQQQQAABBBBAAAEEEEAAAZ8IkOL6pCNpBgIIIIAAAggggAACCCCAACkunwEEEEAAAQQQQAABBBBAAAGfCJDi+qQjaQYCCCCAAAIIIIAAAggggAApLp8BBBBAAAEEEEAAAQQQQAABnwgEfdIOmoEAAm0F9IQZb1ISUVUxrbcDISVUqoTLQEIAAQQQQAABBBBAwN8CpLj+7l9aV0wC0Xp911pj5xpl70b9cK3RdNBsqlNNQwhUyW/L+wQqBip9hwWHnaYOmagOOKGYaGgrAggggAACCCCAQLEIkOIWS0/TTh8LGNs/ND992axZqdXvCYWs1Qch3TAMRVfMljFcRUseCTQ0qo27lX0fKetfao5r2qDxgQkXaCddrPUZ7GMZmoYAAggggAACCCBQbAKkuMXW47TXVwLm5rf1VQuUmveCIc1MGjHJbJPWsG0nL93Odq0rQc0IH1irvLMu+s5TwdMuD3zpm2rVkE5u4S0EEEAAAQQQQAABBLwmQIrrtR4jXgRaBMwDNYmlvwvXvBHU1JhuxpPJzGGShpmM6VI+EjwS+PjZxGeL1SnXB868RlXZfy5zRUoigAACCCCAAAIIuFGAFNeNvUJMCKQXSK5+Qfmf34WNhljC1FtW22b3ismQb9IoDR1U3/y/SZnnfPHdWt/h2VXFXQgggAACCCCAAAIIuEGAQRs39AIxIJCpgKkn4ovvDy6ZG4jVNTUl9dbFtpne3mm55oTRHE0Gd76r//HW5OaVnZbhTQQQQAABBBBAAAEEPCFAiuuJbiJIBCwByW+TL94XXv98LGY0JbIfvO2oKZmyJMyh6EHz+Xv0Dcs7FuAdBBBAAAEEEEAAAQQ8IUCK64luIkgEFMXQ4y/eF6pZ2txoDd6qOSBpjOkhPWr+9Z/1jW/koHqqRHSNIVcAACAASURBVAABBBBAAAEEEEAg5wKkuDkn5gEIOCIQe/WByNalzc1JJ+Ymdx6RpM2NcSNoxJMv/LOxe23nhXgXAQQQQAABBBBAAAEXC5DiurhzCA2BowKJD56LfLYo1uzI2tt0rJLlNsWNiBqLvfBTs+lQuqJcQwABBBBAAAEEEEDAfQKkuO7rEyJC4IsCcj6Qvuw3hi4H3x472zanSE1RvTRaG3vtwZw+hcoRQAABBBBAAAEEEHBcgEODHCelQgQcFoi/9usSLd4YNXKx/rarWGPNifDGV/VN0wMnnHusjB436/YYzXWaopkBTS3vp1YO6KoG3kcAAQQQQAABBBBAIP8CpLj5N+eJCPRAQPY3jux8LxrX85nfSny6oURUNbrkt3aKa257X//sNWXnR/EDOyNKTFGVhG4qpVVm1YjQ2K+oEy7SqjlQtwfdSlEEEEAAAQQQQACBHAmQ4uYIlmoRcELANOJvzS9VlXzNUP5CzM0xPXxoc3zZPPPg1uCmZcGgJomvaZoJ+ZeiaIoajNUFDnyiHPw0vvIp7fSrAlNuUksqnGg2dSCAAAIIIIAAAgggkKUAKW6WcNyGQB4EjK2rQvvXxpJOHoGbediSx8qjy1Y9paiqfBH74km8uhzTmzSVpFVfJKgH1jwT27QiePmcwMATM38EJRFAAAEEEEAAAQQQcFaA7aac9aQ2BJwUSHz0YjCkyYzgAr6aE0ZTTE8fQyxpNjUmIvVbks/cbu7ZWMBoeTQCCCCAAAIIIIBAkQuQ4hb5B4Dmu1fAbD5sbH5XjxdmCDflkvkxvE3NyYheH114L6cNufdTRWQIIIAAAggggIDfBUhx/d7DtM+zAsautaWJurjs++SdV1OzXhqvjb/+G++ETKQIIIAAAggggAACvhIgxfVVd9IYPwno21crQS3zQVSXtD3elFTXvmLu+swl8RAGAggggAACCCCAQFEJkOIWVXfTWC8JGHs3K0pBl+FmpSX7LYfDauLD57K6m5sQQAABBBBAAAEEEOiVAClur/i4GYFcCRi6emSXoueq+tzVK+f3yrFCic/fNqMNuXsKNSOAAAIIIIAAAggg0KkAKW6nLLyJQIEFzFij0XDAKMh5uL1uupwwFG4+YB7c3uuaqMD/Alu3bpVGjho1yv9NpYUIIIAAAgggkBcBUty8MPMQBHoqYMpBtE2651bitjRTZleHQprRsLenjaY8AggggAACCCCAAAK9FAj28n5uRwCBnAgESzRF5vx68iWJeUI3kiv+oBysUatHaYPGq30Ge7IlBI0AAggggAACCCDgNQFSXK/1GPEWgYBZ867x8UuqKRN+vbfdlN0/8aRZtvcz9eA6xTDjgXJt2KnaxK9p46YpgVARdCBNRAABBBBAAAEEECiYACluweh5MAIdBfSt75tvz9e2vxcIqTF3nohrzZ02FdNQVFnmoCpq50PN8m5zwlAShnwRCjQEt61Qtq3Q3x1rfum64CmXdWw47yCAAAIIIIAAAggg4IgAKa4jjFSCQK8FDCP+xqPqu0+HgkZMN/Wk0W2NsiWVlWraL1VTw2VtE85jV7WAdenYS1USTfKA1vvCpYomI6v2cLGqmLp1Y8tLDZUowbCSWg+ciJp6Qg0ElWBECZcrsSOKnjSNpFWs67FZqTeum3Fdl1y4dP9G5dV/iW9YErzwLq1qSJuQ+BIBBBBAAAEEEEAAAWcESHGdcaQWBHojYMabEi/ODu94K2Hojc1m5wOjbR/QMogaOvNqtXKAlYKqqtl4KPnRC4oh70uaaihaMHTO/1ZLKuUm4+BW/bO/K1rLoKu8ktHASRdrA8e2ZLVm8pOXzUM7rFTWKppQy/uFzrlB0QJSj16zyqhZpYQiUqEZO6INHBc8+ZLAiDPUin6S1pqxJvPwDn3LSv3TV83mw0pIsuh006olzKaYrqlKyba3Ev/1mfm1fw6MmdIbNO5FAAEEEEAAAQQQQKCjACluRxPeQSCvAlZ++9y94T2rmpuSVrqaycNlNLVqaPj/+amVix596TXvmfs3KzKmKrXoieDkK7VBE+SieWh784Y3JLOVvNe6ZJqhc27Uhk+y7zMb9ib2fa62pLhmIhoYNCF04f85eulf9E1vqcGQkohJwhya+n21rCr1OCvOIScHTv4H44xvxJ67x9xfYz26u5csLm5qSpZFDiYW3WNcck/o1K91dwfXEUAAAQQQQAABBBDogQCHBvUAi6II5EIg/tK/hve+b+e3GdZvJmLasElt81u5URt6skwktmrQNEmbjR0f2bWp5f3V8r6KoVt/lHnFMgZb0S/1ILXfyGPTm+Vq32Gtlwxd3/mxGgjLvOXA6TPDl/1jKr819m8x9m1OzZHWBp8UnvFvVn5rPyJVdddfNEb1oB5T/vYvyfXLui7FFQQQQAABBBBAAAEEeixAittjMm5AwEGBxMr/itQsizYmUiteu69cimpaYMxZrSWPLscNjPxymyW1hrF3Y2uBcKkM+ZqpFLe8X9sjfKwZy4p8H2jZREoLatUj7LuMul1m/V7JY7XjBoUv+L79pgz5xv54e/TRb0Yfuzo6/zvG3s/t9wNDTwmc+BUz0dx98C0lZDJ1U8IIBhT9pfuM2g0Z3kUxBBBAAAEEEEAAAQS6FSDF7ZaIAgjkSsDcu9F86z+Scb1nZwOZugyoasPPsMKKN+lrX7fj04adppZVyzit9cdA2Ni7KRW3lbi2DPBKomuN07aZ3izprlrWxxqANU0Zs1X7jbLvkonHZtNB2U1KG3G6etwg+83E8keSH/3Vnu2sb1iWWPrb1GZU2pCJsvtU6ondfiHznJviRkSNx5//qRJv3eCq27sogAACCCCAAAIIIIBAegFS3PQ+XEUghwKxvz8cVhOyf3KPnmEmY9rx47SWGcVG/Z7kRy8qybh8rfUbpVUPt1NZ2fdYluCaTYfsmlV5317ja+iazExu89L6DJKZzIpupbhKuMyu1qp574aWalVtwAmtxY2ksesTteQ4K0OWXZpLq4zadalJzlYaLO/3YDDaiqipOVkS3RFf9miPBCiMAAIIIIAAAggggEBXAmw31ZUM7yOQWwH987dKdr0fTegZ7S/VNhZdD4w80x6Jlc2Q9U3vmEf2yVRkeUcbPlnfvloNlUpmajbXGQe3Bcr6yq1a/9FqsNTeb7l1nFbO+2k+pFYMUCIVap9Bxr5Nsiuz2meEWlFtP8rYs0FRZV9lRZFThVpfcgquduyYIi1gbZT1+sMtJwapRu1aVfZe7uKY3DSUiahurPmLMenrkrenKcYlBBBAAAEEEEAAAQQyEWAUNxMlyiDgvED8vWeVgNKzKcoShUwnDkW0UWfbARm7PjWP7LfS0ZaXpLit2yZL/tlcb+5rnatspbWSqcpuUpFKa38pa5vlHdaBQPZd/UdZxwIlk1qfwdaBt/JKJsx9W1R7VDbaYBeTFDowbpq14NaeCy1X483x5Y/El/zf+JLf6LJxVCDSWrIn/5fQzZKQmVjxh57cRFkEEEAAAQQQQAABBDoXIMXt3IV3EcipgCkbNW17Lx4zevwUPa5WDdMGj7dv1Hd+pCRjxu519h8Dwyap5dWK2bJ5sqoYe1p3nJLTbtXKgaYeV0rKtb7D5aJxaLuM99p3af1PaBmbNaRm+x2zoVamQFvDs6omWXQqyNB5N4e+eouk2TJELM+1HlJSaf/TcmJQz2Zcp6qVudrGxv8xD+9KvcMXCCCAAAIIIIAAAghkJ0CKm50bdyHQKwH98zdLI2qyx2O4kr3GtWGnWgtiJaFsPGju+VyJlFuJbstL9o4KDBonRwpZf9CCx1LcSLlaNURJRLVKWXlrTV026mvlTKDWu6qHq9Zs5GPLbo0DW5XGA0ogoIZK9G0fGEeTYUl6w9PvLblpvhyTK9tWyYiuGT2S+VlB9uM6/lsGckuDSX390o6XeAcBBBBAAAEEEEAAgR4JkOL2iIvCCDgjkNyxpudzlFsebSqBMefYQRj7Pjcb9qihMpmQbA2ryktVtWGT7YnEMs3YrK81j04ztvaRSkStfac0awW+eXCbzFVWWo75kUsygdm6d8CY1pr3bGg5ZEi1VvwmorG//otxcLt9ySo/bFL4a/9U8t0FJdc8FDxlurX+Nt5kFe7Ny1CS2z/oTQXciwACCCCAAAIIIICACJDi8jFAIO8CetxKSnu4kbIVpSymLa/Whk+yIzZ2fmLKpsfBkNmwz6hdb79pnfETjFg7G2tBSYDNQ9vs99X+YyQXtVLclpekuEpzvdEyN1i2m1LKqqyR4aOHA1lbJade4TJjz/rYUzcnP1yoyFTnoy8pHzjp4sjVv45869/VwSeZsSO9yXJN3bDGnNvUfywAvkIAAQQQQAABBBBAIGMBUtyMqSiIgEMCZlOdnARr9OR8HfvJktBqA8fK4UD2H635wy3n2cpQbWrFrDb4ZOW4gdZAroziRhuN/TV2YWuENlSm9Rtt/dFImnW1ZqzBPNCSAMtxuH2GyOm4sl7X+mMyLgmw2jLYa7/UcIUMCMef/+fo49cn/ucRKwFuE3xg9Fkl3/p3beCJ1k5U2b5EQ403WjK8EEAAAQQQQAABBBDohQApbi/wuBWBrAXMrKb16onAqC/bzzSbD8tGymqkXAkEZasnY9fRhbXl1YFBE+Ts3JZiprF7rV1eO+54tbK/Vj3CevfIAVnHK2cIGUfHeLW+Q+UAIevUH8l/G/YaB3fI4HCbxpnWblKhUmPXZ/HXHow+cUN0/k3JlX9MDbqqlQNC02639qzqed5+7CnZmbSJki8RQAABBBBAAAEEEOBcXD4DCHhEwDTkwFtt5JfscNVgSeSbv7K+lqWwhtHm9Fo5Ouh0Ze3fW4qp5v4trc0r66sdP97ab1lS3LrdcpSuEoqYR8d45SQh7Wh2at0iK3iPprjWal5rXa4sawjI5GRVsQ4f0mve0ze+ITtRRa6a23IuriJjuVrVUJkaLWPCrU/s4f8dOHjw7GHDdtUfmwvdwwoo7mGBm1peHm4AoSOAAAIIIOAjgSlTppSUyGEZra8JEyYcf/zx8o68L18PGjTI5W0lxXV5BxGeDwWyGsBVFD0hmxjLdsqtIqESbcjETnWs5bihUhlTVYMh2SZKclT7XB9rEW9JpdxibZgsi3jVgJE6OFdGd4Ot38hkcNjUY2oo3LKgVwtOukItq5K7zMZD+rrXrQ2oJNeV0eNwafKjF2W7KVmRK1fVSIV63EDr4J9Ap0F1/2a/6uqdO3YolQO6L0oJHwlIZjt//vwnn3zyxhtv9FGzaAoCCCCAAAIeFlixYkU0Gk01YN26dbW1tXV1dXPmzLG/njZt2qhRo84++2z5QpJetzWVFNdtPUI8/hdImvY6XEl1e3CQrMw9DgybrIbLbSBTNjG20tRUvmxal1oGVLWB49S+w03JY2UnqvrdsuxWUlx5Pzj2fLXUOm3I2L9ZFvCqgZB5ZL/ZdFgy2MDAcUZFf7tmQ87stV6qdb6u1HrB7WrL9GZJjPXPFsvRQq0PlS9aJkLbKa61obL1TtYvVRJqkeFbUtaC3IgAAggggAACCDgiIKO1beuRPLZdtcuWLaupqVm5cuXDDz98+PBhKTB16lT3pLv8POnIx4BKEOiBQDShNMeN0p795ZNkWAscnaVsykE+f/yBeWi7Ipsnt7xkQ+PQl68JTb1NvlZLKrTBJyX3fq4Gw0q8WYZqtePHSv6pjTyztXDrLlNB62Td+lpJceXU3IDsqywvPWnu36Tak401TRJp2XU50JLiqrLoV1LlWKOdSFs5sEyQbkmqrZdMZk5E26TcrW9n+H+aqjTGDSOhVGR4A8UQQAABBBBAAAEECiRgJ732DCwZ4JWMd/ny5ZLuSjg33HDDtddeK2O8BQrNemxvRl0KGDaPRsDDAomkseeIfmz8NZOmGIYkotqoozlq7Tp96yprV+RDO1r/ObxD3/S2teFTyysw4nRJOiXhNFtS1i88IRmToV0rX7W2XK63TseVl0QjM5AlVa6vtU4Sat1OWZJY3TrLp+Wl9hkcOOFca58qOdpH9mSO1snK3sD4afZVGRA2Du88lvHa72b8b3m+mIhMxndQEAEEEEAAAQQQQKDwArI0V3LaefPmrV27duHChTKf+YKWlyxEkgHegsRHilsQdh5a1AKBgLb9YDSpm5lnuTJsqw0aL/s52XD6zo+tWcrhUkXGaVv+kY2gjH2bDTtfld9dyZTm0j7WyKqqGnvsicet5rKd8rFc1FRSy3HtyzKH2dprSjv6nUEN6OuXtN6pauHp9wTP/pZSWiVP1IacGvnGA9qg1tUXyXVLpGY7T+5p74qDaIiJyPT0XsojgAACCCCAAAIIuERA1uXOnTt3y5Yts2fPlnHdk0466a677pJh3jyHxw+UeQbncQgo5VXV9epxu+uToUDGO0+ZemDEGakE0qhZdSwLtUXVgNJUZ+z6pPVPA09Q+46Q4VaZq2wc2CIZcsrdGqRtbji6btY8tuVySwnJh814c2pVrRou1be+l3z/z63VlveLzJxbeutfSm7579JbFgTGfdV+X5bpJt55ypoXndVLHERDTEQmqwq4CQEEEEAAAQQQQMBFAjKTWfaSlFx35MiR55xzzm233SZrd/MWHylu3qh5EAKtAoFgqHrkxPW7Y/GkKWtQu3+1HBcUmHCRXdJMNBt7N8hmUV+4UeYkGwljx0f2m3JVTvExZaRXC8p8ZuXI/lRhWcFrykzjlhFkWZ+bGvi1Cxj7PlcCbfZEVlVVC8UX/yL5/p9Ss6DVin7W+bqtk5kVOT0otuAH1lOO7sncfYvalBABcVi3O9Z35ESR6dG9FEYAAQQQQAABBBBwrYCcM3TnnXfKBOZJkybJ1GU5RiE/iW7PdrxxLR+BIeAtgdFTpr397suf7Y6ePrwslskC1HB58oO/KJ++bC2vrd9nNuyz5id/8aWGy/SNb8a1B6y3tYCxZ70aKrHGY41k/O8PqjLJWVbqyvvbPmxJj1ty62CJnCoUf+lnSrjEOiJIRnFr3rMOHGr7kq2n9Hj8xTnJj18KjJum9R8jB+pa1xNRGbw1tqzUN72jGImWrZ57sEF06gkyhPvB9ubddYlzp0z7wnP5AwIIIIAAAggggID3BSTRvbXlJatzL7vsshkzZsg05rbn7jreRFJcx0mpEIHuBUaedfGbFdXrag9WlwdHVodiybTJoaSpejzx3jOt46ialjo66AtPCoTNul2JNx+331Rls2VJca3EVU1+uthal9vysqYTW8OtLU+ULabijYl3n7bzW+tquEzRJAFuG49pbSKlBfWaVfqmFdbtslWVvPSENUocCFopcUCy4rRNaHl0x1ckqNYciK+rjYWqB4lJxwK8gwACCCCAAAIIIOAPAdmBWTameuihh2SN7oMPPii5bo7axUTlHMFSLQJdCsia+1u+/3/e3BXVVPWtTY176pOS6XVZ+ugFNVIux9ta/xw9GrfDLaYkoq1l5HQfyUVbBmblJYlrm/dlDLZNOqpqaqTi2FVrX+XOklWZsSyVyLG6kjlbR+NqkifLjlZWMNkehyutrq1Pvr25KaCqk2beHCrlwKAOXcobCCCAAAIIIICAjwRk8Pbee+995513nnrqKRnRXbduXS4aR4qbC1XqRKBLATk3TP4+y+nYj760omLkRFVRX19/ZPuhhOR7mW+w3GXtebggUdopbi/ClVtLguq2Q4kl649IdeIw4R+uy0PsPAIBBBBAAAEEEECg4AJyzpAcL3THHXdcd911jzzyiOPxkOI6TkqFCHQpcN99982ZM+fll1+WeRqBcOS87/+rGi4xDEUyvU92RwOa2oM9lrt8iNsvSBtl2PajXdGl649I27VI6fm3/5vGRlNu7zfiQwABBBBAAAEEnBSYPn26DOeuWbNGEt1o9NjxH71/Bilu7w2pAYHuBWRysuwjJ+WWLl0qv7iyb6gefdI5t88NyEtT39ncJCnfgUZr0nIwo32Wu3+o20pIu6R10kZp6YotTdJqafo535/bd9R4t4VKPAgggAACCCCAAAK5FpB5y/PmzbvyyivlYCEHJy2z3VSuO476EVBkcrIcey2r6uWIsHYcY869zEjEV/z7rEpN3bI/vrs+MW5g5MQBkaoySQAV3VAMU14eNpQ5ybLkOKBZ64IPNuqf74tt3BeLxs3KkoCpalO+P3f0udM93DxCRwABBBBAAAEEEOidgOxBNXnyZBnLveeee+Tr3lVm3U2K23tDakAgncCiRYseffRRmZycGrxtV/rEqVdGyvusePSfqrWDDTF9zY7oxr2xIX1Cw/qGBlQEyyOaDH5qssGTvQ2UJ9JdWV/bEq3MQ9ZNsyGq7z+SlJW3u+oSzXEzHFCry4JqZfWU7/1s+JnT0tlxDQEEEEAAAQQQQKAIBCZMmCCTlu2Dc2U/ql62mBS3l4DcjkA6AVlAv3jxYllPn/7sL8n0jhv69HtP/pu+5n9KTaU5YWzaH9+8P14W1ipLtD6lgYqWRDcclFWsne53nC6GPF+T5FY3lXjSTBrmkZhR16w3RI2muCEZb0hTq0oCkv5Wn3b+l2/6xz6DR+U5Nh6HAAIIIIAAAggg4E4B+Wl5wYIFs2bNuu2222T2cm+CJMXtjR73IpBOQP6KHj58WPLbdIWOXpN87+J/fGzzGy9+uvAxdcdGmd8rh+XKP80NSTlZx56rLFOXe7GNcSZROFNGorUyWjmsyJqlbE1ULglqsgpX3q8cefLJV9w05vzLnXkStSCAAAIIIIAAAgj4SGDu3LkyRCSTlp988sn0Q0RpGk2KmwaHSwhkKSCbwsnvn8aPHy9/S3tUheR+I866eOuKVz9f+pfatR+WKwnJDw3DlBxXksaWVbndn6DboyfmprApJyBJcisHIWmaKsuJE0qo38SzTrhgxsgplwZC4dw8lFo9KWDvoJj1f8M82WaCRgABBBBAAIGuBW699daqqirJcmVQN7ufEEhxu9blCgLZCshCgksvvVROBsqigmCk9ISpV8o/dTs37127qnbd+w27tzUerI0ePqgnE9auTe5/SWYbDJVUVZdXD6ocPGLQhC8NPOnMPkPHuD9wIsy/gGw2Lg/taqV6/uPhiQgggAACCCBQcAHZdKo3WS4pbsF7kAD8JiDzkydNmpRdftvWQnJC+WfsxVfLm/HG+kS0SbZv8kKC2zLQrGmhkrJw+XF+613agwACCCCAAAIIIJB7ATk1V1b8ybiRjOX29GmkuD0VozwC6QQeeughmXjZ0/nJ6WpsuSa5Iulit0oUQAABBBBAAAEEEPCNgIzlymwv++jNHjVK61FpCiOAQBoBOR9o+fLlcv5tmjJcQgABBBBAAAEEEEAAgUwE7rzzTikmY0iZFE6VIcXtEReFEehSYNmyZXL+bRZTKbqskQsIIIAAAggggAACCBS3gIwerVy58plnnsmcgYnKmVtREoEuBexJFC+//HJ22751WS8XEEAAAQQQQAABBBAobgE5QOicc86ZPHnyhAkTMpFgFDcTJcog0I2AbGsuv2FiV9humLiMAAIIIIAAAggggEAPBWQMSWZKys/b9lmD3d5NitstEQUQ6Ebgvvvumzp16rRp07opx2UEEEAAAQQQQAABBBDouYCM395xxx233XZbJreS4maiRBkEuhSQJbiyxZRkuV2W4AICCCCAAAIIIIAAAgj0TsA+knP+/PndVsNa3G6JKIBAlwKpJbhdluACAggggAACCCCAAAIIOCEwb948WZQ7ZcqU9ItyGcV1Aps6ilVAzum65557WIKbh/6PHqpNHjmUhwfxCAQQQAABBBBAAAF3CsiiXMlyb7rppvThkeKm9+EqAl0KyBRlGcWVM6m7LMEFJwTqdm5Z8fjPXr3nyrp51xpv/YfZsNeJWqkDAQQQQAABBBBAwHsCMoQrWys/8sgjaUJnonIaHC4h0KWA7Oc2a9Ys+TVSlyW40GuB+t01619d8PmShUZjfUlIjcQVbdX8+OoXg6fPUE/9ulo5sNdPoAIEEEAAAQQQQAABjwnMnTtXpivPmDGjq6mUpLge61HCdYmA/OrI/h2SS+LxWRh1u2s2LF6wadkipakuqZvRpBEIBKIJI9SshwP71JW/T655XjvtSnXSFWpFf5+1neYggAACCCCAAAIIpBGoqqqSpYIy2iTn5XZajBS3UxbeRCCdgMxPfvjhh9euXZuuENeyEqjbtWXDq/+9adlzktwmdDNhmO2qaU4YSkIpTe5V3308+dEL6qQZ2mlfJ9HNCpubEEAAAQQQQAABTwrI7spPPfWULBvs9NhOUlxPdipBF1bg/vvvl4O5ZL17YcPw2dMNXf9o4SMb/vqU2VyfSHaS3LZtb0uia5Qm96gr/yOxeqF62hWBSVeqlYzo+uxDQXMQQAABBBBAAIHOBR588EHZd+rDDz/seJkUt6MJ7yCQTkCGcBctWsQQbjqjrK4ZidjnS55Xmhsa40aGFRxNdPeq7z0RX/28NlkS3StYo5uhHsUQQAABBBBAAAHvCsimUxL86tWr7S/aNoQdlb3brUReGAGGcHPnHiqr6DgzudvHSaLb3JwMNe8Lvvdk7Mmbkm/+nl2Xu0WjAAIIIIAAAggg4HWB2bNnz5kzp2MrSHE7mvAOAl0K2EO4t956a5cluFAIAVmwK4luU3MyEjsoiW7yP79rvv2E2bCvELHwTAQQQAABBBBAAIF8CMimyjU1NTKQ2+5hpLj50OcZvhFgCLf3XRk7vM/Uk72vp9Ma7EQ32LhXXfF7/T+/a0iie+RApyV5EwEEEEAAAQQQQMDrAp0O5LIW1+vdSvz5E5CzcOfPn7979+78PdJfT5Ldkj956enE2iVfOXN8YNxU5cTztaqhuWhi667LumxG9fvk6hfUyVeop16uVQ7IxbOoEwEEEEAAAQQQQKBQAjKQe9ttt8lEy7Zn5JLiFqo7eK73BGSXqenTp7ORchY9d3jn5vWvLNi8bFGyITaTJgAAIABJREFUqX5Qn1CoNqrUrmle+kh47FeUE88LnHieUlIZLClTVDWLyru65ejxQpLoPp74YJEhm1FNvlKtINHtCoz3EUAAAQQQQAAB7wnIAUIyCnXvvfemQifF9V4vEnGhBOT0LTkrqFBP9+hzD+/YvH7xgk3LFgZijUndaEoYcd1siuqapoTUaGDLMmXjkuaygaEJFxjDv6wk4x3Owe1tuyXRVRNGSXKf7LocW71QmzQzKIO6lQN7Wy/3I4AAAggggAACCLhA4IYbbpg5cyYprgu6ghC8JiDzH2Qtu4ziei3wgsWrJ+If/PHBTa//WYk16Ekz+sXk1TQVSWfjzUlNVUqa9qof/6n+nT+aB6PRhB6Qtxx92ZtRqQmlJHlQXfVk9MOFoTNmahwv5CgylSGAAAIIIIAAAgURmDBhQlVV1YoVK6ZMmWIHwHZTBekIHuo9gWeeeebaa6/1XtyFizjeWP/xosfN5oamuJHmKCDJfGWgNdqclMxWM5KSjubo1XbX5cB7T8hmVOy6nCNqqkUAAQQQQAABBPIpcM011zz77LOpJ5Li5hOfZ3lYQGYpyywIDzcg/6Graqi0LE1y2y4i3TAdn6XcaaNbdl3WA7Lr8srf609/V7d2Xd7faUneRAABBBBAAAEEEHC/gAxEyaY5sjWsHSoprvu7jAgLLyAnbh0+fHjy5MmFD8WtEZjJuFtD6zyu1kS3YU9AEt0//H/Jt54wOEe3cyreRQABBBBAAAEEXC0g2ymPGjVK5irbUbLdlKt7i+BcIrBs2bJp06a5JBi3hSG7JctRQEOOrB19ymn64EnBEZOUPkMkSDVS7rZQO8ZzbNfldx+Pf7hIO/3KwGmyGRW7Lnek4h0EEEAAAQQQQMC9AlOnTk39xE6K695+IjL3CCxfvlz+2rgnHpdEUidHAS1+ZuPShcnG+sEnlqvhbYE1z8dCFWb/E0Jjz9PLrURXtpVy/+vYrsvvPhF9/7nA6TOCcrwQuy67v+eIEAEEEEAAAQQQaBGQ4ag5c+bYGKS4fCgQ6F7glVdemTt3bvfliqZE/e6t619++vPli7RovWwRJUcByT96UzKhmyGzIVC7RjnwcbwuYcZjshbX6Q2Sc6J8dNdloyQkuy7Pj695Pnj6TPW0y0l0c8JNpQgggAACCCCAgKMCsp3yunXrZGmh7K7MWlxHaanMjwJyVpDM75eXHxuXZZtWPv6vO/7+X8kjdY1f3C1Z9ouKScYbN2LNuqbK2T9Glg8o0G2pXZdDzQe0lbLr8i3GO/PZjKpAvcFjEUAAAQQQQACBTAVKSkoky5W5ynIDKW6mapQrWgEW4nbsejnzNppMdxSQ3CI7JHe80SvvWJtRRZOBxj3aisdkMyrjbRJdr3QdcSKAAAIIIIBAkQrIukJZXSiNJ8Ut0k8Azc5cYOXKlWeffXbm5f1X8kjt1uT+bYp+bM9kNRDyXzM7tujo8UJ7tJWPJf9ws/7WEya7Lndk4h0EEEAAAQQQQMAFAjKKa2+qzFpcF/QGIbhbQKb133PPPe6OMVfRyW7Ja/+2YNeK5y8aW1o2YIQ2dKJy/Hh1wIlKMublMdqecR3ddXmvau26/Jw66crg5BnsutwzREojgAACCCCAAAI5FpgwYYL83C4PIcXNsTTVe19A/qrIXxjvt6NnLajbuWXDq89sWPKc2twQDKpqQgkf3qTUb1bWvtCU0PSdjY0xPRiQ1bbF8jq66/IB2Ywq+uGi4BkzA5PkeKGBxdJ+2okAAggggAACCLhbQDaakhW5tbW1pLju7iiiK7SA5LdykLT8bSl0IHl9fqzh8Muzr9eOHJDltrLmtlwLyFbJsjmyLK+V7ZHDmqEZCQ8vtM3W0t6MSkkYpbLr8vtPNn/ySskNj6ulfbKtj/sQQAABBBBAAAEEnBSYPHmy7BRLiuukKXX5T6A4h3CNZKL58H7NNDtuGSVpnqS7hieOu83Zx1FGdENC0LhT0RM5ewgVI4AAAggggAACCPRMwJ6rzHZTPVOjdLEJ1NTUyChusbXaVFUtFC62Vve4vcGIYh2MxAsBBBBAAAEEEEDAFQIjR47cunUrKa4rOoMgXCuwfv368ePHuzY8AkPA6wLRaFSaUGxrAbzea8SPAAIIIICAOwUYxXVnvxCVuwQOHz4sK9fdFRPRIOAjAdkTQlozaNAgH7WJpiCAAAIIIIBAYQTk53b56Z1R3MLo81SvCMjP3/zw7ZXOIk4EEEAAAQQQQACBYhaQn9vlp3dS3GL+DNB2BBBAAAEEEEAAAQQQQMBXAqS4vupOGuO4ABOVHSelQgQQQAABBBBAAAEEciHAROVcqFKn3wRIcf3Wo7QHAQQQQAABBBBAwKcCpLg+7ViahQACCCCAAAIIIIAAAggUqwATlYu152l3ZgLFeS5uZjaUQgABBBBAAAEEEEDAdQKkuK7rEgJCAAEEEEAAAQQQQAABBBDIToAUNzs37kIAAQQQQAABBBBAAAEEEHCdACmu67qEgBBAAAEEEEAAAQQQQAABBLITIMXNzo27EEAAAQQQQAABBBBAAAEEXCdAiuu6LiEgBBBAAAEEEEAAAQQQQACB7ARIcbNz4y4EEEAAAQQQQAABBBBAAAHXCZDiuq5LCAgBBBBAAAEEEEAAAQQQQCA7AVLc7Ny4CwEEEEAAAQQQQAABBBBAwHUCpLiu6xICQgABBBBAAAEEEEAAAQQQyE6AFDc7N+5CAAEEEEAAAQQQQAABBBBwnQApruu6hIAQQAABvwpEo9HBgwerbV41NTXS2NGjR7d9c/Xq1X4VoF0IIIAAAgggkGsBUtxcC1M/AggggECrQElJyT333JOeY8aMGZMnT05fhqsIIIAAAggggEBXAqS4XcnwPgIIIICA8wK33nrroEGD0tQ7e/bsNFe5hAACCCCAAAIIpBcgxU3vw1UEEEAAAScF0g/kMoTrpDV1IYAAAgggUJQCpLhF2e00GgEEECicQJqBXIZwC9ctPBkBBBBAAAGfCJDi+qQjaQYCCCDgFYGuBnIZwvVKDxInAggggAACbhYgxXVz7xAbAggg4E+BTgdyGcL1Z2fTKgQQQAABBPIrQIqbX2+ehgACCCCgKB0HchnC5XOBAAIIIIAAAo4IkOI6wkglCCCAAAI9E2g7kCsZ79y5c3t2P6URQAABBBBAAIHOBEhxO1PhPQQQQACBHAu0HciVdHfChAk5fiDVI4AAAggggEBRCJDiFkU300gEEEDAhQL2QG7HScsuDJWQEEAAAQQQQMArAkGvBEqcCCCAAAI+E7CT261btw4aNMhnTaM5CCCAAAIIIFAoAVLcQsnzXAQQQAABRQZyDx8+DAQCCCCAAAIIIOCUACmuU5LUgwACxSXQ1NQ4ZvDgPQ2J4mo2rUXAHQLTpk1LBVJVVTVp0qRRLa8pU6bI7AB3xEgUCCCAAAKFESDFLYw7T0UAAa8LlJWV7969Wy3v5/WGED8CXhRYtmxZKmyZCLB69erly5c/9dRTK1askIxXEuBLL71U/i1JrxdbR8wIIIAAAr0RIMXtjR73IuBPgX179ybiiZA/G0erEEDADwJtR3GlPXKucqpVtbW1kgAvXrx4zpw5MqIrl2644Qa27PZDr9MGBBBAIDMBdlTOzIlSCBSBQDQanT9//mWXXXbJxZeYplkELaaJCCDgQwHZvezaa6998sknt2zZsnDhwj59+sycOfP0009/5JFHJPv1YYNpEgIIIIDAFwVIcflEIICAItP8fv7zn5900kky0++OO+5Y/dGacCSMCwIIIOB1ARm8vffee9euXSsZ75o1a84555y77rqLRNfr3Ur8CCCAQHoBUtz0PlxFwOcCktzed999Mr5RV1f3zjvvyE+B06dP93mbaR4CCBSfwOTJk+fNmye57siRI+U73k033VRTU1N8DLQYAQQQKAoBUtyi6GYaiUCnAjItWcY05NKHH344d+5czibtVIk3EUDANwKyNPfOO++UjeKmTp0qizLkF3yyQMM3raMhCCCAAAK2ACkunwQEilFAdh+V5FamJS9dulR+yJMNSItRgTYjgECxCtx4443yqz1pvXwnfOWVV4qVgXYjgAAC/hQgxfVnv9IqBNIIyJ4rMknvwQcflGnJjNymgeISAgj4WEBGdOUXfAsWLHj44Ydvu+02H7eUpiGAAALFJkCKW2w9TnuLWkCm5MlPcrLnigxfTJkypagtaDwCCCCgKLIf1csvvzxp0qQLLrhA9iaABAEEEEDABwKkuD7oRJqAQEYC8tObrD2Tn+Rkz5WMbqAQAgggUBwCt9566+zZs+U75Lp164qjxbQSAQQQ8LMAKa6fe5e2IZASkMW3MkYhe0rJT3KwIIAAAgi0E5g2bZqs3ZBFHCzN5bOBAAIIeF2AFNfrPUj8CHQv8Mwzz8j85IULFzI5uXssSiCAQLEK2JOWZWnuQw89VKwGtBsBBBDwgwAprh96kTYgkEZA9lN5/vnnZefkUaNGpSnGJQQQQAAB2V5eluZu3bqVDaj4MCCAAALeFSDF9W7fETkC3QvMmjUrFovJlqGyd2j3pSmBAAIIIKAosuG8bFsgk5bBQAABBBDwogAprhd7jZgRyEhA5ifX1NTI+tuMSlMIAQQQQOCogGxbIGeq/fznP4cEAQQQQMBzAqS4nusyAkYgIwHZX0pWlMnuKRmVphACCCCAwBcF5PeDy5cvZ/cpPhcIIICA5wRIcT3XZQSMQPcCtbW1spCM+cndS1HCvwKyCl1V1SeeeMK/TaRlOReQ76Jz5szhJKGcQ/MABBBAwFEBUlxHOakMARcIRKPR6667TtaSsb+UC3oj+xDefffdSCQiSdqbb76ZfS1uulNmzktz2r1Gjhwpn9i2Yc6cObNtmbbNt7PW1NX8yOzbt6+iouLuu+92kyWx5ElAdp+SLFe+o8q54nl6JI9BAAEEEOi1AClurwmpAAGXCdx1113XXHMN5wO5rFt6HM7f/va3c88999RTT5XTnnp8s4tvePzxx802L9m6NrUXmp3V67qeSCTsInv37p0+fbqdykp++8EHH6QuzZgx4/zzz08zSCvlpZLvfOc7LsYgNA8IyO8KZcayZLkeiJUQEUAAAQRaBEhx+SAg4CsBOc5REgbZKMVXrSq+xsjI4QMPPHD99ddfddVVsqB6y5YtvjeQJl944YWXXnrpc889FwwG7fYOGDDgyJEj5513nvxRUtYXXnghdemxxx4rLy9ftGhRMpn0PQ4NLKyA/J5FPpny28PChsHTEUAAAQQyFCDFzRCKYgh4QEC2mHrqqadkirIHYiXEtAKvv/56Y2PjuHHjJkyYcOjQITnWuG1xmfFbXV0teW9q4m5qum/Hd1I3tp0nbN9uX7In4radG9z2qpRpO3O43bxieZxdOFWm48TjtA09dvF3v/udNPknP/lJKolNf6Pkt+PHj1+zZk1XKa7d3tRk5kxC7dgKeWfgwIES2K9//WubKDVu3JWnhJ3Js5qamr70pS+l2NsOR7frkXbzsTsGmR6Kq44I3HnnnbJBvfxKxZHaqAQBBBBAIKcCpLg55aVyBPIqIKc4soVyXsVz9rBnn312xIgRZ5555kUXXdTpWKXkvWPGjJEyMhdXZvMeOHBA8j0Za2poaJB3JCXr37+/vJNa5ip50XvvvZea/RuPx6dNm2ZftUdK7Uty4xlnnCGjpsOHD5fG2blWauawXe2QIUPajirbkVx++eWdPjdDIcn3XnzxRbvJGd4iwaxfv14OL80wJZZq04cqRDIRurm5WRrypz/9SYbQJXmWWeLCK13wwx/+0CayZz6n8bTjT/8sgZXMeejQofa8a3mEZMW2qszWHjZs2Pe+9z37cbNnz5b52Kkst9MgMxSjWC8F5s2bJwO57ZaO97JObkcAAQQQyIUAKW4uVKkTgQIIPPLII7L+dvLkyQV4No90VEDyn9dee+0b3/iGzDmX/POSSy6RDGf79u3tHiJJl51uSZkf/ehH27Ztmzhx4q9+9SspVlZW9uMf/1jeWbVqlX2XpGr2JfmjlP/973/f9mqq5l/84heS5qWGUm+55ZZwOCynT9lppFQrB6hIevzb3/62bTCyvNaOpONzM4TJIl+1B7plRW7mKa4E01Wobc2l2FlnnSVZbpqaM/Hs6llSfztY6RHpjtGjR8slWfYpc2Lvv/9+m076Qn7pIP0i+XZPg8wQn2IZCsgxufKrB9lgOcPyFEMAAQQQKJQAKW6h5HkuAk4KyClBjz76qAz4OFkpdRVIwE7eZLzOfr5sHtZxrrJcShWQr2U+c7t37Hs3bNiQphHtrkoGJQuAZTzW3qtMRlYl70qN6Nr12Cn3n//857ZjWTKhOvUUGVuWrDjNc2+++eauNkxOE2q7SxLbL3/5Sxn1/da3vpX5XVKyq1Dtac+9XPbcrtVdPatTWLsVdhI7duzYVHYtvzWQZtrzsR0JskdcFG4nINOV5bc8nCHEBwMBBBBwuQAprss7iPAQyEhAxnxuuOEGGWTIqDSFXCxgJ299+/aVWax2mHbSmId9lWQ1bNsxW3tktW26lWKT6dC7d+/OTrHdjsr2VlI9rerb3/62jDY//fTTqd2Ye1pDu/KSSco0VGmyaLdbitzLmjvengZW5irL1OXUul/7dwGp9Z/5DLJj2LwjAvJ5k98kzpo1Cw0EEEAAATcLkOK6uXeIDYGMBGQIV34IZhfljLBcX+iTllfbsdNTWl6yVHXFihW9CT+1E5UkTh1PQLGHcGU5tz1dtjcPyuLebveOalunNEQ+8JIqZ5cedxWeTE6OxWKSwNjLaLs9CDe9Z1dPyeT91Lpfezmu/Dt1tFJPg8zkcZTpkYDMjZd9p2Rvvx7dRWEEEEAAgXwKkOLmU5tnIZATAVkqKSvEnBrOykmIVJqxgByHK4tdJaENhUL2IJ6kfzJiKRVkfUCuvXnvb37zm82bN9tZ04IFC9pFZK8O/cEPftDu/Y0bN3bcsriysnLw4MEZt6n7gvZ03EwGhyWxlMWQqXXI3VfdwxJSvxBJGpNm0nImnt0+tlNY+f2C9Hu392YSZLeVUCBrAfk9CCtys9bjRgQQQCAPAqS4eUDmEQjkUECWRMrhJTfeeGMOn0HV+RJIbSxs7+ubGsSzN/VttwI286DsmbFpRmhlF19JrdsV6HSnq3Y7HmUeQ7clZfKnxNluI6t2d8lHXVILWS2c2o2p22qzKyAbNae5sVvPNPfKpU5h7Vvs0ewMOzp9kOlj4GpvBBjI7Y0e9yKAAAJ5ECDFzQMyj0AghwLz58+Xo2JYhZtD4jxWbc9StvdSbvtYOynqdA/kTKJrlzhJQisrt9veKLv4ykfoZz/7Wbva7LTzjjvusAdyJQOXD1u/fv06lswkjPRlZAqunOosy1CvuOKK1LixZNQVFRX2mbF22JLfPvfcc2n2Ok7/lK6uSuWyO5S9h5Y9Zzs1V7xj2tmtZ1dPSb3fEVbOyJV9s+3VtrL04Oqrr04hyJitPWs6TZDdPpECzgrIxBnZ4c/ZOqkNAQQQQMApAVJcpySpB4HCCEhW0C5dKUwcPNUJAUk1JX3qOFtY6pakSPaCym6usn3Yj5ydW1paKpOfv/nNb8osWXmQHbI9MCv5s33Vnh1tZ5WSdsrC1J07d9qzpuUWOU03tS40uxa321G57d5O1157rYxXL1myJDVJWw6PlQ1s7ROJBKfdFO62oWYXTOouaalszmwLyEMvvPDCVCLdTs9ORCWqrjwziUQet2PHjlRLBfb222+3lxa3uyRtlPnb9oFPaYLM5KGUcVBAPquyIJwzch0kpSoEEEDAQQFVJsI5WB1VIeAzAfn50s1/R2TXkwsuuEB2YXWWvenw/j/ddqESj+mGKf+URwL/cHJlZUlAvlZVRTGVpRuObD8YDwXkD9YrljTPO7H85MEl8oX9TkBTG2PGXz+uiydNrbWUdSWhm8P6hi8YXyH1tP3eI2Xiurlk3ZG9DYlg2xtaqpPnytMvPqk1BvsRhf23tD2hlpTe/he1vF9hI+HpCCBQEAE5tUt+vSiTlgvydB6KAAIIINCVgPz0zihuVzi8j4AHBGSWMkO4HugnQkQAAd8JyPdemUTju2bRIAQQQMAPAqS4fuhF2lC0AvIDFhtNFW3v03AEECiggKxLl3O8Dh8+XMAYeDQCCCCAQKcCpLidsvAmAh4QkFnKEuWoUaMcj1UmZxuJuOPV+q3CZOwLk6391jzagwAC6QTknLYpU6YsW7YsXSGuIYAAAggUQoAUtxDqPBMBJwTkRyvZ+8eJmtrXoQVDpVX9S0NaqMOyWHkjElQ1WaLc/qYi+rMlUxJQq4cqge6PMC0iF5qKQJEJTJ06dfny5UXWaJqLAAIIeECAFNcDnUSICHQqID9ayQ9YnV7q5ZuRyqrL5vzn6Ev/t1Z2XHkoIPs/hQNqJBwoKwuGg1osVGEG5I1ePsR7t0uLJbktKw3GItXJL91U8u1/V0v7eK8ZRIwAAg4JyC8ZGcV1yJJqEEAAAScFgk5WRl0IIJBHATmy4sEHH8zRA/sMHf3lm2aN/Ydr1v5twa63F0W10tJBJ2vDJin9x5QMPkl9+KfldSujSSNHT3dhtZLcqkEtHuqrTroyMnmGWjnAhUESEgII5FNg8uTJsmBEluNWVVXl87k8CwEEEEAgvQApbnofriLgUoHa2lpZCZbrn6uqho4557v/dOTy/xWJhENVxytH92BXlaB1elBxvFqSWzURGaBNujJ02uUkt8XR7bQSgYwEJkyYsG7dOlmUm1FpCiGAAAII5EWAFDcvzDwEAacF5Icq+dHK6Vo7r69i0Mh2F0wz2XlRf71rJ7fJyEBt8ozgaV9XK/r7q320BgEEeitAittbQe5HAAEEciBAipsDVKpEIPcC+UxxO7YmEAqXBLWkbiaMLredCsjB2x3v9Mg7VnIb0JIlA7TTZwROJbn1SLcRJgJ5Fxg/fvz69evz/lgeiAACCCCQToDtptLpcA0B1wrID1Xyo1Whwjv75p8Ou/h/BSv6lIe/sOuy7Lcs+1CVhbVIaVBRFVP+56lXakOpRGk/4+zvBK5/TDvnRgZvPdWHBItAXgXsUdy8PpKHIYAAAgh0J8AobndCXEfAlQKyx0mOtlPOpLnHDR755e/847hLr12/+JmNSxeWmfUy7BkoDQZieixYkew3OnziV0KVw9S1d4eMZt3scqQ3k2flp4wktyUtG0pFA1WB02eEJl+pVg7Mz6N5CgIIeFdATia3jyj3bhOIHAEEEPCfACmu//qUFhWFgBv28OwzdMxZLYnux3/9T6X+Y3Pc6cbgSeERk9WqYdIHgVhM/m1NVnZ9hnt0t+R+2ulXRk67gg2liuKvEI1EwAkB2fNPvhs7URN1IIAAAgg4JkCK6xglFSGQT4FoNCo7KufziV09S3ZdPv97s414VA2XBNoUMqJHurrFPe+nNpRSJl0RPO1yjaOA3NM3RIKAFwTk+7B8N/ZCpMSIAAIIFJEAKW4RdTZN9ZOAHBo0aNAg97RIC7si384cpDW5LR2onnZFQEZu2S05cztKIoDAUQH5PizfjfFAAAEEEHCVACmuq7qDYBDwkYBpJpqbSmXj5a53XW7b2oCmym5VeXgdHbkdEJh8ZeBUzrnNAzmPQAABBBBAAAEE8idAips/a56EgIMCbhvF7di0cPlxp864edPrfy6LNsR1s6tEV9LaUEALhLUjjQlDC6pKomNVjrzTdkOp0BkzA5NkzS0bSjlCSyUIIIAAAggggICLBEhxXdQZhIJA5gLuWYvbVcxydu6Xb7hn7EXfXL94wefLFkViR+K6kdBb956SbaiCmhoKBxTdaAz1jZx0QWjkFPWxX5Y0bkjoRld1Zvd+KrmNBaq006+KTJaRW5Lb7Cy5CwEEEEAAAQQQcLsAKa7be4j4EPC0QNWwMWff/E8Tpl+37pUFm5ctKmuqD8nBuZGAnJjblAyro6aoJ55fdsJX1LIq+Wakag85PlfZ3i05EeqnTr4iPEmOAhrgaU+CRwABBBBAAAEEEEgvQIqb3oerCCDggIAcL2Qlupd965OXnk58+vfEwLHq2K+WjJuqVY9I1Z6MNpmOnqCb2i1ZkltZc8tuyQ50JFUggAACCCCAAAKuFyDFdX0XESACfhHoM2T0V77709ih7wYr+6rBcO6aZSW3ATVZMlCT5Pa0K9WKfrl7FjUjgAACCCCAAAIIuEqAFNdV3UEwCPhfINL3+Nw1snVacqR/kN2Sc6dMzQgggAACCCCAgIsFSHFd3DmEhgACmQm03S05eMbMILslZ+ZGKQQQQAABBBBAwH8CpLj+61NahIBXBRJNR2SKcayH4dsjt/FQP5mWHCG57aEexRFAAAEEEEAAAZ8JkOL6rENpDgJeFdBCkRMvvHLDX58qV+rjSTNhtB4vlKY9qWnJ6mlXhKzdkvunKcwlBBBAAAEEEEAAgWIQUJ3dwrQYyGhjUQmoqkv/jrg2sF5+POp2bdnw6n9vWvac0lQnh+jaia5umJUlgYtPqpR/y9fyCDu5TZYMUCfN0E77ulpBcttLeG5HAIEsBfz63ThLDm5DAAEECi0g35Zd+uN7oWV4PgKtAq79O+LawBz56NTtrtmweMGmZYvsRDeaNFIpbjigqkHZLXmAJlsly7RkkltHxKkEAQSyFfD3d+NsVbgPAQQQKJgAKW7B6HmwVwRc+7OLawNzsGfrd9esf3XB50sWGo31JSH10lOOq6gIxoP9gqfPUE/9ulo50MFnURUCCCCQnUAxfDfOToa7EEAAgYIIkOIWhJ2HeknAtT+7uDYwx3u3bueWta/8ce/KF74ytqrvud9QZfCW5NZxZSpEAIFsBYrnu3G2QtyHAAII5FWAFDev3DzMiwKu/dnFtYHlqJejh2qDoUiwom+O6qdaBBBAIDuBYvtunJ0SdyGAAAJ5EyDFzRs1D/KqgGt/dnFtYF7taeJGAAEEshLgu3FWbNzHEaOZAAAgAElEQVSEAAII5EpAvi1ruaqbehFAAAEEEEAAAQQQQAABBBDIrwApbn69eRoCCCCAAAIIIIAAAggggEDOBEhxc0ZLxQgggAACCCCAAAIIIIAAAvkVIMXNrzdPQwABBBBAAAEEEEAAAQQQyJkAKW7OaKkYAQQQQAABBBBAAAEEEEAgvwKkuPn15mkIIIAAAggggAACCCCAAAI5EyDFzRktFSOAAAIIIIAAAggggAACCORXgBQ3v948DQEEEEAAAQQQQAABBBBAIGcCpLg5o6ViBBBAAAEEEEAAAQQQQACB/AqQ4ubXm6chgAACCCCAAAIIIIAAAgjkTCCYs5qpGAEEEEAAAQQQ+P/Zew8Auaorz7vqVequjuoktTpJAgWijISFsRFBsixZazDMkARj6wP8wTIwy7fIMIM9O8DsYkz8FhaWMSYstgEBGiTAxtgaokRSAiEJJVBudaujOlVXeu/t/9UVj6JyV3xV9S+3m9J795577u8+lfrf59xzSYAESIAESCBVAu6hwS//tGp8SUntgsXmsvJUzRV6f7OqqoU+R86PBJInYDYb9O+IYR1LnjV7kgAJkEAeEuCncR4uGl0mgXwi4B4c+PyPKze+9AfbkcMLJk60TWwt/cGPys5dIJVX5NM0sugrPpYN+uN7FiFwKBKIRcCwf0cM61gsmrxHAiRAAgVHgJ/GBbeknBAJGIWAZ2hwx59XfbL82ZGDe32KYrdY5zdOqC8tgX/e8Y3lC3/sPOf7EiO6YctFiRuGhBdI4JsEDPuzi2Ed4xNEAiRAAkVFgJ/GRbXcnCwJZIeAZ3hox+srN7/03NC+PYpq8iqKrKrlNtu8xgn4jvdOq8ViMvsbm8sWnV969vclZ1l2HMuLUShx82KZ6GQuCRj2ZxfDOpbL1eLYJEACJJB1Avw0zjpyDkgChUzAOzKy4/VVn7307MDeL4S4FbMNkbjioiZ0zWZ5YkvZwh855i6wOJ2FjCbhuVHiJoyKDYuVgGF/djGsY8X6pHDeJEACRUqAn8ZFuvCcNgmkm4BnZHj7n1ZtXfFciLgV40SUuLhlNplKrRar2eyD0P3Bj0rPXiAVvdClxE33s0l7BUfAsD+7GNaxgnsEOCESIAESiEWAn8ax6PAeCZBAAgS8mrh9ZfNLvx/et0cOpCWHd4omcUVLXeh6J2ipy87iFrqUuOHPD6+QwDcIGPZnF8M6xgeIBEiABIqKAD+Ni2q5OVkSSC8B7LlFteTNLz7rOrgX4hY1paIddRNb4gqvgoTuROcPLtCqLhflHl1K3PQ+pbRWgAQM+7OLYR0rwIeAUyIBEiCB6AT4aRydDe+QAAlEJeAeOPr5n1/9LAFxK0wkInFFS13ourWqyxc4z/6+pciOF8LHsjUqeN4gARIgARIgARIgARIgARIgARJIN4HPX3914/+8yy2rMSK3yY2JOLDLL2tCt/Ow9dknXGap4oc/Ts5U/vaixM3ftaPnJEACJEACJEACJEACJEAC+UfA73b5FTXittu0TEYIXZtkNrtH02Iwv4xI+eUuvSUBEiABEiABEiABEiABEiCB/CYgWaJtu03jvFTVZJaKUe4V45zT+NzQFAmQAAmQAAmQAAmQAAmQAAmQgHEIUOIaZy3oCQmQAAmQAAmQAAmQAAmQAAmQQEoEKHFTwsfOJEACJEACJEACJEACJEACJEACxiFAiWuctaAnJEACJEACJEACJEACJEACJEACKRGgxE0JHzuTAAmQAAmQAAmQAAmQAAmQAAkYhwAlrnHWgp6QAAmQAAmQAAmQAAmQAAmQAAmkRIASNyV87EwCJEACJEACJEACJEACJEACJGAcApS4xlkLekICJEACJEACJEACJEACJEACJJASAWtKvdmZBEiABEiABEiABEiABEiABIqDwHBP9/ZVL9a7XRO+dbplyvHW2gazw1GQU/e5R4c6Ozq2bx3a8umMKZMqvv8jS3VNvsyUEjdfVop+kgAJkAAJkAAJkAAJkAAJ5IbAcM+Rba+u+GzFi0pP58LmpuE1b44oJkdrm2PGibYp0xzTT7TWT8h3uet3jw4cbj+8eVPXjm0dWzZ17d6lyv7mMufUiRN73vqrc/7isnmLpHF5IHQpcXPzl4SjkgAJkAAJkAAJkAAJkAAJGJ/AcPeRra+s2PLyC77uTq+iqCbzgM/vsNqsqmI5uM9y+MDI6tf7LVZrQ0PJjFOsx09zTJlma2o1l5QYf2rw0Ody9e75omvX50e2bm7/dONAx2Gzz2OXJJ+imFWTX1GHffKQz1/W2y2v+N2Rv/7RueA/lc9bZKmpNfLsKHGNvDr0jQRIgARIgARIgARIgARIIDcEho5A3L64deULvp4uv6r6FFVRVatkhjd4gyt+WXbJMi5IqiJ1tEtdnd53/3rUbDFXjyuZdoJjxsn2tsm2tilSWXluJhBlVM/QYPfunT1fbG/ftOnwtk9Hu7stsg8lmnwqXiZZm6ksuqqB/+C7W1ZG/aqjv0dd8fvO1X8s+/7iivk/tNTURRkhx5cpcXO8AByeBEiABEiABEiABEiABEjAgATefeB/dL67elSWIW5juIebmuI1qdCBkL9WSbb0dkkf98gfr+1UFFttvbV1svOUb1nbptha2sSOVsnu0IRy5l8Wx7Fgsqu3p2fP7p7dO/at+7D3i13DnR0OM/SsJmjhP+R6rBkG/BRC1yMrjv7e0leW9x/YW7fsXzI/g2RGoMRNhhr7kAAJkAAJkAAJkAAJkAAJFDaB0YGjyNeNrW9DCEAHor0vIHdxy2o2Q+5a+rr9m9f3+2Vr/Xipsali1re9e3Yj5znT9CBcB3Zu23LkyMGP1w7u2zfQ2V5ikTRBDrmqmkZj6vZovn0V0ZWVocFobXJ+nRI350tAB0iABEiABEiABEiABEiABAxHwGy1xo1txnY6kMx8zIbFbJZ6u6x9Pf4dW7w9vS5ZwZbX2N1TvOtV1B2v/Pv2gaMYCNFas9k0GhDeqb+0KUnGFZLG9Sx19LRAAiRAAiRAAiRAAiRAAiRAAkYgAJEpa3JXsSkSQrhZSFTGENDYSC1OKl5rBGZJ+pDZ3xwk6RS7kQAJkAAJkAAJkAAJkAAJkEDRE4BMxZdkNiPnudRqcVgkvMEfix5MLACM4saiw3skQAIkQAIkQAIkQAIkQAIkkGUCQtZiUMR+cXLPiF/uGfW/cejIcRXljc6SCpu11GJBRNivoPZxAqWisux9roejxM31CnB8EiABEiABEiABEiABEiCBoieA0KykhWy1+sw4v8flk0f9ssuv4Av5xrKi7hl2rZV6ym3Wic7SljJnU1kJ3lTabQjtoptPVdAmxc3DhbEIlLiFsY6cBQmQAAmQAAmQAAmQAAmQQJ4RgDbF/6BLEYr1yKrbL6MiFGK2KMgsjuHVEpUDack4j9dqskDDDvn82/oHP+sbQHnkCpttgtPRVlY2wVmCr1qHXaQxa2WuMl+x2bCsuRfXsEtDx0iABEiABEiABEiABBIicMcdd0AGrF27Nlpr0eCpp56K1iDp65mznLRL7Gh8AlCqIuAKKdvv9R92eb4YdH8xMLp32I33g16/L1CHWSvCHBC4+tZb/BEXEbZ1Wi1oMOD1be8f+tPBjt/t3v9v27/8zY49eP9J79GuUTdaopAyGhufRto9ZBQ37UhpkARIgARIgARIgARIIBaBiy66aNWqVXqLNWvWnHXWWbE65M+97u7uyZMnX3fddQ888ED+eE1Ps03AYbGMyqb9w6PDfj+itUgvFgWlkHGcuChFFy1BOaB/YQFyt8/j3X50CBaq7bb6EseM6grVJCduMNsUMjYeo7gZQ0vDJEACJEACJEACJEAC3ySwbt06h8Mhy7LPh82G2qurq2vRokUxArBpQYhYK8a6+uqr02It2EjmLKfdVRo0CAGkELeVl//NpJYlx7X+7aTmeRMbThlX1eQsQWDWpyijsoxjfnCqEKpMxdhaG8ht1nbt4gslqfBHyOYqu218qb2pzFHtQDEq/xeDRw+7XEUocRnFNcijTjdIgARIgARIgARIoMAJIMI5b968hQsXvvzyy1brsZ9C6+vrh4eHC3zmnB4JBBGAHMWO2fGlJaiNjI24mkw1qS6/3O/x9nt8PW5P16iny+0e8PpdfnzJ6CoylsVZQarpWA6z1WK2mSXsyC2xSg5Jslu0zGRrIIKp7fBF2apAseUiLEDFKC7/wpEACZAACZAACZAACWSDwKOPPjoyMnLrrbfq+jZ81OXLl2PvoXjV1NTs3bs3uI3L5Zo9e7beIHxvrdgZiwZtbW1ut1vvK8zqsWI0E8aRMi2shbRHx2BP9BHDo83BlmGtoaEBc3zwwQdFF91DyPvy8vKIdmBBOBPufPgVfUYxPA+nyitGIwDZiYAtorVuWUbAFpWQcQgQiiSfVls9v6nhsuOarz/huP98wpSl0yZdNqUFYd4TxlXUlNhLLOZKuwVx2tbykikVJVMrS6dWlbZWOCaU2sc5rE4rdt4irqt9Ia6rhXaLUN0GVpoS12gPPP0hARIgARIgARIggQIkAHX62muvtba2nn766dGmB9m2fv36QP6ylsDs9XrPPfdcXalCJUJANjU1iSRnNIACDNbAc+fOhX30hcisq6ubPn16sMoNGbS/v3/KlCnnn39+xPaQnUuWLHnyySeFJ2VlZbA8Ojoae8/wypUr4RUa33zzzWIWIjUa6dnNzc3YoCsu3n777XA1WC0LZ4TzsNDb2wvnkb89NDQU0T2A2rRpE/zB3ZdeeuknP/mJ3++PRpXXjU8AUhSKFFpXZCkjRRlllGtL7CdUV5zdWPfjtonXTJt87fTJp9ZUTCp3NJc5GkpsVXYrwraI1ULHCkGLTsUqaUNXmBI3lAj/TAIkQAIkQAIkQAIkkHYCkJ07d+6cOXNmjBAuJKJepQkJzE888cSBAwc2bNggnLn22mvtdvtDDz0kLKAB7qK2k+4qFKmQlE6n85ZbbgnuG3E60dpDjd93331Qvz/96U/REQP9/Oc/h9rs6OiIaCfuxbvvvhvp2ffcc49oiTj2rFmz7r333mBdClUsnBfDwfmTTjpJ0AiZDqT+6tWrL7744pKSEhicM2cOVG4MqnHdYwOjEYBSxS8vIHQR5kWiMuK9iP+jijIyk3FLbL4VQVpq2ohrR4kbEQsvkgAJkAAJkAAJkAAJGILArl274AdkJ1QfgqgtLS3R3Jo2bZp+CxFa6GHRN/X2M2bMQKC1vb09mqkY14UinTp1qq5CIVkRsN28eXOwxEVgVjeC4fA++Iq4JaaDKDFivE8//XRIFncMH3grrwkIWavVXaaiTWwhKXET48RWJEACJEACJEACJEACuSMggsDBQjGbvuzYsWPcuHHIkU5iUAhRZFbru3PFdtzgM5PGahMK+bHHHgMQyPjw7cpjtcb2JFB4BChxC29NOSMSIAESIAESIAESMBwBEXsMCV2Ge6kXWIIUxG7Y8AZZuCISg7Fz+KOPPsJwCMPef//9sQPIcb3Sd+eK7bj4vn//fpFpHLdveAMkJ3s8HuzpFZt4ly1bFt6GV0igaAlQ4hbt0nPiJEACJEACJEACJJA9AiI7N8aOVlEt+eGHH96zZ4/Qgc8//3yIf7t3785CXSWxFxelm+fPnw+ljRpXqBT16quvJrffFbuFbTZbJkCLI3kvvPBCJi1nAm9ubaKOFI4IQj0pHC9klSSbdhqQGbtzsS8Xx+r6AwWTtdTl3Hpp1NEpcY26MvSLBEiABEiABEiABAqLwG233Yb02kceeSTitEQq8lVXXRVcQUpviSJMCxYsQBXigwcPRuyexovCk7//+79HpFSIbb0IVhKjiPD1ihUrYpR3TsKs3gUVvFLpzr65JaBLWU3NBqQszrbFF7zyyvKw39/n9baPjGw/enT3wNDUqooTqqubyspq7PZyKyoqW7RmioIvIX2/Kq2sad9iVr+UuLl9qjk6CZAACZAACZAACRQLAaTXPvPMM9iVesEFF+jBWHFgLM6PDZGCOGhn6dKlwWiEQr7ppptEXxH1DT+oNnWawpNrrrlGP8YWb4J9jjFEuKAVW2c7OzsvvfRSfdYIwCadXQwyKKwlBHNakqhjTIe3MkQAgtZhsUDTQohCoLr8/n6v99DIyK6BgU96ez/o6lpz5Mg7HZ1vth/+66H2dzs6P+zq/mJo6PiKijMb6s9pnPCD5qb5TRPPbZwwd/z47zY0nFZbO62qqrm8bJzd7tSkLwLAJlk7d1eG6M3QFIxs1mpk5+gbCZAACZAACZAACZBAIRG4/PLLkf0bkru7Zs0acd7sG2+8gVulpaWYMmoOIy35xBNP1KcPhXzo0KHgvjj1J/ZBtcmhgyjFiUEoLvXyyy+L5GQoSYz7N3/zN/qVaJbRN3gWYmrhnmNrbtKRYVi74oorBCW4AVfjehXNW17PCQEI0F6P59DwiFtR3LJ/1C+P+v0IwyqBA4ECX8hSxsm4ZkQjxe9Z8Aaq+Fhysqoi9gspi0CuuQT3taNxj3U0mWAHgtktazY9ioJR+jweTfIW08vMFO5iWm7OdcwE8LFhzL8jhnVszIjZgQRIgATymQA/jfN59aL6vnz5clS60oW3aIe4K/YJb9y4MWIedVRbvJHPBFbccFXXuvdHZWjPYy8oSYRe501srCspwZ7Y5CaHbOTP+vo+7upGpjGkpy5lhbWIYhTittxmm9c4Ad8jBmb1XpokDuzjxXfYxygYCyMm5yrmiJlivpg15q4bqbRZfSd+q+Fffp2c2Yz2wtQZxc0oYRonARIgARIgARIgARLIMwI4IijcY9SCDr/IKySQHAFIUCQqJ608wwfV1aeIzQgZjIvBujS8V6FeSVLQFyoOzosESIAESIAESIAESKDICSxevNhut99777361lnEdXGSbbRSWEWOi9MnAaMRYBTXaCtCf0iABEiABEiABEiABHJJIHzrLLwJyVvOpX8cmwRIICYBStyYeHiTBEiABEiABEiABEig+AjgjKLh4eHimzdnTAKFQICJyoWwipwDCZAACZAACZAACZAACZAACZAACFDi8jEgARIgARIgARIgARIgARIgARIoEAKUuAWykJwGCZAACZAACZAACZAACZAACZAAJS6fARIgARIgARIgARIgARIgARIggQIhQIlbIAvJaZAACZAACZAACZAACZAACZAACVDi8hkgARIgARIgARIgARIgARIgARIoEAI8NKhAFpLTIAESIAESIAESyAkBs9mck3E5KAmQQCoEVFVNpTv7GpkAo7hGXh36RgIkQAIkQAIkQAIkQAIkQAIkMAYCjOKOARabkgAJkAAJkAAJkEAIAcaC+EiQAAmQgKEIUOIaajnoDAmQgBEJqO4h01CX0ntA9blN+ZKRqKpmW4lU22qqaDCXVBgRa0H4xGejIJaRkyABEiABEigoApS4BbWcnAwJkEB6CSh7PvTvfEfZt8E01GFRFclsypedO1DiimrymSVTRaM06XTr9HOlKWemF06RW+OzUeQPAKdPAiRAAiRgWAKUuIZdGjpGAiSQSwLyvg3mDc/JX35gd1hUn+JVVFk1yab8Kk2BIjiKffiweecffZ+9Yjruu+rpV1gmnZ5LrAUxNp+NglhGToIESIAESKBgCVDiFuzScmIkQALJEVAV2b/2t8qHv3PYzT7V5HL5k7NjgF4qJPmoFsxVLJLZdvBjz5cfqWf+1HLW/2uWLAZwL/9c4LORf2tGj0mABEiABIqPACsqF9+ac8YkQALRCagel2/VL22bfm8xKSOjfhn6sCBemAimg0lZN/0eE1S9roKYVlYnwWcjq7g5GAmQAAmQAAkkS4ASN1ly7EcCJFB4BBS/94//aj+4xj3q98pqgZ10ielgUpgaJuh59XaTkr/R6Vw8eXw2ckGdY5IACZAACZBAEgQocZOAxi4kQAKFScD73m8dB9a4Xf5Cid1GWCZMDRMsOfgBJhvhNi9FIcBnIwoYXiYBEiABEiABwxGgxDXcktAhEiCBnBBQ2regvhSitwWsbwVYTBDTxGSVQ5tzgjrvBuWzkXdLRodJgARIgASKmQAlbjGvPudOAiTwFQFV8b79v22S4kHd5CJ4YZqYrPetR02qUgTTTW2KfDZS48feJEACJEACJJBlApS4WQbO4UiABIxIQNm/wXr4Uw9im0b0Lv0+YZqYrKVzCyaefuuFZZHPRmGtJ2dDAiRAAoYgoKiqR5a9iuJXFFlV8UdVOwYhpcMJ8Y87viSz2WI2WyXJLkkOC05UKJIfbb6xrDw0yBBPOZ0gARLILQHfjrccNsk7WkQVmJCQ7XBYPJj4pDm5hW/w0flsGHyB6B4JkAAJ5B0BaNoJpaWn1dZ6FNktyzjAYVSWoXUhdLGZSAnoXCFWNdUaplGFZsV1cVdELNFL66uqPhgMfLn9Mux3jo5C8eYdohQdpsRNESC7kwAJ5D8Bv1fZt0GViy5lF1PGxLEx12S15/8qZmYGfDb4bGTmyaJVEiCBYiYAIVpXUjLB6YSs9auq+D7q90OXunx+l9/vhvT1a+oX731QviaTaGMNhGdxBfTwXWsZkLJoj/f40oz4Zd0meqE9JW4xP2ycOwmQQJESUHr2KYPd+Peg2Obvl1VMHNOXJkwrtrknOF8+G3w2EnxU2IwESIAExkQAgVxZ1rZHIZEY6cQlJlOF1SoitojKygEFK76QzzwSkK8oiLlneBi5zZDBuILrehsUEpECkdpjod2vgsCwPCavCqYxo7gFs5ScCAmQQJIE1OFuK3J5ii6LB+lMJqviwfRNJkrcyA8Pnw0+G5GfDF4lARIggXQQ0H65rm3C/eoV9BbSt8RiKbVYzHYt0wrx2yGf7/WDh/Ad73FFV7MWSaKiC1kNAknH40kbJEAC+UxA9QzbbZLbh9+ZFtcLiVIlNovsGS6uaY9ltnw2xkKLbUmABEiABNJGIFB/KvAK/Fc1m0XWsa0oE4/HipUVlcdKjO1JgAQKjoB3xGw1F1+esvaPJiZu8o4U3Iqmb0J8NtLHkpZIgARIgARIIDsEKHGzw5mjkAAJGJlA8eUof2M1inz6sZ/MIodT5NOP/WzwLgmQAAmQgEEJUOIadGHoFgmQAAmQAAmQAAmQAAmQAAloaVfIW1ZkRUahSO0MXTKJTYB7cWPz4V0SIAESIAESIAESIAESIAESyCIBsf8WhwPJsqZvLRbVarWWOh1O58jQkOz3+f1+ySxZrCg1ZQkUnmLSzTdWhxI3iw8rhyIBEiABEiABEiABEiABEiCBEAJfxWlNsqKd/4OzbC0WS1W1paLSUlklVVVbq2sqK6svkP1He3v6jnQe7eke6O0ZPNo31N8PxSvLCqK7ErqgArOEYszFrngpcfk3jARIgARIgARIgARIgARIgASySEBLPFZMSuA0ByhSs1kqdVrKKiwVFVJltXVcraW62uwskxwlZrtDa4PGqlJhNlfV1k2ecRLae0ZdbpdrZGjwaPeR3iNHIHqHAop3dHhIS2VWFXQKiF6cMVR0ipcSN4uPMociARIgARIgARIgARIgARIocgKqarHZbFXVkrPMVFZurqyyVNeYy8qhcqXSUpNZgpo1adtvoYEV1evRaUEQ6yccIlpbVllZUV09obUNScsI444ODbmGh4cHjvZ2dfb1dA/29w0PDoz09yk+n6aii+lFiVtMq825kgAJkAAJkAAJkAAJkAAJ5JSAxWRq93hGbKWt006sbphQUT1OkiSUkkLKMeRogtWkEASW8fXVRBCqdZSXl1aPq2+bNElRlJFhb2/38Be7Plr/0RddXVYLxiyiFyVuES02p0oCJEACJEACJEACJEACJJBbAsgf7h8YWP/umxvffxeJxzUN48c3t05om1RdW19eWWW122S/X9OvihxH7iI2q+28lVCPyuT3+4YGlYGj/q5Of/cRGcHboUGHJJX6/WqRhXCxuJS4uX3COToJkAAJkAAJkAAJkAAJkEBxEYAwtVm1XbL9XUd6Drd/8dmnFqu1sqa2rrGpobl5QsukmoaG0rIKm8Mu+7Xw7tdnBQU27qKasiZrfT5ldNR/tE+TtT1d/t4eyFpVK8Ks4C7ayGaztiW3+F6UuMW35pwxCZAACZAACZAACZAACZBArglAq1ptNnxpx96aTCiS3NvZsWvzJpvdXl5VXd/U3DCxeXxLa+2ExhJnmd3u8CGy6/OqHre/r9eHUC1kbU83cpJVv8+kqCZoZgR1Ya3oX5S4Rf8IEAAJkAAJkAAJkAAJkAAJkEAOCQSqHiOQiy9N7qrqYF8vDgfa+ckGR0mps6KyoamlefKUSeXlalenr+eI4nIdK0OFgsmarLXn0HcDDk2Ja8BFoUskQAIkQAIkQAIkQAIkQAJFSQBy12y2SJImd7XTgpSh/r7eriMHtn5a2TSx3GaXoWmR6CwOEypKQnEnTYkbFxEbkAAJkAAJkAAJkAAJkAAJkEB6CCBgC4maoC0UW0ZNKbvF4rDZIGuRh2zWkpoTfWGYREdK1GQetKPEzYNFooskQAIkQAIkQAIkQAIkQAL5SwCS1m6WbJC2Wk4yVGq2hGdgUIdFgiyWFTVejeb8BfwNzylxC2QhOQ0SIAESIAESIAESIAESIIE0EpC9HikFKaqVTZbMqJtsMZt9iuqvqPLVNziOn+GcNafivbecf3gSF9Pobbgph2Q+7YqfTp120qEP13Ru+2ywo93b32c1a6WpFJMmd5MeHzPy+r3hIxrkCiWuQRaCbpAACZAACZAACZAACZAACRiIQN1x03o/3VBikTyKkmB2MLSfNSBr7ZI0hDNpq2r94xtsJ55aMfVEW+sk6/hGMT3rjs9t0L2mzEpcaOzK5paJZ8+bdvY8jDvQfrDni12dWz49sGn98OGDI91dTquE0G5A7kL3JuQMbJZZLZDH9tbJBlqqb7pCiWvYpaFjJEACJEACJEACJEACJEACOSMw79Z/mXTm3E+XP9O+/mBa3yUAACAASURBVEOLZPbIEU6Z1Soha9WhNE0LZdvv85uqqs0tk00zTq6ZcjxitlL1uPAJKD5fQoIyvOcYryier2OtVU0t+DrunPnfM5lcvT2d2zYf2fF5x+ZN3bt3Dvd2O60WqFx/ILSr1XQOG0iIWy/U/okzS354ofP074Q1McoFSlyjrAT9IAESIAESIAESIAESIAESMA4BnMcDQYivPe+++cnyZw6t+9AmSQhgCllrtUjY4wpBOAxpWF1jPW6aOnX6+OOm24+fLpWVG2cWET1x1tZNOXs+vnDXMzTYuW1Lx+dbjmz9pHP7VldPj8OkSiaTLyB3MVmI2wqb1e2XIW6rF19YcvqZEW0a5yIlrnHWgp6QAAmQAAmQAAmQAAmQAAkYjsCUc+ZPPnvel++s3rT8ma6N65G6LMPH+gm242dYpxw/fsZJtpZJkrPMcH4n5pCjorLtO9/DF5p7RoZ7v9x16JON3Tu2Hd766Wh7OyaL1Gt5xslViy4smfPdwAm+Rn9R4hp9hegfCZAACZAACZAACZAACZBAbglA2h1/3g8Q9ty/5u2ygaM1p86Uxk/MX1kbDaajrHziqbPwhQbuwYGj7QePbvm0um2y89tnIqYdrZfRrlPiGm1F6A8JkAAJkAAJkAAJkAAJkIARCUgWy+Rzv29EzzLgU0ll1QR8nXByBmxn1qSxJK7f70cqu6pE2MmdWQwxreM3FkhAt1qNxSqmy7xJAiRAAiRAAiRAAiRAAiRAAsVIwCiyzefzdXYe6enr83k9cqRiZTlcHItFstkd48ZVNzU22my2HHrCoUmABEiABEiABEiABEiABEiABGIQMITE9Xq9O3futtntiowSZSaLxRLD4+zf0uLKsuwede/YsWP69Ol2uz37PnBEEiABEiABEiABEiABEiABEiCBuAQMIXH3Hzhotdv6+nrjupurBrIsezyecePG7d9/4Pjjj8uLSmK5YsVxSYAESIAESIAESIAESIAESCBXBHJfF8vt9vT09AwNDuYKQeLjDg0Ndff2wuHEu7AlCZAACZAACZAACZAACZAACZBA1gjkPoo7MjKCSk4Ik8aes6Johahit0nxLmKzKCwVwwh8sFmtLpertLQkRjPeIgESIAESIAESIAESIAESIAESyAmB3EtcWfbHnTkKUEFV1tfV4XtmhK55xOXq1SK07rg7gRNxOO6M2IAESIAESIAESIAESIAESIAESCDtBHIvcRE6jT0rxE4rKspPmDHd4XDEbpni3QkTxm/fvmN0dDR2LDeuwym6we4kQAIkQAIkQAIkQAIkQAIkQALJEYgjL5MzmsZeImbb2tqSaX0Ln52lpS3NzRnOhk4jG5oiARIgARIgARIgARIgARLIPwKqrJgz73VgiMzu9Mz8JJIZIQ8krt1mKy8vT2ZyY+9TUVmBU3Azkws9dm/YgwRIgARIgARIgARIgARIoOAIWOxWmyTZpAzq3BKLpdRqMUnGOo01OyuZ+0Tl2PNECShZUWS/32SzxW6Zlrs+n4/6Ni0kaYQESIAESIAESIAESIAESCAigRmLfuRzubaufMna0+lXVZ+StlgrRLPDItklyVU1bnT+4sqzzovoQGFfzAOJ6/f7O48cmTxpUhZW4siRLmz9jVtxKguecAgSIAESIAESIAESIAESIIGCJFBeN/7Ma//hlIsu3bLyxa0rX7D2dKUudCFuEbm1S+aRqnGO7y+eMH+xpaa2IOnFnZTRJS4mgOJPHR2dkllqaKi32+1xp5RcA4/HeyTwil1rKjnj7EUCJEACJEACJEACJEACJEACwQTK648J3a2vrNi26kXPkY7khC7ELXKSrWaze1ydef4PJ8xbVLTiVuDNA4mLXGUkDx84ePBIV5fNZstEIjGG8Hl9Hq8H+hbv+XePBEiABEiABEiABEiABEiABLJAAEL3Oz+74ZQLL9366otbXx6b0NXFrW9Ci+37iyrOOs9aXZMFnw0+RB5IXBCE7ETysNfr9Xi9mRCgSH4XQxh8tegeCZAACZAACZAACZAACZBA4REoq6s/4+obTr7g0m2vrtiy8gVP5+G4EV2n1WJB3aKJLY6FP6qau0ByOgsPS3Izyg+JK+bGFOLk1pi9SIAESIAESIAESIAESIAEjE8AQnfO1def9ONLPn/lJezRHe08LKuqN6wYlSZuTWZ/Y7Nj0fmlZ39fcpYZf2rZ9NDQEjcTOcmJw2XGcuKs2JIESIAESIAESIAESIAESCAtBMpq67599fUn/vjira+8uP21VSOH9vsUBZaRzQpxizfe8Y2lC39cfc73pbIsHa2alnllzYhBJS7KGkPfShacFZWJxOT4eDE6KjkjbszQcXxYbEECJEACJEACJEACJEACJJBWAmW1WuryqX975fY/rdr40h9sRw6X26z+homlP/hR9bkLpPKKtI5WUMaMKHFlWXaWlo4fP95Z5tRCqWrazolKdOnMZkVWhkeGu450YfcvVW6i3NiOBEiABEiABEiABEiABEggfQRKq6pnXfH/nHj+33z5p1WOkpLaBYvNjNzGw2s4iYv4rdPpPPGEGaWlpfGcz+z92tqautraz7fv8Hi0SsuZHYzWSYAESIAESIAESIAESIAESCASgZKKypMu/2mkO7wWgYDhlBsyhBsbG3OubwWqsrKyhoaG3G4JjrBovEQCJEACJEACJEACJEACJEACJBCJgOEkLpx0lpZEcjU310pLHLkZmKOSAAmQAAmQAAmQAAmQAAmQAAmMkYARJe4Yp5DZ5gzhZpYvrZMACZAACZAACZAACZAACZBA+ghQ4qaPJS2RAAmQAAmQAAmQAAmQAAmQAAnklAAlbk7xc3ASIAESIAESIAESIAESIAESIIH0EaDETR9LWiIBEiABEiABEiABEiABEiABEsgpAUrcnOLn4CRAAiRAAiRAAiRAAiRAAiRAAukjQImbPpa0RAIkQAIkQAIkQAIkQAIkQAIkkFMClLg5xc/BSYAESIAESIAESIAESIAESIAE0keAEjd9LGmJBEiABEiABEiABEiABEiABEggpwQocXOKn4OTAAmQAAmQAAmQAAmQAAmQAAmkjwAlbvpY0hIJkAAJkAAJkAAJkAAJkAAJkEBOCVDi5hQ/BycBEiABEiABEiABEiABEiABEkgfAUrc9LGkJRIgARIgARIgARIgARIgARIggZwSoMTNKX4OTgIkYAACqmoAJ3LnQpFPPzb4IodT5NOP/WzwLgmQAAmQgGEJUOIadmnoGAmQQJYIDI3KJp8imbM0nHGGwZRVn6JNn68oBPhsRAHDyyRAAiRQ+ARcLtfs2bPNZvPatWsLf7aBGXZ3d5eXl2PK+mvZsmUR537HHXfobdra2txud8RmubpIiZsr8hyXBEjAKAS8iqooRnEmy35g4ph+lgfNo+H4bOTRYtFVEiABEkgvga2BF2zee++9fr8/vcYNaA2qtaGhYWRkJNi3Bx98METkC+V/55136s0OHDhQWlpqqF8EUOIa8AGjSyRAAlkl4PIoXlnFJ3hWRzXAYJiyT1YxfQP4YlAX+GwYdGHoFgmQAAlknsDdd99dVlY2Y8YMiLeDBw9mfsBcjrBu3TrMFx6sWbNGDXpdeOGFuHjllVfqcdpXX31106ZNra2to6OjouHtt98e0iaXMwmMTYmb8yWgAyRAAjkm4PYpA6NycSYqY+KYfo4XwMDD89kw8OLQNRIgARLIIAGk7K5evfqss876xS9+0d/f//bbb2dwMAOYfv31171e75NPPokpB7uzcuVKqFzEaTds2IDrCOHed99948aNe+edd0pKSkRLhH/RZmhoqKOjwwBT0VygxDXIQtANEiCBnBGQFfXwUV/RxXBNJkwZE8f0c4be8APz2TD8EtFBEiABEsgIgTfffBMpu1BuixYtQiwXebnB201Fsq7Yg3rRRReJXali26q+gxcXQzayBt8SXYJ3sS5fvlzf3Rr85qmnntJnGNImJDcYntTU1CC5WmwhFkZSzx+GykW0Vkhfp9O5cePGvr6+yZMn615hXtDAGVmGZI1S4iZLjv1IgAQKhYCjrHxfn3fYq1iKKZKLuY54lf19Xky/UFYy/fPgs5F+prRIAiRAAvlA4IUXXkCs8rzzzquvr1+wYIEexgzxHRp41apV4iK2rf7lL3+ZO3cu8nj1K7pARSYwDOq3RAOYnThx4t69e+MiEfJ4yZIlwS0xVoiKRsD5lFNOCR7lggsuSMT+4sWL7Xb7NddcE62+VAwPkcaMEa+66qpg3RujfRZuUeJmATKHIAESMDSB0orKnmH/vh6vpZg+EW0W894eb/ewH9M39PLk1Dk+GznFz8FJgARIIDcEIEeRuIu4ZUtLCzy47LLL8D286BQE6vbt28WW1Oeffx5tEPJtamry+XwIe4orEMCiVBV2uopMYH2ja1dXF+LDehb05ZdfHrwJVmxwPf/883/605+K0SEjIZL37Nkjmn388ccQpdDVwWFetNTbIAo9a9Ys2H/kkUficpwzZ85tt92GZqK+lIgAQx7HqLMFSg6HAy0xR2Q4P/DAA3FHyVqDYvqBLmtQORAJkEBeEXDWNEiOkp2d7v4RGcIvr3xP0lmbZO53ybuOeCSHA9NP0koRdOOzUQSLzCmSAAmQQCgBsTEVEVqr1Yp78+fPhxaNWHTq2WefFVtSRRvIy4ceeii41+bNm4VKFOm+V199tT4Y4sM///nPQ8cO/BkJyUiNRkmnF198EdYQwn3ttddgHEnCeqQUohSloaBydRUtTN1///2iDZKKb7nlloj2I17EllqhivW7GNRms0HExs12Rvg3th6OOGLmLlLiZo4tLZMACeQHgerm4yrrJri8ysb9Luy9LPhYLiYoqyomO+KRK+saMf38WKdceMlnIxfUOSYJkAAJ5JKA0JPwALJNBDPFUTrhRaegORGzFb5CA0+fPr2ioqKxsTGu9/qm3OCjd/ReiI4uXbo0uKQTlOfOnTv1qLLe8uTAS1fRuC6Sq/UGU6ZMgQaO64/eQGy1DY4Si1vIiA5XudDYHo9HNMavA6CH//Ef/zHxsTLakhI3o3hpnARIIA8IWGyOplPPKLFJ2JgK4Wc2mQtY5UoSqkyZMc19vV5MGRPH9PNgkXLkIp+NHIHnsCRAAiSQMwLiUJyIw4cUnUpQ0ApTwbWmoIdDNuXqw6GS87x585DSDDcS3NqaoVLGuoIVKdPhedrBiB5//HFMasWKFcFFuSIyzM5FStzscE50lIiF1HgxhwSwcjkcPcbQiT5SbJcYgUln/tCvqHareeth9/p9I6gxbC3EjGVtUqoJE8Q0MVm/rGLiiREq3lZ8Nop37TlzEiCBoiSAQlOYNzaXBu+MFRm80YpOJcJJ1GQSLfWzZ4V61LtDBmM3L8a6+eabQw7viTHEmJR2RDvQ1eXl5dEyjW+44QbI1+BYcbgREcQOv56rK5S4uSLPcUmABAxEoPGU79SdeEap1WKVNJX77s7hwVHZYUU4t0C25mIimA4m9e4uTd9imphszYxZmLiBlsGQrvDZMOSy0CkSIAESyAgBcRwuNsFeccUVwQMggxeVn3AFW2qTGFiYhQVRiUrIVz0jWjeISCmiu2h2zz33BI8iBGT4ZmCcD4TXzJkzxe7fJBwTXYR9ZBp/9NFH4UZQkBlui1GEGA4+60i0F6nUqXsSPnpyVyhxk+OWqV7Bvy7ieyMQwEobwY1wHzL1CBarXbMkzV5ys88kodwU5B8ylv+ybXDzodFRr4Ir+IJEhNrNI70LV+Ew3Bb+YyKYDia1r8eDCeIiJnv63/0cEy/WNU903nw2EiXFdiRAAiSQ/wTEcbgXX3yxKCIVPCERzHz66acTOYMnIolgjQqtiC2+wenKISWmgi0IgY3NwDjwVh8dW3axRRYpzXpZrIiDJnJRL0wVfgpRyCj6EUq//OUvdct68Dl1TxLxNpE2WpUwvkiABEiABBpO+NaJP/7Z7lcel1UZ1QNRfWrdPhdqDjdV2xqrbFWlFofNbA8I4LxghbpZXln1+JSBUbljwNd+1Hd0VEaess2K/HeT3SJN/fHPxp8wOy/mknMn+WzkfAnoAAmQAAlkgQCk2n333YeKTTfeeGP4cELdoXzx22+/jQN+whvEuKL3Rf2n8Gbbtm0TQ+MWcqFLS0tD2iBvGUfyIFUYo4dY0E8VCjc7piuY0Y4dO7DZGIcG4RXugF4LGkWkoYTDm8HJ4HrRYxo97Y0pcdOOlAZJgATylcBpl//D0UNf9H3y1rBXRvzTYjINueXPO+Ttne5yh6XEaoY+hMRVDT8/qHBsLfb5VbdfHfagfLIW0YU+h+PQt+U2y7hvnYfJGn4eBnKQz4aBFoOukAAJkEBmCIi834ULF4rjcMMHwcmxOE8IOhNh3vC7sa8gw/miiy5CX70ZtvuiHjLk4u7du2McP6u3hwVEepcsWaJfwZ7exLfsxnYPd3Fo0K233gp/gmPLIScVoZmouozGweWg0+tJXFfjNjAjATJuo4w26O7u2bd/vyzLiqJgILw55eSTqqurMzpo4saPHDmya/cXFgt+1jVJkoQ3k9ra6uvrErfAlnlNAAGvnP8diQjQsI5F9DaPLvpcI2v+163dm970+FWoROE5/qMo2mcl/p/jT8yEUULOQs1q6coS/nvsBX2OHbn1s+bP/Yd7bc6yhI2xoUaAzwafg4gE+GkcEQsvkgAJkECuCOBjmVHcXMHnuCRAAkYkAOF37s8f/vSFh7f8+2/KbOZRP7StJhTzve4UorglVskrm6b++LpvXfZf8Os6I9I3tk98Noy9PvSOBEiABEiABI4RoMTlo0ACJEAC3yAA+Tfriv864ZTvbH/1yUMb3yu3W7yy4teyTHKd9DLGhQoEb5FZre28dfnk+pO/d+JFP2s85cwxmmHzrwnw2eDTQAIkQAIkQALGJ0CJa/w1oockQAI5IDDxlDPx1f7p2n0fvNG59eOR7kOqrORJqaljuKDIUQm6tL55wslnTDpzUdNpZ+WAYyEOyWejEFeVcyIBEiABEigcApS4hbOWnAkJkEDaCTR96yx8eUcGXd2dRzv2+r3ufDk5CLuGrfaS6sbJzvoJ9rLKtJOhQT4bfAZIgARIgARIwJgEKHGNuS70igRIwEAEIBHxVT1pmoF8oivGIMBnwxjrQC9IgARIgARI4GsCEmGQAAmQAAmQAAmQAAmQAAmQAAmQQGEQoMQtjHXkLEiABEiABEiABEiABEiABEiABEyUuHwISIAESIAESIAESIAESIAESIAECoQAJW6BLCSnQQIkQAIkQAIkQAIkQAIkQAIkQInLZ4AESIAESIAESIAESIAESIAESKBACFDiFshCchokQAIkQAIkQAIkQAIkQAIkQAKUuHwGSIAESIAESIAESIAESIAESIAECoQAJW6BLCSnQQIkQAIkQAIkQAIkQAIkQAIkQInLZ4AESIAESIAESIAESIAESIAESKBACFDiFshCchokQAIkQAIkQAIkQAIkQAIkQAJGlLhms9k4C2MoZ4yDhZ6QAAmQAAmQAAmQAAmQAAmQgAEJGFHijoyMGIeU2+02jjP0hARIgARIgARIgARIgARIgARIIAYBw0lcRE3bD3cMDQ3FcDprtwYHBzs7uxjIzRpwDkQCJEACJEACJEACJEACJEACqRCwptI5E30lSfJ4PJ9v39FQX19W5lRVNROjxLdpNg8PDXf39vh9frgUvz1bkAAJkAAJkAAJkAAJkAAJkAAJ5JqA4SQugEBS+v3+Q+3tuYajeUJ9m/NVoAMkUDwE7rjjjjvvvHPNmjVnnXVW8cyaMyUBEiABEiABEiCBNBIwaHwSucGW1F5CnaZmw8IU5TQ+ajRFAoVH4KKLLsKnhP5au3Zt4c2RM0qdwLp16xwOR/CjgvdPPfXUmCx3d3eXl5cvW7ZsTL3YmARIgARIgASKkIBBJW4qKyHLMoLAyHDGC2/wx1SssS8JkAAJhBMQogUfLz6fT3zadHV1LVq0iCo3nBWvCAJPPvmkeFTw/eOPP77++utramr27t1LPiRAAiRAAiRAAuklYMRE5aRnqP30oKhVVZX4ucFhd8COx+Pu7etH1SgEdRmSTRosO5IACQQTQDxt3rx5CxcufPnll63WY5+i9fX1w8PDBEUCiRCYM2fOoUOHJk+efO655+7cubOkpCSRXmxDAiRAAiRAAiSQCIHCieJC3prM5smTJ51y8snNTU319XX4am5uPuXkkya1tYGF1oAvEiABEkiZwKOPPoqzzW699VZd34abXL58uZ6YGh6sc7lcs2fP1huE56xiU66429bWFnJ0mUhYZXZ0OPP8uoLfiTzxxBMHDhx47rnndM+jPTZIiW9oaMBT9+CDD4ql15+ZaF3yiwa9JQESIAESIIE0EigciQsox02e3NQ0MSRai/htS0tzW1uroihpBEdTJEACxUkA6vS1115rbW09/fTToxGAIFm/fr2ewOz1ehGs05UqNCrkSlNTk0hyRoYzBG1wwurcuXNhH90haerq6qZPn673RYI0fnN33XXXCeO33347GjM7OtpCGPz6/Pnzy8rKVq1ahT01cDXGY7Ny5Uo8J2h88803i6W/+uqrY3cx+NzpHgmQAAmQAAlkjkCBSFzsiBtXXT1hwvhopCY2TqysrKTKjcaH10mABBIkANmJzNKZM2fGCOFCkDzwwAPCoB6s27Bhg7hy7bXX2u32hx56SFhAA4TykLOqO4BNm0LAOJ3OW265BXf1vnfffTcSpO+55x7RGJHkWbNm3XvvvUIjJTgFNjMIAUhW/P5i8+bNYvliPzYRfU6iS0Q7vEgCJEACJEAChUSgQCQufqtdV1cbY2GwFRcNKHFjIOItEiCBjBLYtWsX7CMIDMmKM4FaWlqiDTdt2jT91pQpU6CHRV+Ef1evXj116lRdXUMDI96ra6RoBnk9fwmIpR+T/0l0GZN9NiYBEiABEiABgxMoBIkLfWu1WeOW63CWliJpmTtyDf5E0j0SKGwCIggcLFMTny+SmZHbrO/GFHsykeaauAW2JAESIAESIAESIIGCJ1AIEheLZNb+Z467WiyqHBcRG5AACcQmEJJcGq2xXi8KHztLliyJ1iyJ6/puTLEnE9/3798f93d8SQzELpkmEJ70nsRjk0SXTM+L9kmABEiABEggtwQKQeLiJ0hsZHKPumOjHHV7sGWXKjc2Jd4lARKITUDkBg8NDXV0dERsKaolP/zww3v27BEq9Pnnnw9puXv37iR2z2K/rs1mizgoL+YjgTfffBMq98ILL0TmeSKPTcgck+iSj5ToMwmQAAmQAAmMlUDuJW66NGdPb2+syaum3t7etIyVFiOxXOU9EiABYxO47bbboEweeeSRiG6K0NxVV10VXEFKb4niUgsWLEAN5IMHD0bsHuOiCCCvWLEi5BihGF14y7AEIFDvu+8+bKW+4oor4GTsxybiLJLoEtEOL5IACZAACZBAgRHIvcTF1rLUmVosUn9/f09PVJV7uLPj6NEB7MVNfay0OJy6G7RAAiSQKwJz5sx55plnsCf2ggsu0IOx4rhanFYaIkRxzM/SpUuDXRUK+aabbhJ9RSwukYN/EEB+7LHHOjs7L730Un1c5KkuW7YsVyg4bnIE8FSMGzcOm6vfeecdkWQe97EJ/wVH3C7J+cZeJEACJEACJJDvBNIg+VJEMDg0iJ/VUg6Nahtxv/jyy66u7hB/VJMJ+YT79u3DECmOgu7Qt3A4xSmzOwmQQL4TuPzyy3FO6VtvvYXMYfHZgqNu33jjDRz2AyGKN0gbKS0txa1LLrkEaclQI/qUoZAPHTqk98WtG264ATWWE2ES0hf2kTKtH1CUiAW2yRWBa665Rjwq+H7GGWcgS7mvr08P9cd9bEIa4HcicbvkaqYclwRIgARIgARyS8Cc8wrD6zds3Ltv3/HHHedxuyFHU3mJM4Fq8aqpcTgcMDU6OooE5qNHj+J96iHc0pKSL/bsmdTW9u3TZ6fiJ/vmEQH8MJrzvyMRcRnWsYje8iIJkAAJFCoBfhoX6spyXiRAAnlKAB/L1py7Dv2wZes2/Da6cfx4GSJVUZJ2SYhY/F4c8RNxbmSgvpRJP0MyFcsWi6Wjs3PLlm1tra1J22FHEiABEiABEiABEiABEiABEiCBzBHIvcQtLS1BrPX9Dz6cdvzxE5saHXZEX5F1nGJA1+Tz+UHtq4OEUtnuqznj8Xiw/23nri88Xi8cztx60DIJkAAJkAAJkAAJkAAJkAAJkEDSBHIvcZsmTrRaLdiOu3nLlu07dzq13WuSmrLETZpISEect6uqimt0FOLWBkclc2NjY7qM0w4JkAAJkAAJkAAJkAAJkAAJkEAaCeRe4tbU1Jx6yqk7d+3C+QcQugODRizmhJRu6FutfOW0qXA4jQtAUyRAAiRAAiRAAiRAAiRAAiRAAukikHuJi5n8aPGi3sB5Px6PV1HkdM0tjXYkyWJ32Otqan+0+IfSV9nPabRPUyRAAiRAAiRAAiRAAiRAAiRAAqkTMEq12OHh4ffWvP/Zls8GBoeMVsAWIdzKyoqTTzrpvHPOLi8vTx06LeQRAcOWyjSsY3m0uHSVBEiABFInwE/j1BnSAgmQAAmkkQA+lo0iccWsUHfK6/WmcYbpMmWz27FJOF3WaCePCBjt74iOzrCO5dHi0lUSIAESSJ0AP41TZ0gLJEACJJBGAoaTuGmcG02RQFoIGPZnF8M6lhbsNEICJEAC+UKAn8b5slL0kwSMQ2Bv59E/rj/Y55ZsFilDXvlk5fjmmvkn1kyowmk1xfWixC2u9eZskyBg2J9dDOtYEpDZhQRIgATylwA/jfN37eg5CWSfwK5Dfc+/s+uV93eMmCrKahrVjBUhUhS1rbWhoUz93tTq+SeMa60pokNPKXGz/2BzxDwjYNifXQzrWJ4tMN0lARIggdQI8NM4NX7sTQLFQmDnwb7f/8f2V+zM8QAAIABJREFUVR/sHpUtit9ttTqckLiqkqH5Q+K2NNVUVVWYrA6bPHrW1OofnlzTWlsU+y7xsZyp4HiGVotmSYAESKAwCCxfvhwfwWvXrk16OnfccQcsPPXUU0lbYEcSIAESIAESIIFME/j8QO9tT733t//66vNr9rg8suJ1qbI/04MK+7Lf63MNumXT23s8/7xyz7+9c2hfjys7Q+d2FEMcGpRbBBydBEiABAxOoLu7e/Lkydddd90DDzxgcFfpHgmQAAmQAAmQgCCw/UDv71dve+WDL9yqTfXLquLJCRnF78OXbLG9u9f73u49Z0+tXnRy7aS6Qo7oUuLm5EnjoCRAAiSQKgFEcfFK1Qr7kwAJkAAJkAAJpJvAtn09v/uPbX/88MuAuFVUJfexU0X2eV0+KSB01+z+8nvHV/3w5LrJ9YUpdClx0/1E0x4JkAAJkAAJkAAJkAAJkEBREvh8f+/vVm999YMvPGaH6jOEuA1eB13ovrfP996uL86eVv3DU2on1zkLbK24F7fAFpTTIQESiE8Awc+2tja32y22s2JHa01Nzd69e0N6XnTRRVpRvsBLtNcbxLWABiE2426+FQ3EcMF94UZDQ8PIyMiDDz4o7or9txENxvZZmNXbhEwqPji2SIBAtHUUXV0u1+zZs796rL6xlTrGLWSql5eX671CtnBHW9Bo1xOYBJuQAAmQAAmMmQDE7T89uebiO1e99MFBtx9ZySOZK5g8Zue+2QFCF3t0ZVVas8/3z//+5WPvtBfYHl1K3BSfEHYnARLISwJDQ0OnnXYavquB1znnnAPhoatcoShkGf8C+HAX8rKurm7ixInBMji2hbFCgRpZv369cKarq8vr9Z577rkQ4bCzcuVKXCkrK7v55ptFg6uvvjrcfiI+9/f3T5ky5fzzz9cnNX36dDFKuEFeSYJAjHWENawRflvR1NQknissK34VIh6qGLfWrVvX3NyMndhi9W+//fa5c+fqKhcjbtq0aXR0FHdfeumln/zkJ36/VsUk2vUkJsUuJEACJEACsQnsONj3y6fXXPo/Xnvp/X1uv0nxGlfcBk8kENEd9KrSu3s9/+2Vvb955/D+Xu0HjwJ4UeIWwCJyCiRAAmMmALE3derUe+65R/R8/PHHoSofeeQR8cdrr73Wbrc/9NBDVqu2m8PpdL7xxhvBDXAxtoWxOgQdq5eSqq+vf+KJJw4cOLBhw4bE7STiM6w9+eSTQiFjUrfccstYR0ncn+JsGXsdQ9YICw3+KCQGVjFu3X333QsXLtSf1VtvvXXWrFn33nsvpCyE8erVqy+++OKSEu3Awzlz5kDl4qGNdr04F4WzJgESIIHMEdh5sPcXT79/8b++unzNvmPVkpUsVUtO16RERBfK/O297n9e9eVv1hze1zuaLuO5skOJmyvyHJcESCDHBCAVhIKFH4iRIp65YsUKhDSRLwrhcdZZZ7W0tOguQo0sWLBANNAvRrOQront2rUrQVOJ+zxt2jTdJiK6UPKJj5KgM2wWQkAQjrhGomWMW0Ks4tcx+rOK3020trZu3rwZElc8t08//XRImn2061waEiABEiCBdBHAObf//PT7f/uvr72gHwWUb+I2GAVKLmvHC/lMb3/h/m8r9/zm3fa8FrqUuOl6zmmHBEggjwkI2SAmgLTknTt3BosKfWJITu7o6Ig4z2ALERtk9GJyPmfUJRoPIRBjjWLcgnZFVrO+DVtsx121apUwjqfuscceQ3f8tiJ4/3a061wUEiABEiCB1Al0Hx35xVNrvnHObT6L22AgxyK6gXN0/2XlXpyj2zfiTZ1Y9i1Q4mafOUckARIggQgE9NpXkDFLliyJ0IKX8oFAJtZR34YttuPi+/79+/XkZI/Hgw26YqP1smXLBCQkLUe8ng8I6SMJkAAJGJfAwLDrP//62RfXIi1ZUbwutVDEbTDxYxFdCN298j89t23Q5TPuekTxjBI3ChheJgESKCYCIlN05syZejro7t27RdmeYAwVFRWNjY0RwYRbiNgs4kVRSvfhhx/es2eP0DDPP/98xJaxL47V59jWeHesBBJZx4hrJAaKeAs7dW02W1xPoKvx5Fx44YUhScvRrsc1yAYkQAIkQALhBBRF/cf/9eL6HYdkz3BBitvgKWvFqIb7Nrd7//uKzxVVDadh5CuUuEZeHfpGAiSQQQKoDKRb3xp4ieRkse0WFWsPHjyoNwip3yOuR7OAuzNmzEBUrb29XbSE+LnvvvuiTUbkqV511VWi8lC0ZjGuJ+5zDCO8lSKB2OsYcY3EiDFuBe8Sj+sefkcTsU206xEb8yIJkAAJkEA0Ar966rU/vf+54vNEa1B41yHmV28f+p9/3JlfU6PEza/1orckQAJpI4D9jSKrE/rz+uuvh5a48cYbhfXbbrsNcuWmm24SgVw0WLRoUW1t7V133RU8fAwL8+fPh0FR9hZdrrzySpzsEs31EBmDQ2KWLl0a3DgRnZOgz9F84PXUCcRdx/A1wlFV4vifaLfErtrOzs5LL71UTytAbFY8unhUUD9MHPuE38Lcf//9okxatOupz5EWSIAESKBoCTz9ynv/tnKN4sfe1DwLaaayZEgRkn2jv3v/yHNr9qdiJ8t9KXGzDJzDkQAJGIXAmjVrkBiMja9QJj09PYcPH9aDqNjHKGKwyBEVDXBKrb77UZ9ADAuIy7311lt/+ctfhAUcRfvxxx+jfHHEyYtDiXp7e0tLSzHcJZdcgpxVeKU3Dmmgn4kabC1BnyM6wItpIRB3HbFGhw4dwoOhP1c33HADRClGT/wWnhCUPRNHTKHXFVdcIR4bnLg7b968l19+Gcn20a6nZZo0QgIkQAJFSGD1R1vveOI1k6poX0X2UhVZVZT//897127vzpepmyHN88VX+kkC2SeAnyaN+XfEsI5lf42SGBFBsDvvvBMCVaiLnFhIYlB2IQESMCABfhobcFHoEgmkl8CW3Qev/Jff9g2OIqAJiWu2ltiqJ5vMlqTDuaqq2BxlzppGvEmvq7o1bBtuaaopL3PgTXJD4MNNlpUD7b0er18ymyRbaVWJ9L+vmXlSS2VyBrPWC54zips12hyIBEiABEiABEiABEiABEggnwgc7h74+3v/0D/k0fRt8b7Mim90wGv+xXNbOwfcxsdAiWv8NaKHJEACJEACJEACJEACJEAC2SYw5HL/w73P7Os8qviLqMRUFMpmxTNyYED9pz98Nuz2R2ljlMuUuEZZCfpBAiRAAiRAAiRAAiRAAiRgHAK/eGTFuh2HM1NC2WxCOq0Z3zP1hXzdtJNEgeXNh/2/enm7wbe6GnSfYdrXgwZJIDkCht1kZVjHkuPMXiRAAiSQpwT4aZynC0e3SSAugbuf/uOjL69RUUI5WM+lvhfXLKHOi81eUjquIXMFXxRZaWttqKqqQDV+rV7U2CXpN/fiBqlls2SxO6+ZW3/jD6fFZZiTBvDcmpOBOSgJkAAJkAAJkAAJkAAJkAAJGJPAs3/+4NEV70IcfkPfJu9rIFSLl6qovlHVN+IZcnn7didvL15PjLO3t7JmQnNlbaOzcpzFijMdMBto3ZQLXKG8sm/0iXcOT6gpvfiMlniO5OY+JW5uuHNUEiABEiABEiABEiABEiABAxJ4e/3nd/wmLUcEBbKRcY6uKkPZKt4RxTei+tz4Iy6OPbA6NlT9rv7+jn02R6mzqqaqrrG6obmsuhbR40B4FqHd5LWupvwly72v7plQWXLWCfVjcysrrZmonBXMHCRvCRg2A82wjuXtUtNxEiABEkiGAD+Nk6HGPiRgYAKf7zmMI4K6+0dU2RvBzUQSlfUzaxS/4nMFZO2IioJVmrIV4dz075KN4GrgEqSsAoEtK1ZHSWlZZXV9U2V9Y2XNeHtpGQLL2l1Z09vh3aMmKh9rqkp2Z61TO0Zo+sSK8O45vALPjVJuCsdUwpunnnoqhzgSHFq4unbt2mjtQ+ayfPlyTC1G+2h2eJ0ESIAESIAESIAESIAESCBrBLqPDt3462e6B1yR9W0sP0T5KAvCtqrsUdxH/YOHfP17/AMHFFc3QriajMRRupr4yp6+hb9mSbJYbFa7A6HXkYHeg7s+3f7RX7e899rOdW927dvpHh7AbYvNLlmsECyx5hd6z6x4R/tGzf/07Ge9Q5F+FxDaPqt/HoPEXbduncPhwOSXLVsW4iNEXU1Nzd69exPxvbu7u7y8PNxIIn3ZhgRIgARIgARIgARIgARIgAQyQWDn/s5dB7tUf+JH4H6lbJF47B+VR3v8A/v9R/f6Bw8q7n5o3UDB5Bwo23A4CG1Cx1qhZs2Sa6j/yL4dO9b9x5Y1r33+wRuHd29xDfQikmu1OSzQulKiChGbcr884vqycyh8uNxeSWYv7tNPP33jjTdOnjw5ja5DJOOVRoM5NFVIc8khRg5NAiRAAiRAAiRAAiRAAtkkYIEMlEz++NtUxSZbhGb9qs+j+IZUr0vxu02KODD2q7vZdD3xsSB2LVaTRevgGR1xDw/2Ht6LPbrlNfWVtRPGNTQ7K2tsjhLcRWmsuFYlkyJJYwr/xjWZhgZjlrhXXXXVs88+e9NNN7388stW65i7p8FlmiABEiABEiABEiABEiABEiCBXBFQ/UjTVb3D2j5bKFt9k61hNoEmCAaKHoWj0Fj2+/o7D+CrfeenzqraqjpN65ZU1gQSmKH4I2zWTXCInDRLNAytO3fWWWfddtttr7322kcffRTDY7EBFVnNeAXnMF900UUNDQ0jIyMPPviguCv23wZvWEWb8LTn4Isi1Vl0x/cY21xhVpgS+2PRuK2tze12w/PwK8HTwXC6fb1LyHx1CyHext18m7j/MQjzFgmQAAmQAAmQAAmQAAmQQFYJaCWa/D5kIw/sl11dqs+Vq0226Z11IIvZji9FVQd7Ow/s+GTrB3/e+t6rg+3bMUGzlGdxzTFLXNC84YYbysrKrrzySqEVw/lCH65fvx6VsPHq6uryer3nnnuuaLxy5UpcQfebb75ZNLj66qtDLFx22WX9/f1vv/22fh2acPXq1VDXLS0t2BLc3Nx83XXXie6333773LlzY6hcmJoyZUpra6twpre3d/r06YsWLRoaGsIViO26ujpc0eci9Kcsyz6fT28wceLEkJ3GGFRYQJtzzjln9uzZCW5FHqv/4Xh5hQRIgARIgARIgARIgARIIBcEzNrZtn4UWEq6fBTOEFKgkxW/V5Ez9YVyWbLPI/v9gYNwxxCDRZDPYrVhyy4qVY0ODwy2bxnat052D5ottmNH++YC+ljHTEbi1tfXP/HEEwcOHHjuuecijgcd+8ADD4hbeuMNGzZEbBx+cf78+dDAq1at8vtFOrsJ6hGC88ILL0Rq9N13371w4cJ77rlHdLz11ltnzZp177336o3DDUJOCyENZ37+85/D85NOOkl46HQ6b7nlFlzR3bv22mvtdvtDDz0k0rDR4I033oBKf+SRR4Itn3/++boPjz/+eHiDcDfElST8j2aK10mABEiABEiABEiABEiABLJNQCs+PJYNqDgDF1IT+cz4bpbMtlJb+Xhnw/HOuuMy9FVSd1xd6wzkG0sWG44Fkn1eGYoa59kmLHehdRHYlSx272Dn0b0fuvsOQPwmXokq2yvyzfGSDDpfcMEFEJaQi+edd16Cdad27dqFMGwisxVC9OGHHz548KAw/vrrr0+YMOGKK64Q4VyEcPVtwJCgiNBu2rQJEjfa3mBElfVxZ8yYgffBV8Qt4Z7L5YLcFeFivQv8WbBgwYoVK+66666SEm3vNV6Q1vpwEOSIA4c00LsHv0nO/4imeJEESIAESIAESIAESIAESMCgBI6FTzUxjMCoyeKQLCVmW4nZWgqVa3dWl9U141TaDDmPPNPWpnEOq+J2jQwf7Rnp7xke6EFlKdSX0uK6KnKPUVnZAh0b1wHEb7HxeOjAJv9Ir3PCDMlWqsrxy1DFNZvRBslEceEQhOVjjz2GLN+Q2Ga6fF28eDGMi1xlyE5s/b344oshL0U4V9/HK7bLIt6brnEx6M6dO6dOnRqulpGW3NHREXEgIbMj3gq5mGn/E/GBbUiABEiABEiABEiABEiABNJM4FioNhCtxf5Vq0NyVFnKGqzVbdaqybaqNkvFRKlknNlagmOEcEotEpWRTpyhLxhHBSkceIvyyOPbph932tyTvrf45Lnnn/jdRZNO+nZt85TSynFQtwjtopmWzxxTbAsx7OrZM7j3I99wj/GTlpOM4uKBmDNnDoQo1GZ4RBR3UYrpzjvvTPq5OTnw2rZtGyxsDbyQOaxbQ+Kxngid9BA57Jjv/ucQHYcmARIgARIgARIgARIgAaMQgKzVUn/xZTZJOFHWBgWLLwnfLQ4T9q/qL00AQ/qK1xg2x6YyUwhXRTk2FkKDpRVVzsrq2qbJiOK6XUOe4cGRwb6h/i7XQJ9ndNg76tKmoSUoS/h/aIBXy1u2+Vz9A3s/LBs/o6RuMv6cim8Z7Zu8xIVb2IOKKlDYB3vqqafqXiLoilJMCFfu2bNHpBmjwvCSJUvGNA3ERbHZFQfwIjdYZCmffvrpsACDNlvQszImowk33r17d3jac0VFRWNjY0QbIr155syZ4bHfkPbZ8T+ik7xIAiRAAiRAAiRAAiRAAiSQBgLHkpAlE87UkWySzYn0Y4RtzRY7IrRf2Q/svzXMS6vUKx+rcwSnHCVlJc6KqoYmyHO/z+MeHhgZ6kdK81Bflxfq1+2SfX5oXcmCZOav03610sqKPNy+xTfSV9Z4otVZncghwtlnkGSisnBUbJpFFnFw9WOR64vjc4W+TXpKCBF3dna+++67epYyTOm7XqMVc056OH1G2HaL+szYBqybEhtoRaa0fhEltfT3Is4cMb05xJ9M+5/i9NmdBEiABEiABEiABJImIM5TjHHOhWggDozEKHHPWUzakxQ7hjgW4naKxkO6Z9R4yFg418PhcOj80zuRwrCGUKtfRqlkKWb1YLPkqLSUTbBWtdqQgVw92VLeGMhALjWZpEBZKfGVpVBtcuRReiqQouxDKSqUlSqvqZ8wacaUU7936tnnI5/5hDN+MOnkM2onTtaOEcLO22CtjgCvxeI5emhg70fegQ5Vk/QpKcrk/I/dK1WHREHjDz74QB8mRMXh79LSpUuDnUhQ5olc5d/97nfYHKvnQos9wJC+l156qV5CGR8Ny5Ytiz3PxO/i1F+o9JtuuknYR4QWJwzV1tYinqwbGTduHGLLYlA0uP766zGpG2+8Me4oWfA/rg9sQAIkQAIkQAIkUOQEhNRBIiIKiEY7kwI/faFBTU1NgsciFjnSRKYvTqZM40+tiQyadJv88jbpaYZ0RMngUrsNik7Lwg2KXn7dDLcsNmtFk6VsPLbamq04XAd5yl9VS064XnG6HE6LHRSgwnZcvw8nGGl1pJDPXN9yHCTu9DMW1E4/21EzSds8rAldXbSbzTaH4hsd3LdO6d1plgwn5lOVuOLQnWC44pQdHD9bWlqKT8ZLLrkEeb9QgHqbkAbRftUncpVxLhHkpchSFhawB/jQoUNvvfUWMpZFuSkUgkrj1lzYx1G67e3twj48x6G++/fv12spww0kLX/yySfIxIYDaNDT03P48OEEo9aZ9j8tDzqNkAAJkAAJkAAJFDAB/AyD8w4xQeTKffTRR+EzhQbGb/PDr6d4BWEJJEuKoxxTNJXN7hl1O6PGs0mpMMY6dVrzv9//X35358/u+y8Xzz6hFdtro87rmKw1nLqL6nBiN/A3NBDf1Q4Zgqa1llRUtJxWddx3HeOaYSCQ6qwCy+wZrff/18v/zx1X/+HWH544sTwx29lrFX3ZwnyANvN4PGGXTZcHXsHXkcA8PDwcfCXkj+ENwo2gO/7O4xU+Ynj38DbiSrjZRK5AXW/cuDGaTd2r4Fzl4MYhQ4SPmLj/0XzgdRIgARIgARIgARJIkcCvfvUrJKnh55nwYx3vvvtunNeIn2F++9vfpjgKu5NAHhEoddhmTmsRDm/f27Fp12EjbafNNkht+64iq4rf5qyxtZ7uHe4d7fkSx+SaJeVbU1uXLPxOth1KeLxUo7gJD8SGJEACJEACJEACJEACBiIwfvx4lCBBdc+QVGS9Cgky8sLdFQnMIpOura0tYnkUxANEg5A857ibb0VyrOiL79Fy/eCVMBVxFIwuHIvmRtwGIbMOdxv71GbPnq37Gby7NZpj4NbQ0IDdcPrhl6JXuHGMHgMynBdU9TbRVgF2gnlGTJAeq7exyYc/LXl9xS/rBZDzeh5pcB4qF2rXXllfNenblZPm2MvrkNacBrsZM0GJmzG0NEwCJEACJEACJEACxiZw2WWXYX9WcN1Q+Pvoo4/a7fbwIiNCL8moTuPz4eddqLW6urqJEyeGKGScrIFNZFr8R1XPOeccSMEEd/MiO7q5ufm6664TfW+//XaYiqhyoe7Wr18vmnV1dSHpGtvKgsU2HDjttNNiuBG3QYx1AweI1aamJsEBDkB2ijnGcAzRcrTEBjccHik8j5iwnQhkLNmUKVNw+Ii+CtOnTw//XQNMYRvdvHnzhJ/ITj/jjDNEgrqYXRLexugSg1g+3vrrh1vf/3Q3qgfno/OZ8VkryIy0bEd1U0Xr6eu7K17f1KF8vTs3M2Mma5USN1ly7EcCJEACJEACJEACeU4A5aZmzZp155136gIJ8Uls0EXqckvLsXRNfYrXXnstpO9DDz0kTkkU1VUgmR555JFgDJBe99xzj7iCAybDG0RjhuzohQsX6n1FTVMcThleEAtyUa/Dgv1fTzzxxIEDBzZs2KBbhgjEURcx3IjbIJqTuB7CAQ5gdFGTJa5jMcyKWwlCfvLJJ4VCFmVxQqYf0RR8u/DCC4MdSMLbJLrEnbKhGuAU2Y+2fPmzf3366v/+1JftvUjTNZR7uXcGv1YJlKTq9pbd9sL2ax//5N3Pu/2ygc5GEogocXP/qNADEiABEiABEiABEsgJAVHdM1ggvfrqq5s2bYK8FDpW9wrSF81CpC/UHVKdV6xYERxCDO6b4DkaGEVkRwcfwQjfWltbN2/eHC5xI7LatWtX8PW4bsRtEHGUiBwittQvhjgWo3FE4xEhT5s2TbeDiC5+9RAySkRTODcELWM4gFuJe5vEBGMPbYS72748fMUvH/vL+l1apF35+hRZI/hmIB/AxudWZXnjQff/938+2d4+aCDfAq5Q4hptRegPCZAACZAACZAACWSPwA033AAhqgdLX3jhBQjL4MMshCtIS8Y5jsESVHcRSb8dHR0RPRYyNeKtkItI9EU+rb5PVWxzXbVqVSJ947aJ60bcBvoQMTjEdSNugxjGY0COaDaGqYjteVEQGHC5PF6/4vcEHZBDNlEIqIricSmyMuplFDcKIl4mARIgARIgARIgARLIPgERJMSW14MHD4qzgrAJNvisxGy6pO9TFbtV8T3k4EbdGb2UFMTwkiVLsulk7LEM5RhO7owdA0/C2yS6xCZmqLsWSbJazIZyyeDO4C+gZDxgjOIa/LGheyRAAiRAAiRAAiSQWQJ60SnshkVE97zzzos2XkTJVFFR0djYGLGLSJedOXNmSNpzeGPsZbXZbOHXw6+IasYPP/ww6icJJfz888+HNwu+EteNuA1C7EfkkIRjEd2OaDwG5IhGRIp4xFviYhLeJtElhgO8RQKZI0CJmzm2tEwCJEACJEACJEACeUBAFJ265pprkBh81VVXicpJIX4HB3v1W/rxQsFRX1Qk0htsDbwipjeH2E98165IwY3mp242rhtxG0RcuYgcRMsEHYtoVlyMaDwi5BhGxC2Rei2C83pj/ApDr6ichLdJdInrJxuQQCYIUOJmgiptkgAJkAAJkAAJkEDeEBBFp4S7OBUmmt8oVgSRc9NNN4ncV8T0Fi1aVFtbe9ddd+ldxo0b9/rrr4sjWNHg+uuvh3YNP38ofAj48Nhjj3V2dl566aV6bi1yYsNPcw0Rw0iuXrp0abhBbOuN7UbcBuE2xZVwDjgYCWIyrmOJyPhw4+GQozkWcl2Y0utdY2WRi66Xm0rC27hdEnSMzUgg0wQocTNNmPZJgARIgARIgARIwOgERNEpnPfzne98J5qvc+bMwVk77e3tyCjGBjwIHpxGG7JXFvm0n3zyCVKIRYOenp7Dhw9HDAuHjwL7hw4deuutt4R9WECNJf1wIL09xPAbb7zR29tbWlqKNpdccgkye+FMiME1a9bEdiNug3APxZUQPzE06KHWdFzHQhpEPPI3EcjRHAu5DlOYIySuqN2Fxf3zn/+sZ4Mn4W3cLgk6xmYkkGkCZuxhyPQYtE8C+UsA/yoY8++IYR3L37Wm5yRAAiSQBAF+GicBLdNdEPvFSb9Qd5CdEceK2yBiL14sBgIfbvny8n96xK+YTWqUKsGqYraW2Konm8wWkylJGYUzd2yOMmdNI95kiCoO+G1pqikvc+BNckPgw02WlQPtvSgxLZkjV5QySxazKj9x/bdPP64muVEy0QueWzNhlzZJgARIgARIgARIgARIgARIgASiE4BujCwdo3cZy51A+D5pHT6WkQzXlhLXcEtCh0iABEiABEiABEiABEiABAxMIEidfq1SI+rVry7qN7UUWtVklkyaAM3UplGzWdFO80GY1WqRLBYMqAVzv8reDaQoHovu6umKQXmLWmutN2LMmkiOOC8DL47JRIlr6OWhcyRAAiRAAiRAAiRAAiRAAlkjEMgdFrouRoqvYlLRJiAUdd2o+APvkeQsq6oceINmeKO91GN3tXe4q4xY5ZEOvW/aZwc/9vfZrVbIW5vFZsdAZryzlwTiuiabo0SSLNC0uGS1O+CRZJFs9lIhZnFLk9+yWctx1iakKWWzJB0TxmK+QhCbJdWUqVzrVJgYdJ9hyJSWL1+uH+qNSn0bN27U6xZgN8XTTz+9c+fOX//619h3gY5jbYAuKDGHKvl409raClO5Ou48lYV/Px1yAAAgAElEQVRk3wwRwF9q7sXNEFuaJQESIIECIGDYfyYKgC2nQALZJ7B28+7Lf/Ebk2TV1KniV5Vw/Yb4psVsdRzbrIsfE5VjItaki72vSx0FCeCg+keQmYEwarjxdM4Yu3A1ja79IBuIympKFUFjTeJC0AY+u0ySpEV6AzIW77G7WHvZHKWaADapktXmh9A1QRw7zBa72WKTrHZJvLGVStpFm+r3/fbab82ZWptO11OzhanlQRQX+nPKlClCZuBkMIhblO8LFqKotnfaaactXrxYtEF7lG4PlsGxG6D9pk2bRkdHoWxRd/4nP/kJDhCPe0B5auTZmwRIgARIgARIgARIgARIwFgEJjfW/WLpIp+sWCXp9Q8++3R3u+lrBStc1WKzqnckyO+v8ngj5POaA4m+2iukYFPgj8ckZYYQID057KVpXrw01Rt4q2B2iDMHAtKyySfuet0uveNXc4LMUqGQzSiyhYiuxfat6a3/6czTFIR+HTUttaV6e4O8yQOJG3wwN07EfuKJJxDR3bBhg14lD/Xr8f6ee+4RTB9//HHIYFRI16vMx2ggTtO+7rrrROQW1dVfeuklg6wN3SABEiABEiABEjA+AUQMjO8kPSQBEgghEDFNr6lh3N9f+n3RsrNvcPOXnUFB2iAD2Embl69wvQ0RHphJ0MdYxB3Cx+5DGUMVS5bTjht//UXfNSyDPF0e065du4KZ3nrrrXrcNeKx2tEaiMZIdd67d69hF4mOkQAJkAAJkAAJkAAJkAAJZJOA1+fP5nD5MRZ+oxf48vozm2WdIo08iOKOdYY4lhpbanHUeLSOwQ3w/rHHHps7dy5yoUM28UbrzuskQAIkQAIkQAIkoBOIGAsiHxIgARIggVwRyI8oLmpKaTukAy+97lS6kCE52ePx3H777chnhtBdtmxZuizTDgmQAAmQAAmQAAmQAAmQQD4SsNsKMBaY6kKIXbyqarcaWkUafeVcLhdCrMgi3rNnj6iiHFxdOeIiocuBAwdmzpwZrWRUxAZQ0Xih9BSSlm+88Ua9YnPEIXiRBEiABIqHgOoeMg11Kb0HVJ87tFyGYSmgKoatRKptNVU0mEsqDOsmHSMBEiABEjAUgfau/lfe2SjKTW3asS/yRlx4/I1iyN/Yxho2HePs1dfqKmsnGR2rORXwNOgPuI0U5EBail6VSkWBKfHHoHJTONFX+mR3x2Mvvy+jwrLdcf53pjXWOMMmnssLRpe4IyMjKJ6MclCxNSdKUunVp7YGXqi6HCxx4zYQiwBh/O677+ZyQTg2CZAACRiGgLLnQ//Od5R9G0xDHRZVkUL+XTSMn+GO4F9knObnQzmQikZp0unW6edKU84Mb8YrJEACJEACJBBMYG9Hz6+eeUM/NAgVh8P4aIcGSfbygPoNSEGcgqu9F1L2q/ZfS8cI5wbhH6mAkAw3HjZaChdwZpB2BO9XelWcdos/aQcFBQ65RXqsZAmIQXFiUOCkTCtOyrXZ8QbtrfYSt8eH3xlDyQYODbIGDg2y4f1+1fFvH7nNklWRh2ZObaHEHdtC6bWj7rrrLnGoz9KlS8NNPPjgg7iIEsqI0F5//fXohUhscLNoDXBK0N/93d999tlnMI7qyvfff/+8efNaWlrCh+AVEiABEigeAvK+DeYNz8lffmB3WFSf4lXwDziOEwj+xa/xYeDfbsU+fNi884++z175v+3dCZhU5Z3v8Vq7emHpZtFulM2ANIiDuIxsBjBxpM0YIdcRMYsQ50K8cS6YTFzuzQwyj4poJsLcZFjmmRAnzzxCrjeijtBekyBXA5hxRJ6QRIUIalAmEFl7r6pzf6dOd1HdVd1d1V3LOae+FYaRc97znvf9vNXV51/v5vnUDOPqO/xjrrZ/uSkhAggggEChBPyK/6KRiL4lNePPVL/1FBn6A4GBF6kns6MLtKPb0wwpO/bINcL6R6zPNOoxtGyVGdQa0fb1q/QfZnAZKuvco5rNSqtM5WXBUCikLW2tfEtKy8wtcA1D+/z4O4LYYKg0dlYjn8oU+JoduQp/FQBr71yvL+rxfnD0j61tUYW7+p2qa00TU8WM22ObBkf0lbI22c1m0bORl917cbUcVH19vbpwy8rMDZe0jtTBgwcnTZrUpe6vvvqq4lvRW2k++ugjaxOgeLLuEmgi7h133GFlrsQ333zzT37yk+5GOGcDnDwQQAABWwvo13P4tX+K7vmXUIm3zfA0Njp3PUnz13CT2Zlr/vYNfvh6y+/2GtO/4p/1X/VgYes2oHAIIIAAAoUTMPcD0u+OlPFtp1JpvG7nGFgH/CXxJCmGL3cc0q/aYKiifEhN7kLcSDQ66uKhgwYqgGqfNNseoJqFTtGxbIas8SrHqmXGtBEzYlcoa3YHp2wRRcSdxj2nTFSAg3YPcUWivXDPnTuXaNPln9apxO1zU0J2l8CahZvyEg4igAACRSVgtDS2vfh3JR+8GvZEG5o0J8clL30f39AUDvm9gTd/1HriSPDP/9ZbYq9ZQy6BphoIIIBAEQkkhcFW92YPAvEw0eza1R+zJ7SH5P06Fcs8Eg5HU4y1TjPjWLdt+9Rchz0R2HotrDT5SYYAAgggkAWBaLj13/6u5MNXm5vCrRH3xLeWjH45q1KqmirY8vxKT8dosSy4kQUCCCCAAAJ9EbCC5Jz93R6d9qVkTr+GENfpLUj5EUAAgewItP6/fwp98GpzY7ib0UjZuUthc1HVVMHSD3ersoUtCXdHAAEEEEAAgRwJEOLmCJZsEUAAAScJRI/+SutLqffWxfGt1R6qoKqpykZ/v99JLURZEUAAAQQQQCA9AceHuJpJq2Hi8R2Dkmvda4LkSziCAAIIFJeAEW3d+Y9BX7RF6yYXwUvVVGVbf/79XG/YUASWVBEBBBBAAAHbCTg+xLWdKAVCAAEEnCYQff+NwEdvtahv02kl71t5VU1V1n/sV6p433LgKgQQQAABBBCwrQAhrm2bhoIhgAACeRJoe/vngaDP/WOUEzhV2WDQp4rniZjbIIAAAggggEC+BAhx8yXNfRBAAAF7CoRbo0feMCI527fAnrXWRn/aNPDIG5qYa9cCUi4EEEAAgXwL6DdDuDjm7GRL1tybyH6TnAhxs9W+5IMAAgg4UiB64kj0zPEi/I2uKqviqr4jm41CI4AAAgjkQGBweXlFWcgXCHm8RTJ3px+IXp8vVO7ze8tKbBdR2q5A/WDmUgQQQACBjAWMc8cDkRYbfgWbcU0yvEBVVsVV/QyvIzkCCCCAgGsFLvvUiH99+O4br7nUq5cv4Np69rNisgmWev3+qy4Off+uqydeNKif+WX9clou66RkiAACCDhJwGg5VxL0NbdFnFTobJQ1ahilQX+k5Vw2MiMPBBBAAAE3CPh83msuG3PNZUv+754Dj/zghd8dPWFEi+73Y48N6fX6A5rqM7yk4d75U+dNrfbZsrubXtweG5GTCCCAgOsFWhu8Aa9hv4k0uYZXlVVxT2tDrm9E/ggggAACjhP4s+mTZ14x3uPzO67kOSuw2a2tvu2WU0fPvP/GNcPP3nRljT3jWwnQi5uztwEZI4AAAs4QKPLpRkVefWe8RyklAgggkH+BgJ/4tl3dGrPddu5404n3Ws4cU0duIDAh/y2S/h0JcdO3IiUCCCCAAAIIIIAAAgi4VqCxufX9j0+cOHXuPz85/da77xvRottuoFPTmhOS/V6/p63pZPPx91pOf2RE2mLhru+tgx8887N/v7Bq0LDKiktG1oSC9vo6gBDXtT+iVAwBBBBAAAEEEEAAAQTSF/jVwaNf+pt/bGo1I1tD/+s2xPV6FPkpgSfqcdlUH0W1+p/fr0HI0da2SMvZcx8dajt1NBpuNgcq+4MmZjT85tsf/Mdvjiht1YhPPfU/F115yZD0kfOQkhA3D8jcAgEEEEAAAQQQQAABBOwuoO3kGpvbPOqoNCKpY1evTz2Z4bNHvcEyrz/kDZRqceHYDkP6o6BYQa/zFreILR/t9/l80aiWYoy2NJ5rOPtJ4+lPzp06cer4R+GWRp/ZlxsLbttfRrStxR8aOODiP/ENvCBq2G51J0Jcu/+kUT4EEEAAAQQQQAABBBDIg4Bi1YDfG1bnbU99s4oCT3taTnm8Po8v6PWX+AJlZqwbCOm/Y7271suKePNQ6r7cwoxafe2haaSttfHMycazp86d/IPC2uaGs63NjTqoBD5153YKbhXCRzV+u2RwzYARkwPlQzyRZrMr22YvQlybNQjFQQABBBBAAAEEEEAAATsLKLg1X4Yn0mZEWiOtZ81e3Ng4Xq+/1Gd28Grb2BJPYnBY6A5eq6tWf5t9zoahrtrmhjMNZz45+8kfGs98on8qrDUMw0xmDlX2BUpCyS1gRMPqta6oqS27YJySqe723JKBEDe57TiCAAIIIIAAAggggAACCPQsoHBRCTpW5o9qmHPYaGuKNn+ivlyFuOYfhbvq4/XpvzWe2Zq+q9A4T4OZzW7YWMyqcDTc1tJ89nTTuVONp0+cPXWi6ewp9dZGwq1W+c3u2kDiUOSkimsEczQcLK9S523JAA1ODmvHYA1vTkpniwOEuLZoBgqBAAIIIIAAAggggAACDhZon5Fr1cAwws1GuMnTckYxpHbZ8fhDPs3djUW8GuFszn0NlGjua47q6/MZGmCswcbNDefOnf7juU/+0HDmZPO50y1NDYpVFWMr+lUZ/IGSdAqgaFbJyoaOqaiZpD7qaKQtnasKmIYQt4D43BoBBBBAAAEEEEAAAQTcJxAbD9zxMiJhDWmOeM56msylmNW7azT/MdL4n7nrzlU38ZHj/nDz2YbTn0TCbYqlY1256qzVEOvMul61vJavpLyiurZ0yGizA9r28a3UCXHd9xNFjRBAAAEEEEAAAQQQQCBnAhppnDhEudf7dOrg1SDfpra2htYzx+JjnHvNINMEKl2jeogV1Gq9KMW16kbO8KV5ubHO22hoUE3FiMsCZZUahp27mDzD0vWSPOPa9pIfpxFAAAEEEEAAAQQQQAABdwoouFU3rN/szNTGQgpSO4Wv6dTZvCS2pFM6ifuexp9ZZ237jWKBbVh/+wOBsoGVwUEjSoZcojHPjui8jWMR4vb9fcOVCCCAAAIIIIAAAgggUEQCmsWqdZkGj9LaS0br2Whrg+bc9jXWtRGb1pJSZKuAXbNzBw+rGTS0uqr64tIBVR+faGpubjX7bx31IsR1VHNRWAQQQAABBBBAAAEEECisgDfgC5Z6ggP85WEj3BJtO2e0Nka1uFR7KNhpIm5hS9rz3RXXGpGIepVLQmUDLhgxaNiIyuEjygcPDcZ2DGpra4tGzqpbV53OPedjt7OEuHZrEcqDAAIIIIAAAggggAACBRCIKOZLa5Fjw6N1ibUvrsfnDZb7gxWeMsWKrUZbY7T1rLmWckSb8eisYt0cD0fuA5K5/Y/2N4oqsi0tHziganjVBRcPHFZdPrBSXbgaphxVp21bq8JaM01vr6jHF43maQ+k3spy/jwhbvpWpEQAAQQQQAABBBBAAAHXCkwYXTPxkprffvBHo60lvUoq1m0P8LyBUm0I5CsbYkRazN1xFeu2NcViXXPdp8yn7KZ3/7RTKbA1RyNHo1p8qnxg1YAhF1RdePHAqgtKBwzWolQ6Zc7BTbfW7Xf1lZSNH+odVzMw7VLkKSEhbp6guQ0CCCCAAAIIIIAAAgjYWWB45YB13/zSF//2n46f1O44ik4zeZn9uuZLewJ5tQtuaaUn2hZVrNvWaGgkc7ilIFN2Y2Gt2WcbDJWWDhxSdcFFg4bXDBxyQUlphaLu9im45q63mb4MX0nF0LLo6juuHDIgrc11M71Bf9IT4vZHj2sRQAABBBBAAAEEEEDAPQKTLhnx3eV/sfSRHzUZgT4us2T268a6djVlNzTYFxqk4Nbs121r0B+jzVyeSksWt6fJmZw15DpYWjZo8IWDh100ePiIAVXDAsGQRiBHImH12Pbnzt5AqMQXXXXrZZ+qruhPPjm6lhA3R7BkiwACCCCAAAIIIIAAAs4TmHvNpIeW3Xz/935izqTt6JvtUzU0jNnqIfV5Swb49UejhWPLU3mirZr42qc807pIIXRFRVnlsGr12ZYPGqJFoDWgWiOR+xnZWvf2+gIaeH3f5y+ZWTssrdLkPREhbt7JuSECCCCAAAIIIIAAAgjYWOCLdTM+Pn5q7f/eZYRb47Nt+1HehCm7wTJfoDQYKiuvqlHU2Y88e7pUo5NHjRw2eNCAcDis0DbSluGg6x7y1szdYOgvP33hrdeO7CFVYU/Zb42vwnpwdwQQQAABBBBAAAEEECh6gb/+yk23zrncFzC3z8nmS2GtunZjyy3n8o9XHblaPko9t7FB0dl6aZZxxecuH/z1eeOzlWMu8iHEzYUqeSKAAAIIIIAAAggggICzBR75b38xbdJIcwvc7L9i/bq5/pPtYvtLK64aWfI/vjAp2xlnOT9C3CyDkh0CCCCAAAIIIIAAAgi4QKCiLLTur780pnpw9vtynadj+EIVowZ5H140uTzkt3nxCXFt3kAUDwEEEEAAAQQQQAABBAojMGL44H+870tVA0Nef7AwJbDFXQ1fsGxwifHoHZOrB+eiTzvLlSTEzTIo2SGAAAIIIIAAAggggIBrBC4fP3LtNxYFfNrw1u69lzky1wTcgCf6yMLay0YOytEtspstIW52PckNAQQQQAABBBBAAAEEXCVw/TUTH1r6eXN5KG0jVGQvc4sgr/ebN18ya+Jwp1S96BrJKQ1DORFAAAEEEEAAAQQQQMAmAotvvu6eW+d4zc1stRRysbwU3PqDpUs+PWLRzNEOqjMhroMai6IigAACCCCAAAIIIIBAYQQeWPLnfz5zknaFLcztC3FXf2jADRMHLP/cpYW4ed/vSYjbdzuuRAABBBBAAAEEEEAAgeIRWPNXt11Te7ECPw3fdXetff5gyYAhUy4q+ZtbL3NcTQlxHddkFBgBBBBAAAEEEEAAAQQKIDB4QPmGB75426wx5SGfr6TclYGuLxAMlg8q9XvmjvU/dsdlg8qdt5S0y79+KMAbn1sigAACCCCAAAIIIICASwWGV1Y8+tXr7rzhsh/99Lfbdh9sipQY4VYjGnZBddVz6w+VBSNNsy4J3Ti5ZszQModWihDXoQ1HsRFAAAEEEEAAAQQQQKAwAhNGDnl4ycwvf7b2qZ++/bzzA1313PpLyoLRplnjSm+c5ODg1no3EOIW5qeCuyKAAAIIIIAAAggggICjBSaMHProkplf+ezEH/3018/t/p0Te3Tbe24V3I4tnXf5iNFDSx3dIlbhCXFd0IhUAQEEEEAAAQQQQAABBAojUDtyyCNLrvvi9ZP+5ae/ef4X77Z4Koxwi/2HLiu4DYTKfK0Ns8aG6iZXjxlWXhi+HNyVEDcHqGSJAAIIIIAAAggggAACxSQwafTQx+667iufnfQvLx94Yffvms1At9mIRmxoYPXcmsHt6GDdn3xqrIuCW0ubENeG7zqKhAACCCCAAAIIIIAAAs4TMAPdv5z9lRsue+rlX//bnt81G6FYj65dAt32nttw48wxwbrLXRjcWu8YQlzn/eRQYgQQQAABBBBAAAEEELCtwKTRw9b85ezFfzb5Ry9rju6hWKBb4FWXreDWG2789NiSeVoteZhTV0tOp9EJcdNRIg0CCCCAAAIIIIAAAgggkIHAxFFDH73r018ytxf69Qt73ivUYlTWasklkaYZZnDrqjm33TUGIW53MhxHAAEEEEAAAQQQQAABBPolMGnU0NVf/fTiGybH99GNtjX3K8e0Lzbn3JaWWvvc1k2uGeXYfW7TrnF7QkLcTMVIjwACCCCAAAIIIIAAAghkIJC4j+5zv3gnHKzwh8qNaDSDLDJKGjWC5YPKgsZ0V+xzm1HVlZgQN1Mx0iOAAAIIIIAAAggggAACGQtY++h++foJ29882hgN+r3ejLNI74Jw1BhVPXDuxKHu2Oc2vUqfT0WIm6kY6RFAAAEEEEAAAQQQQACBPgpMHD1Mf/p4MZelIeBLIw1JEEAAAQQQQAABBBBAAAEEEHCAACGuAxqJIiKAAAIIIIAAAggggAACCKQjQIibjhJpEEAAAQQQQAABBBBAAAEEHCBAiOuARqKICCCAAAIIIIAAAggggAAC6QgQ4qajRBoEEEAAAQQQQAABBBBAAAEHCBDiOqCRKCICCCCAAAIIIIAAAggggEA6AoS46SiRBgEEEEAAAQQQQAABBBBAwAEChLgOaCSKiAACCCCAAAIIIIAAAgggkI4AIW46SqRBAAEEEEAAAQQQQAABBBBwgAAhrgMaiSIigAACCCCAAAIIIIAAAgikI0CIm44SaRBAAAEEEEAAAQQQQAABBBwgQIjrgEaiiAgggAACCCCAAAIIIIAAAukIEOKmo0QaBBBAAAEEEEAAAQQQQAABBwgQ4jqgkSgiAggggAACCCCAAAIIIIBAOgKEuOkokQYBBBBwrYBhuLZq6VSsyKufDhFpEEAAAQQQcJYAIa6z2ovSIoAAAlkWONsU8bRFfd4sZ2v/7FRloy1qVp8XAggggAACCLhIgBDXRY1JVRBAAIHMBVqjRjSa+WWuuEIVV/VdURUqgQACCCCAAALtAoS4vBUQQACBohZobIm2Rgyvt+i6cVXltoih6hd181N5BBBAAAEEXCdAiOu6JqVCCCCAQCYCzW3R002R4hyorIqr+plokRYBBBBAAAEE7C5AiGv3FqJ8CCCAQE4FIlHjo1NtRdeH6/Goyqq4qp9TXjJHAAEEEEAAgTwLEOLmGZzbIYAAAvYSCFUMOPJJ67nWqL+YenJV14bW6PuftKr69moPSoMAAggggAAC/RMgxO2fH1cjgAACDhcoGzjoxLnwkROt/mL6hRD0ew+faD1+LqzqO7wBKT4CCCCAAAIIdBIopicamh4BBBBAIEmgfMgFvlDpO8eaTzZEFPglnXfhgaDPe7Ix8u5/tvhCIVXfhTWkSggggAACCBSxACFuETc+VUcAAQQ8nsqLPzVoWHVja/Q/3m/UxFTX9+WqghHDUGUbWiKDhtWo+rwLEEAAAQQQQMBNAoS4bmpN6oIAAghkLOAPhi76k2tLgz5NTFXg5/V4XRzl+nxaZcqrah75Y6uqrIqr+hmTcQECCCCAAAII2FiAENfGjUPREEAAgbwIjJleF44aJQHvgY+a//1Ig9YYDrhxxLJZKcOjCqqaqmw4YqjieQHmJggggAACCCCQPwFC3PxZcycEEEDAngI1l08bNunasoA/4DOj3F3vnDvTFAkF1J3rkqm5qoiqo0rteteMb1VNVXZI7ZWquD1bhFIhgAACCCCAQJ8FCHH7TMeFCCCAgEsEvD7fVYu+0ebxabkphX8asfzSr8/s/31TU2tUR/RHIaKiXQfFuyqqCqxiW+VXRVQdVerIiRZVUAdV2au/9NequEuakGoggAACCCCAQIeA1zDY9Z63AwLdCni9Nv0ZsW3BuqXkhO0F/uNfnzz43KYmjd81PFp3KmJ4Ksv8F1UGawYHB5f5Q0FvSSzWtX09zAKq/K0Ro6XNON0U+fh029FTbaeaIhqnrPJ7vR514Y6/ZelVX7zXEXWhkDYX4NPY5g1E8RDIscChdTPHr9g9Y+3BXywfl+NbkX16AvpYtunje3rlJxUCORew7c+IbQuW8ybhBjkTiEbCO7+z/JN9Pz+n6DD25acCRc3LVUw4IOQvDXiDAbOP1/5fiyoK19TitrDRHDbOtZh1sXp0VSOzLkF/1RVzr7/vH3z+QM4sybiIBPg0LqLGpqoIJAtYEa7HQ4ybbFOoI4S4hZLnvo4RsO2zi20L5pimpaCpBNoaG179X/cdf/NnLWFDUaKVRP8vGjVjXv2f/eNbq8yKchXNmsOV1W3bUVPF55qRO/zKz1z3V48HyytSAXAMgYwF+DTOmIwLEHCRwI5l3ps2LV26dNOmTUu3GxtZw9AObUuIa4dWoAy2FrDts4ttC2br5qRwaQhEI5G3tv7Dr/7PxlK/pyms2DaNa2yfRL24pQFfa8Qz+b8su2Lhf/f5/bYvMgV0jACfxo5pKgqKQPYFrAh3uzF/myJdOnKzD9ynHPWxzEobfZLjIgQQQMClAgr/rrzj3hse2jxsyiz1fw4o8WsKrrpCzeWmHPVHBVaxVXhVQW01fPJMVUpVI7516TuXaiGAAAL5Fji07uFNHs/S+XWeuvlLPZ7dP37xUOciKAL2zlx3yKPRzGbPol7mv8zX+SPeZTs6XWRec/7Vkd7j6Xy8I8X5853yTLjT+dspbcJtE6/MN1zu78dMpNwbcwcEEEDAaQIjLp+uP0ffeu3I7vpjB15vOP57IxJ1yFJT7dYaVq3VscqGX1w9+dox0+ddNHWW0xqB8iKAAAII2Fng0Is/3m1FuJ5YjLtp04ondixPHqz84jKtR9Vekd0rxi+79OCkh88f8Wy6aeak9rWqOib2nq+10s/0pLGSVcorvb/pNHZaeY3PPGc7t0D3ZWO5qe5tOIOAOZ3Ppj8jti0Y7xr3CbQ2nGk8fuzUx4fDrc1O2TlIs4YDJaWVNWPLh1eXVAxyX6NQI/sI8Glsn7agJAjkVSA2SPn84GQryOw8ITeWJGEpqnggGr/MStH+T+sfiVl0ucf5+nW6LtbFa94o4dLORzpu3JGg/d8unT6sj2V6cfP6s8DNEEAAAccJKETUn8oxlzqu5BQYAQQQQACBHAns2GYGr7d9rmOnoHGfu23Git2bHl73rbrOuwfNWPtUxwErze6l2+MbDNV9a+2MTSvai1i30TA2tv93crfs+XronBXQdmRjlWXtwYQe5LqNB9ceGL9i07YdG+s6FsFaur0jwbjl31664qZNB9495Klz5VZHzMXN0duebBFAAAEEEEAAAQQQQMCVArGo0qOxv/F5s9bY4+QJuZMv7RJEzpiUMF64M46C1/b8EkYyJyUxzyV2wB569z+1RjkAACAASURBVECnaNu6wIynPR4zim1/dbrv+Ek66d4XIa5725aaIYAAAggggAACCCCAQLYFrIWmUua6WxNyU57o/eCO+KRdjVw2zNd2rWLV6WUl0enkKb+9519EKQhxi6ixqSoCCCCAAAIIIIAAAgj0T6B9oantsTA08RULSTU4uE/ZxzqG1TurV3wgc6eMukzAjZ8bd+nkFOs5W4VM6kPuU9EcdxEhruOajAIjgAACCCCAAAIIIIBAgQR2PGGukGxuFtT1ZU6tVYz7cPvWQF1Pp/HvhPi4fcWo9ouSJuAmZGbtWaTFms/H1u09wqkKmUYpHJ+EENfxTUgFEEAAAQQQQAABBBBAID8C7Ys7fSs5wvV4zHWczCm6fRmsHAtUtYdQx+xec0kp87X7Nwe1j+6d1sZD50+3J4vtb1u30eo/jl8bW2DZM2NtykLmh6mgdyHELSg/N0cAAQQQQAABBBBAAAHnCMTGE3+787LJ50vfHqj2ZbCyVlTuNPlWg5Zj/05YMqpbJV170OxBjr/MEc+pxzt3m4eLTth0z08XCVMVZwvYdsND2xbM2e1N6RFAAIEMBfg0zhCM5AgggEBuBfSxTC9ubonJHQEEEEAAAQQQQAABBBBAIG8ChLh5o+ZGCCCAAAIIIIAAAggggAACuRUgxM2tL7kjgAACCCCAAAIIIIAAAgjkTYAQN2/U3AgBBBBAAAEEEEAAAQQQQCC3AoS4ufUldwQQQAABBBBAAAEEEEAAgbwJEOLmjZobIYAAAggggAACCCCAAAII5FaAEDe3vuSOAAIIIIAAAggggAACCCCQNwFC3LxRcyMEEEAAAQQQQAABBBBwvsCOZdp8NcVr2Q6n1i39GnWTcua6Q/apOyGufdqCkiCAAAIIIIAAAggggIBjBTbd5PXaKtbrt2TaNdq9YrzXNhE+IW6/G54MEEAAAQQQQAABBBBAoMgElm43ury2LxWBYj3bhHoZtkj6NUpKGav6podt0pVLiJthy5McAQQQQCCrAg899JDGer322mvd5Wol+MEPfmAl2LJlS8/pu8uH4wgggAACCORUoG6jYa9Qr9+1TbtGdRvNmu/+8Yu2GK5MiNvvlicDBBBAoDgEfvnLX4ZCIYWXn//858PhcMpKL1iwQAmGDBly+PDhlAk4iAACCCCAgIsF2kO93xxUHQ+tm5k0bjl2zOzl7TgZ+//Wq+sQ586zXhPPmmfMf5+/uONsQnZd+5ITTul+XW/WbZsk1qjbRB0nJl86rtc0eUhAiJsHZG6BAAIIuEHgvffea21tVU1eeOGFvXv3JldJMfD27duTj/fziHpxNRLsq1/9aj/z4XIEEEAAAQRyLzB+0gyP58C76s0c97nbZnTp2NzxxIrdnqXz69qLoUHN43Xg/L/igacZj960KbG0StslLH1x2fmLY8OjdVFCdptuOp/ezC7hlPLNYO7s+Rp1r7djmVna8zXrPmU+zhDi5kOZeyCAAAKuEXj00UcrKiqeffbZ5BqtXr26urr6vvvuSz7FEQQQQAABBIpDYNylkxVAxrpxk2LcHduS4sCOWa0H1yoybr/O44mFwp7EGa9J44B3r1hxYO1BazZw7OJNN41f4ek4Yk0L7hg3bGWXmJ81oPqmrj29KZsooUYd581VqDq9YgHu9o0dsXvKfPJ3kBA3f9bcCQEEEHCBwIUXXnjDDTds3ry5y1Dk48ePv/zyy7feemtZWVlyNa0BzNZvw9GjRzc3NyensebcKk2Xcc69Tr7VrQcMGBD/VdvDtN7km3IEAQQQQACBnAl0iXGTI9zzUeG45d82V2yKdf96PJoDq5cVMVoDjDt36ZppZqx9ann7sODYfcwY8xcdR+q+FQuZrVfsvjPWHkyIQOs2WmHxtixuc7Qpm5nFC9+X/yDE7Ysa1yCAAALFLLBw4cKTJ0/u3LkzEeH73/9+SUnJPffc00XGij8jkUhbW5t+XTc0NAwbNmzEiBFdIuTrrrvu7Nmz1pfRs2fPvuqqq9KczavR0RdffPGyZcusa1euXKmsiHKL+f1J3RFAAIGCChx694DiyUnjY4WIBa4dizAlR7gdyWJpY+OB46/zM2c7DzA+nyJp3mun3BKzipXots91niZrhcXtIXVC6uT/7FQj63TSisqGGTEnDo1OziaPRwhx84jNrRBAAAFXCGi5qSuvvHLVqlXxztjGxkZN0J01a9bIkSO7VHHp0qUKfdetWxcIBHSqvLy8vr5ec3q/973vJaa8+eab16xZYx3ZtGlTcoLu5DQ6+sYbb4xfq2HSKtvjjz/e3YJY3eXDcQQQQAABBLIgcOjFH2uI8fnws25+R4ybHOF2f7sd8Wm26nyNfYcbG1lckFfXGqUuxLjlTynItcmSyoS4qRuJowgggAAC3QkoTFVE+sEHH7zxxhtWmueff/7NN99UeGnFsfELFfoqWZfQd/jw4Rrq/MwzzyQOV068VnN9J0yY0CVBysJYo6PHjx8fv6/KNmrUqP379xPiphTjIAIIIIBATgXaJ9HGF5TSmOP2GNeMcGes/VZas1WtaDi272586HHfi23Npe26n096kWt8WnBCjXoqiTUJuacU+ThHiJsPZe6BAAIIuEzg61//ugLReGfp1q1bFVheffXVXaqpYcnvvPNOYggaT6BhyR9//HFKFitMTXmqy0ENZtb45+9+97uJa15s27YtnWtJgwACCCCAQHYFtJePOWW2SyBrxbhPbDuQPFi4x9snTG1tz7jH5D2cNEtgLqGcsLhUezdxb0sgp65RqlsdWndnbIWsNEPhVFlk7xghbvYsyQkBBBAoGgGrJ1ZTXj/88ENrryBNgi0tLS0IwDe+8Q1rIm787/fff79QhSmIADdFAAEEEMi/QNKqwtYuPwmrQLWXKRbjbtq0O2k6bLdljsWkmtra8QVux1pTfe0jtfa2Tciwo6idO5XTrlFiTu1ljM0YTreXutuKZ+kEIW6WIMkGAQQQKDKB+KJTmg2rHt25c+d2B3Dw4MHkYcMDBw6sqalJeYk1vHnKlCldhj0nJx47dmwwGEw+zhEEEEAAAQTyLxCbN5tiZLG1vHH6EW5sReVOk2+1vFPs3+msDpWy3srQ2pao46y5YFSKona5uLsapbiHmbT3DFNcmIND5uIfvBBAAAEEEMhUwFp06q677tKF6kdVtJmcg9XZu2vXLnX2xhNYE2i1BnJiR6s22tWUXSuHA7HXnDlzeg1x47N2H3nkEbptk/05ggACCCCQEwFzT5+N6eccm/Y6Y22nJY3HLf+FsbxTFl2OJN2j7vw9k871mpvulJwm4fZJOXZbu/RTdptFzk/Qi5tzYm6AAAIIuFLAWnTKqpq2ve2ujg8++KBm5C5fvtzqyFUP7bx584YOHaqgNH5JVVXV9u3bv/nNb+qIEtx9992KXZP3H0q+hcqwfv36Y8eO3XbbbfGOYu2va2WVnJ4jCCCAAAII5F0gtgRVJn24eS+h225IiOu2FqU+CCCAQN4ErEWntLrytGnTurvpn/7pn2oT3aNHj2pEsebrKHZV92yXubIatLxv37733nvPSnDixImPPvooZbdw8l2U/+9///uf//znVv7KQQtZ/f3f/31ySo4ggAACCCCQXwGt1qSXOZN26beXd96WNr8FKbK7ebU4R5FVmeoikIGAPpbs+TNi24JlgEtSBBBAwPkCfBo7vw2pAQK5Ezi0bqa5DJOmqdpllmru6mqbnM1vFez5+G4bIgpS7AK2/RmxbcGK/R1D/RFAoMgE+DQusganugggYHcBfSwzUNnujUT5EEAAAQQQQAABBBBAAAEE0hQgxE0TimQIIIAAAggggAACCCCAAAJ2FyDEtXsLUT4EEEAAAQQQQAABBBBAAIE0BQhx04QiGQIIIIAAAggggAACCCCAgN0FCHHt3kKUDwEEEEAAAQQQQAABBBBAIE0BQtw0oUiGAAIIIIAAAggggAACCCBgdwFCXLu3EOVDAAEEEEAAAQQQQAABBBBIU4AQN00okiGAAAIIIIAAAggggAACCNhdgBDX7i1E+RBAAAEEEEAAAQQQQAABBNIUIMRNE4pkCCCAAAIIIIAAAggggAACdhcgxLV7C1E+BBBAwOkCv/zlL0OhkNfrfe2117rUJX5KZ63X6NGjm5ub48m2bNmS8kKnm1B+BBBAAAEEEMiRACFujmDJFgEEEECgXWD79u0zZsy4/PLLn3322ZQo//zP/2zEXg0NDcOGDSsrK0sOhlNeyEEEEEAAAQQQQKCLACEubwkEEEAAgRwKHD9+/Dvf+c6Xv/zlL3zhC5s3bz58+HAPNysvL6+vr6+oqHj88cfD4XAPKTmFAAIIIIAAAgikFCDETcnCQQQQQACB7Aj87Gc/U9/spZdeWltbe/LkyZ07d/acr+LbCRMm7N+/nxC3ZyjOIoAAAggggEBKAULclCwcRAABBBDIjsDWrVtHjRp19dVXf+Yzn1H4um3bNmLX7MiSCwIIIIAAAgikEiDETaXCMQQQQACBbAholPLLL7986623lpaWDh8+/IYbbtAk2w8//LCHvA/EXtYlPSTjFAIIIIAAAgggkFKAEDclCwcRQAABBLIgYI1SXrBggZXXwoULex6rrJD4+uuvV2fvPffck4XbkwUCCCCAAAIIFJ8AIW7xtTk1RgABBPIi0NjY+MQTT1RVVV100UXWDS+55JKSkpLkscp33XWXtWPQBRdcoBD3D3/4w9ixY/NSRm6CAAIIIIAAAm4TIMR1W4tSHwQQQMAmAtaQ41mzZo0cOdIq0uTY64UXXti7d29iIeObBmnfoOeffz4QCNikChQDAQQQQAABBBwnwGOE45qMAiOAAALOENB2uK2trQpog8FglxJrg1yFvs6oBqVEAAEEEEAAAUcJ0IvrqOaisAgggIBDBDRKWcGt1lJuampS32z8pUHImmr7zDPPNDc3O6QqFBMBBBBAAAEEnCRAiOuk1qKsCCCAgFMEulsY2VpX+YMPPnjjjTecUhfKiQACCCCAAAIOEiDEdVBjUVQEEEDAMQKrV6/ubmHkBx98UItOaayyYypDQRFAAAEEEEDAOQJeDR5zTmkpKQL5FtAqr/b8GbFtwfLdQtwPAQQQKKgAn8YF5efmCCCAQFcBfSzTi9sVhX8j4AiB6urqY8eOOaKoFBIBBBBAAAEEEEAAgbwJEOLmjZobIZBNgdLSUlbrySYoeSGAAAIIIIAAAgi4QoAQ1xXNSCWKT6CysvLUqVPFV29qjAACCNhIQJ/D+jS2UYEoCgIIIICAx0OIy7sAAUcKEOI6stkoNAIIuEuAENdd7UltEEDAJQKEuC5pSKqBAAIIIIAAAnkW0IQRTRvJ8025HQIIIIBAzwKEuD37cBYBmwrU1ta+/fbbNi0cxUIAAQSKQ+DIkSNjxowpjrpSSwQQQMAxAoS4jmkqCopAosCECRPeeecdTBBAAAEECiigrxr1hWMBC8CtEUAAAQSSBQhxk004goADBNRvoN4DBxSUIiKAAALuFXj//fdHjx7t3vpRMwQQQMCRAoS4jmw2Co0AA5V5DyCAAAIFF6AXt+BNQAEQQACBZAGvYRjJRzmCAAKWgNdr35+RsrKykydPstIJ71UEEECgUAI1NTX79u2rrq4uVAG4LwIIIIBAFwE9vdOLy7sCAacKTJs2be/evU4tPeVGAAEEHC6g2SL6kpH41uHNSPERQMCFAoS4LmxUqlQkAjfeeONLL71UJJWlmggggIDdBF555ZU5c+bYrVSUBwEEEECAEJf3AAJOFZg3b159fb1TS0+5EUAAAYcL7Nq1a/bs2Q6vBMVHAAEEXChg33mGLsSmSg4UsPNcXHFWVVUdPny4srLSgbQUGQEEEHC2wNixY3fu3Mm+uM5uRUqPAAKuE2AuruualAoVmcD8+fO3bdtWZJWmuggggEDhBbQUgmbhEt8WviUoAQIIIJAkwEDlJBIOIOAcgTvvvPOpp55yTnkpKQIIIOASga1bty5cuNAllaEaCCCAgLsEGKjsrvakNtkWsPlAZVWXkXLZbnPyQwABBHoRaG5unjhx4p49e1hOuRcpTiOAAAJ5F2Cgct7JuSEC2Ra4/fbbt2zZku1cyQ8BBBBAoFsBraVcW1tLfNstECcQQACBggowULmg/NwcgX4LMFa534RkgAACCGQmsHHjxmXLlmV2DakRQAABBPIlQIibL2nug0BuBNSToBeLTuVGl1wRQACBrgJvvfXWkSNHtNpf1xP8GwEEEEDAHgLMxbVHO1AKuwrYfy6u5PS8tWTJkn379tlVkXIhgAAC7hFYsGCBhs8Q4rqnRakJAgi4S4C5uO5qT2pTrAJXXHGFNq6gI7dY2596I4BA/gTows2fNXdCAAEE+ipAL25f5biuOAQc0YurpqAjtzjej9QSAQQKLEAXboEbgNsjgAACvQnQi9ubEOcRcIiAOnKnTZu2YcMGh5SXYiKAAALOE6ivr9d2QQxRdl7LUWIEECgyAXpxi6zBqW6GAjU1NZrj6oidIU6dOjV9+vSdO3c6orQZtgPJEUAAgQILKLidOnXqjh07NDGkwEXh9ggggAAC3QvQi9u9DWcQiAmUlpbqscYRGJWVlffff/+DDz7oiNJSSAQQQMBZAo899tjChQuJb53VapQWAQSKU4BNg4qz3al1ugIOCnFVpcWLF6svl3Wn0m1d0iGAAALpCezdu3fXrl0PPPBAeslJhQACCCBQGAF1TenpnRC3MPrc1SkCGvR77Ngxp5RW5Xz66afXrFmj1accVGaKigACCNhZQLvg3nvvvfp01WOTnctJ2RBAAAEE9Nyup3dCXN4JCLhKQE9geg67++67nRWZu6oNqAwCCLhIQB0CixYtWr9+PcscuKhVqQoCCLhcgBDX5Q1M9fopoAmuGvrbz0zyfLmmij355JN6JnPKLOI8+3A7BBBAIH0BfZZqmQOtWp/+JaREAAEEECiUgJ7b9fROiFsof+7rDAEnhriS1QZCWhZFI+ucoUwpEUAAAVsKaImp2tpadgmyZeNQKAQQQCCFACFuChQOIdBFwHFzcePl/9rXvqZBy2vXrqVNEUAAAQT6IKCl+15//fXVq1f34VouQQABBBAoiABzcQvCzk0dJjBlypT9+/c7rNAdxdVw5Zdeeqm+vt6h5afYCCCAQKEEtGiflu7T0gaFKgD3RQABBBDog4Ce2/X0zkDlPtBxSREJaIja22+/7dwKWwssb9iwwblVoOQIIIBAngXUf6tF+3bs2MESynmW53YIIIBAPwX03K6nd69hGP3MiMsRcLGAVmyqqqpqampydB31rKbyq1OXxzVHtyOFRwCBPAho/q3GJ7NFUB6ouQUCCCCQdYGJEyc+++yz9OJmHZYMXSWgmFALFDu6I1ftoe0uNGajrq7OcatDu+rNRGUQQMDeAtb+QKdPn9bjEV8I2rutKB0CCCCQQkAf49rJXL24hLgpdDiEQKKA08cqW3XR6lNaNGXu3LmaYEb7IoAAAgh0EdAKJfqEvOWWW1hfivcGAggg4FABa5SyCk+I69AWpNj5E1D/pzvCQu0kpK4JDVresmVL/vi4EwIIIGB7AX3Ia5yLBrzcfvvtti8sBUQAAQQQSC2gD3NrG3NC3NRAHEUgLjBnzpxdu3a5A0SDrnfu3Pncc89py1wGLbujTakFAgj0R0Cj2jT51lpcynow6k9uXIsAAgggUEABPbHPnj1bBSDELWArcGtnCKjzU98J6THIGcXtrZSaYKZlVEaPHj19+vQf/vCHvSXnPAIIIOBagVdeeUWfhJp8q+/+tAu6a+tJxRBAAIHiENCnurqmVFdC3OJocGrZDwHFhPpqf+/evf3Iw3aXrlixQo90+q5Lj3f6OLBd+SgQAgggkEsBrUeyaNGiVatW6Ss/Tb5lcalcYpM3AgggkA8BfbDrNhqxqL8JcfMhzj2cLqAxD+6LA9VlsXnzZu0kpIc8LbLivgo6/V1H+RFAIBcCegZasmSJtbKUvunTgoK5uAt5IoAAAgjkWSDehav7EuLmGZ/bOVLATdNxuzSAhmHrIW/lypVWoMtKVI58g1JoBBBIQ0BPP1Zwq28tDx8+zMpSaZiRBAEEEHCMQHwirkrsNQzDMQWnoAgUSEATcbWR9J49e9w9WUvPfxs3bqyvr9eT35133qnot0De3BYBBBDImoD2kHjqqaf0/Z1Gr+mTbfHixVnLmowQQAABBOwhoGf1sWPH/va3v62srFSJCHHt0SyUwvYCWoJYSzRpCqvtS9rfAmqlZT0L6olQu0Sq+1rdHfrbmtjQ36y5HgEEEMiLgD6+9J2dvtG3pmAostU3d3yO5cWemyCAAAIFENi2bZueXbU7pnVvQtwCtAG3dKKAFlXWCLd9+/Y5sfB9K7NmrCU+I+rpUOGuvhvT4luavebuDu2+iXEVAggUREBfzOkjWh9Zer3++uv6W0fi39Ax27YgjcJNEUAAgXwKLFiwQN9mzp8/37opIW4+8bmXswU0VllfDhXn05L17KiIV7tr6FFSA//USeLs5qT0CCDgFgHrqzd9DaexNpphof8ozg9qt7Qn9UAAAQQyE9DXmnpK1yIL8eXxCXEzEyR1MQs89thjCvC0vUQxI1B3BBBAAAEEEEAAAQTsI7Bhw4b9+/evX78+XiRCXPu0DiWxu4D6LadOnfrxxx/bvaCUDwEEEEAAAQQQQACB4hCYPn26dsFMXCeVTYOKo+WpZTYENPtUPzyazp6NzMgDAQQQQAABBBBAAAEE+iWgCXRaTrnLPiD04vbLlIuLTaAIF50qtiamvggggAACCCCAAAJOEeiy0JRVbHpxndJ8lNMWAlpMWAuZ0JFri8agEAgggAACCCCAAAJFLGAtpx9fSDkuQS9uEb8pqHqfBOjI7RMbFyGAAAIIIIAAAgggkE2BlF24ugG9uNlUJq9iEKAjtxhamToigAACCCCAAAII2FlAC8Gq52nevHnJhaQXN9mEIwj0IkBHbi9AnEYAAQQQQAABBBBAIJcCd99995QpU772ta8l34Re3GQTjiDQi4A6cvX64Q9/2Es6TiOAAAIIIIAAAggggEC2BdThtHfv3pTxrW5FL262vcmvOAQ0NGLu3Ll79uyprKwsjhpTSwQQQAABBBBAAAEEbCEwderUzZs3q88pZWnoxU3JwkEEehHQHrnLli1btWpVL+k4jQACCCCAAAIIIIAAAtkTWLt27Zw5c7qLb3UfenGzh01OxSfQ8xdIxedBjRFAAAEEEEAAAQQQyKFAOkMp6cXNYQOQtesF1q9fr5nurq8mFUQAAQQQQAABBBBAwA4CDz744P3339/zVEFCXDu0FGVwqsC0adNuvPHGhx56yKkVoNwIIIAAAggggAACCDhEwFrtdfHixT2Xl4HKPftwFoHeBbTu1MqVKzUloPekpEAAAQQQQAABBBBAAIHMBd5+++1FixZptdfS0tKerybE7dmHswj0LqApAXV1dTt27NAaVL2nJgUCCCCAAAIIIIAAAghkItDc3Dx9+vSnn366tra21+sYqNwrEQkQ6EVAke2TTz6pb5V6ScdpBBBAAAEEEEAAAQQQyFxAy98sX748nfhWeRPiZg7MFQgkCWiUsiblavp70hkOIIAAAggggAACCCCAQN8FNmzYoMHJvU7Bjd+AELfv1lyJQKLAAw88cOrUKf0EwoIAAggggAACCCCAAAJZEaivr3/uuee0j0n6uRHipm9FSgR6EdDP3ksvvbRt27Ze0nEaAQQQQAABBBBAAAEEehPYu3fvmjVrnn322d4SdjofyCg1iRFAoGcBTYJfsGCBtupigeWeoTiLAAIIIIAAAggggEAPAlpC+d5779WSrr0uodwlE0LcHlQ5hUDGAvoJjEe5V1xxRcbXcwECCCCAAAIIIIAAAkUvcOTIES0xpedqdR1lisFA5UzFSI9ALwL6Ody8ebO+c3rllVd6ScppBBBAAAEEEEAAAQQQ6Cyg/tslS5boiXrMmDF9sGFf3D6gcQkCvQto6SltI3TnnXfefvvtvacmBQIIIIAAAggggAACCHg8b731ltV/27f4VoSEuLyPEMiVgLao1vdP11577YoVK3J1D/JFAAEEEEAAAQQQQMAtAlo/edWqVZp/24fxyXEDQly3vB2oh10FNGJZE3RXr15t1wJSLgQQQAABBBBAAAEECi+g3Te1P5DWT850fakuRWcubuHbkhK4W+DJJ58cPHjw3Llzjx075u6aUjsEEEAAAQQQQAABBPogYA1+3L9/fx/WT06+HSFusglHEMiywAMPPLBy5cq6ujoWoMqyLNkhgAACCCCAAAIIOFxAi0tNnz599uzZ69evz0pVGKicFUYyQaB3AfXiagEq/fQ+9NBDvacmBQIIIIAAAggggAACbhfYsmXLunXrtHhybW1ttupKL262JMkHgV4Eqqurd+7cqUQatKwvq3pJzWkEEEAAAQQQQAABBNwroP1HtDKrJt9qcHIW41uBEeK6911DzWwpoC5cDVpWd67+Q7MObFlGCoUAAggggAACCCCAQA4FtLLU1KlTNbzx6aef7s/iySmLSIibkoWDCORQYM6cOXv27NENNOtAC6Pn8E5kjQACCCCAAAIIIICAnQS07a2egbWy1L59+xYvXpyLojEXNxeq5IlAWgIarqwthfTFlbYU6vPe1mndiUQIIIAAAggggAACCBRUQAvTrFmzRsuvalmpadOm5a4s9OLmzpacEehFQLMONPfglltu0ezcBQsW6DutXi7gNAIIIIAAAggggAACThM4cuSIpt2q83b06NHqvM1pfCsbenGd9gahvC4V2LZt26pVq9Sjq5m6Gsns0lpSLQQQQAABBBBAAIEiElAXjhZMVs+tHnFvv/320tLSPFSeEDcPyNwCgXQF9POvQFfryy1btmz+/PlahDndK0mHAAIIIIAAAggggIA9BLSoqnYD2rp1qwYnL1++PEdzbrurwl49IAAAAU1JREFUKyFudzIcR6BgAvq6a+PGjerX1SiOhQsXKtbNzzdeBaswN0YAAQQQQAABBBBwhYDWUlVkq+dYPcHqOXbevHn5rxYhbv7NuSMC6Qro00GfEera1dBlLaquv7O7aVi65SAdAggggAACCCCAAALdCKirVs+ru3bt0rPrFVdcocg2b2OSU5aIEDclCwcRsJGAxi3r+zB9auizQ6M+rHBXHbyEuzZqJIqCAAIIIIAAAggUk4BWkNq7d6/1gKqHVesB1Sbz7Ahxi+mdSF2dL6BPE+tLMn2maM8hfU+m3YamTJmicFcTd7ValY44v5bUAAEEEEAAAQQQQMAuAnrmVD+tOlr0/PnOO+9YfbZ6BFWPiz2HGRLi2uWtQzkQ6IOAZu0q6NXf1seNvkJj56E+MHIJAggggAACCCCAQHcCVleKloa59tprrf+2+fYf/x9yoNXDg/8rVAAAAABJRU5ErkJggg==;" vertex="1" parent="1">
          <mxGeometry x="81" y="-510" width="530" height="386.44" as="geometry" />
        </mxCell>
        <mxCell id="0ClBr7Q9rkolvcIS5It6-8" value="" style="group" vertex="1" connectable="0" parent="1">
          <mxGeometry x="-339.5" y="310" width="119.5" height="110" as="geometry" />
        </mxCell>
        <mxCell id="0ClBr7Q9rkolvcIS5It6-7" value="" style="rounded=0;whiteSpace=wrap;html=1;" vertex="1" parent="0ClBr7Q9rkolvcIS5It6-8">
          <mxGeometry width="119.5" height="110" as="geometry" />
        </mxCell>
        <mxCell id="gS69FY_D9aO8S74_3pXP-5" value="Serverless Compute&amp;nbsp;" style="outlineConnect=0;dashed=0;verticalLabelPosition=bottom;verticalAlign=top;align=center;html=1;shape=mxgraph.aws3.lambda_function;fillColor=#F58534;gradientColor=none;container=1;" parent="0ClBr7Q9rkolvcIS5It6-8" vertex="1">
          <mxGeometry x="25.39375" y="9" width="68.7125" height="72" as="geometry" />
        </mxCell>
        <mxCell id="0ClBr7Q9rkolvcIS5It6-11" style="edgeStyle=orthogonalEdgeStyle;rounded=0;orthogonalLoop=1;jettySize=auto;html=1;" edge="1" parent="1" source="0ClBr7Q9rkolvcIS5It6-7">
          <mxGeometry relative="1" as="geometry">
            <mxPoint x="70" y="270" as="targetPoint" />
          </mxGeometry>
        </mxCell>
        <mxCell id="0ClBr7Q9rkolvcIS5It6-12" style="edgeStyle=orthogonalEdgeStyle;rounded=0;orthogonalLoop=1;jettySize=auto;html=1;" edge="1" parent="1" source="0ClBr7Q9rkolvcIS5It6-7" target="gS69FY_D9aO8S74_3pXP-4">
          <mxGeometry relative="1" as="geometry" />
        </mxCell>
        <mxCell id="0ClBr7Q9rkolvcIS5It6-16" style="edgeStyle=orthogonalEdgeStyle;rounded=0;orthogonalLoop=1;jettySize=auto;html=1;" edge="1" parent="1" source="0ClBr7Q9rkolvcIS5It6-15" target="gS69FY_D9aO8S74_3pXP-1">
          <mxGeometry relative="1" as="geometry" />
        </mxCell>
        <mxCell id="0ClBr7Q9rkolvcIS5It6-20" value="Push Data" style="edgeLabel;html=1;align=center;verticalAlign=middle;resizable=0;points=[];fontStyle=1" vertex="1" connectable="0" parent="0ClBr7Q9rkolvcIS5It6-16">
          <mxGeometry x="0.2472" y="-1" relative="1" as="geometry">
            <mxPoint as="offset" />
          </mxGeometry>
        </mxCell>
        <mxCell id="0ClBr7Q9rkolvcIS5It6-15" value="&lt;h4&gt;&lt;font style=&quot;font-size: 14px&quot;&gt;Mobile client&lt;/font&gt;&lt;/h4&gt;" style="outlineConnect=0;fontColor=#232F3E;gradientColor=none;strokeColor=#232F3E;fillColor=#ffffff;dashed=0;verticalLabelPosition=bottom;verticalAlign=top;align=center;html=1;fontSize=12;fontStyle=0;aspect=fixed;shape=mxgraph.aws4.resourceIcon;resIcon=mxgraph.aws4.mobile_client;" vertex="1" parent="1">
          <mxGeometry x="-1200" y="319" width="100" height="100" as="geometry" />
        </mxCell>
        <mxCell id="0ClBr7Q9rkolvcIS5It6-17" style="edgeStyle=orthogonalEdgeStyle;rounded=0;orthogonalLoop=1;jettySize=auto;html=1;entryX=0.995;entryY=0.63;entryDx=0;entryDy=0;entryPerimeter=0;" edge="1" parent="1" source="0ClBr7Q9rkolvcIS5It6-7" target="sOEvAEHPT5xNIOF1DYVB-25">
          <mxGeometry relative="1" as="geometry">
            <Array as="points">
              <mxPoint x="-280" y="500" />
              <mxPoint x="-1104" y="500" />
            </Array>
          </mxGeometry>
        </mxCell>
        <mxCell id="0ClBr7Q9rkolvcIS5It6-18" value="Pull Location Data Map&amp;nbsp;" style="edgeLabel;html=1;align=center;verticalAlign=middle;resizable=0;points=[];fontStyle=1" vertex="1" connectable="0" parent="0ClBr7Q9rkolvcIS5It6-17">
          <mxGeometry x="-0.0142" relative="1" as="geometry">
            <mxPoint as="offset" />
          </mxGeometry>
        </mxCell>
        <mxCell id="0ClBr7Q9rkolvcIS5It6-24" style="edgeStyle=orthogonalEdgeStyle;rounded=0;orthogonalLoop=1;jettySize=auto;html=1;entryX=1;entryY=0.5;entryDx=0;entryDy=0;entryPerimeter=0;" edge="1" parent="1" source="0ClBr7Q9rkolvcIS5It6-7" target="gS69FY_D9aO8S74_3pXP-2">
          <mxGeometry relative="1" as="geometry" />
        </mxCell>
        <mxCell id="0ClBr7Q9rkolvcIS5It6-25" value="Time base trigger calculation&lt;br&gt;" style="edgeLabel;html=1;align=center;verticalAlign=middle;resizable=0;points=[];fontStyle=1" vertex="1" connectable="0" parent="0ClBr7Q9rkolvcIS5It6-24">
          <mxGeometry x="-0.0767" y="1" relative="1" as="geometry">
            <mxPoint as="offset" />
          </mxGeometry>
        </mxCell>
        <mxCell id="0ClBr7Q9rkolvcIS5It6-28" value="Example reference&amp;nbsp;&amp;nbsp;" style="text;html=1;align=center;verticalAlign=middle;resizable=0;points=[];autosize=1;strokeColor=none;" vertex="1" parent="1">
          <mxGeometry x="-785" y="-616" width="117" height="18" as="geometry" />
        </mxCell>
        <mxCell id="0ClBr7Q9rkolvcIS5It6-29" value="Example reference&amp;nbsp;&amp;nbsp;" style="text;html=1;align=center;verticalAlign=middle;resizable=0;points=[];autosize=1;strokeColor=none;" vertex="1" parent="1">
          <mxGeometry x="318" y="-625" width="117" height="18" as="geometry" />
        </mxCell>
      </root>
    </mxGraphModel>
  </diagram>
</mxfile>
